<svg xmlns="http://www.w3.org/2000/svg" viewBox="0 0 580 222.7"><title>bureau</title><rect x="7.3" y="208.3" width="18.6" height="9.95" rx="5" ry="5" style="fill:#716977"/><rect x="84.2" y="208.3" width="18.6" height="9.95" rx="5" ry="5" style="fill:#716977"/><rect y="44.2" width="109.7" height="170.16" rx="12" ry="12" style="fill:#7dacba"/><circle cx="10.9" cy="54.8" r="3.6" style="fill:#716977"/><circle cx="99.1" cy="54.8" r="3.6" style="fill:#716977"/><circle cx="10.9" cy="203.2" r="3.6" style="fill:#716977"/><circle cx="99.1" cy="203.2" r="3.6" style="fill:#716977"/><circle cx="54.9" cy="88.4" r="19.6" style="fill:#716977"/><circle cx="55.2" cy="88.4" r="15.2" style="fill:#f8b32f"/><circle cx="55.2" cy="162.4" r="38.3" style="fill:#716977"/><circle cx="54.9" cy="88.4" r="7.2" style="fill:#716977"/><circle cx="54.9" cy="163.3" r="26.7" style="fill:#f8b32f"/><circle cx="54.9" cy="163.3" r="14.2" style="fill:#716977"/><rect x="152.1" width="275.1" height="153.18" rx="12" ry="12" style="fill:#716977"/><rect x="161.5" y="8.8" width="256.8" height="136.3" rx="2.2" ry="2.2" style="fill:#fff;opacity:0.17"/><rect x="274" y="149.4" width="32" height="69.34" rx="1.6" ry="1.6" style="fill:#716977"/><line x1="234.7" y1="218.7" x2="345.8" y2="218.2" style="fill:none;stroke:#716977;stroke-miterlimit:10;stroke-width:8px"/><rect x="285.2" y="160" width="9.5" height="32.11" rx="4.7" ry="4.7" style="fill:#716977;opacity:0.33"/><rect x="190.4" y="131.2" width="16.6" height="7.71" rx="3.9" ry="3.9" style="fill:#7dacba"/><rect x="210.7" y="131.2" width="16.6" height="7.71" rx="3.9" ry="3.9" style="fill:#7dacba"/><rect x="231.1" y="131.2" width="16.6" height="7.71" rx="3.9" ry="3.9" style="fill:#7dacba"/><rect x="251.5" y="131.2" width="16.6" height="7.71" rx="3.9" ry="3.9" style="fill:#7dacba"/><rect x="271.8" y="131.2" width="16.6" height="7.71" rx="3.9" ry="3.9" style="fill:#7dacba"/><rect x="292.1" y="131.2" width="16.6" height="7.71" rx="3.9" ry="3.9" style="fill:#7dacba"/><rect x="311" y="131.2" width="16.6" height="7.71" rx="3.9" ry="3.9" style="fill:#7dacba"/><rect x="332.3" y="131.2" width="16.6" height="7.71" rx="3.9" ry="3.9" style="fill:#7dacba"/><rect x="353.1" y="131.2" width="16.6" height="7.71" rx="3.9" ry="3.9" style="fill:#7dacba"/><rect x="373.1" y="131.2" width="16.6" height="7.71" rx="3.9" ry="3.9" style="fill:#7dacba"/><rect x="190.4" y="121.9" width="16.6" height="7.71" rx="3.9" ry="3.9" style="fill:#7dacba"/><rect x="210.7" y="121.9" width="16.6" height="7.71" rx="3.9" ry="3.9" style="fill:#7dacba"/><rect x="231.1" y="121.9" width="16.6" height="7.71" rx="3.9" ry="3.9" style="fill:#7dacba"/><rect x="251.5" y="121.9" width="16.6" height="7.71" rx="3.9" ry="3.9" style="fill:#7dacba"/><rect x="271.8" y="121.9" width="16.6" height="7.71" rx="3.9" ry="3.9" style="fill:#7dacba"/><rect x="292.1" y="121.9" width="16.6" height="7.71" rx="3.9" ry="3.9" style="fill:#7dacba"/><rect x="311" y="121.9" width="16.6" height="7.71" rx="3.9" ry="3.9" style="fill:#7dacba"/><rect x="332.3" y="121.9" width="16.6" height="7.71" rx="3.9" ry="3.9" style="fill:#7dacba"/><rect x="353.1" y="121.9" width="16.6" height="7.71" rx="3.9" ry="3.9" style="fill:#7dacba"/><rect x="373.1" y="121.9" width="16.6" height="7.71" rx="3.9" ry="3.9" style="fill:#7dacba"/><rect x="190.4" y="112.7" width="16.6" height="7.71" rx="3.9" ry="3.9" style="fill:#7dacba"/><rect x="210.7" y="112.7" width="16.6" height="7.71" rx="3.9" ry="3.9" style="fill:#7dacba"/><rect x="231.1" y="112.7" width="16.6" height="7.71" rx="3.9" ry="3.9" style="fill:#7dacba"/><rect x="251.5" y="112.7" width="16.6" height="7.71" rx="3.9" ry="3.9" style="fill:#7dacba"/><rect x="271.8" y="112.7" width="16.6" height="7.71" rx="3.9" ry="3.9" style="fill:#7dacba"/><rect x="292.1" y="112.7" width="16.6" height="7.71" rx="3.9" ry="3.9" style="fill:#7dacba"/><rect x="311" y="112.7" width="16.6" height="7.71" rx="3.9" ry="3.9" style="fill:#7dacba"/><rect x="332.3" y="112.7" width="16.6" height="7.71" rx="3.9" ry="3.9" style="fill:#7dacba"/><rect x="353.1" y="112.7" width="16.6" height="7.71" rx="3.9" ry="3.9" style="fill:#7dacba"/><rect x="373.1" y="112.7" width="16.6" height="7.71" rx="3.9" ry="3.9" style="fill:#7dacba"/><rect x="190.4" y="103.9" width="16.6" height="7.71" rx="3.9" ry="3.9" style="fill:#7dacba"/><rect x="210.7" y="103.9" width="16.6" height="7.71" rx="3.9" ry="3.9" style="fill:#7dacba"/><rect x="231.1" y="103.9" width="16.6" height="7.71" rx="3.9" ry="3.9" style="fill:#7dacba"/><rect x="251.5" y="103.9" width="16.6" height="7.71" rx="3.9" ry="3.9" style="fill:#7dacba"/><rect x="271.8" y="103.9" width="16.6" height="7.71" rx="3.9" ry="3.9" style="fill:#b93a59"/><rect x="292.1" y="103.9" width="16.6" height="7.71" rx="3.9" ry="3.9" style="fill:#7dacba"/><rect x="311" y="103.9" width="16.6" height="7.71" rx="3.9" ry="3.9" style="fill:#7dacba"/><rect x="332.3" y="103.9" width="16.6" height="7.71" rx="3.9" ry="3.9" style="fill:#7dacba"/><rect x="353.1" y="103.9" width="16.6" height="7.71" rx="3.9" ry="3.9" style="fill:#7dacba"/><rect x="373.1" y="103.9" width="16.6" height="7.71" rx="3.9" ry="3.9" style="fill:#7dacba"/><rect x="190.4" y="95" width="16.6" height="7.71" rx="3.9" ry="3.9" style="fill:#7dacba"/><rect x="210.7" y="95" width="16.6" height="7.71" rx="3.9" ry="3.9" style="fill:#7dacba"/><rect x="231.1" y="95" width="16.6" height="7.71" rx="3.9" ry="3.9" style="fill:#b93a59"/><rect x="251.5" y="95" width="16.6" height="7.71" rx="3.9" ry="3.9" style="fill:#7dacba"/><rect x="292.1" y="95" width="16.6" height="7.71" rx="3.9" ry="3.9" style="fill:#7dacba"/><rect x="311" y="95" width="16.6" height="7.71" rx="3.9" ry="3.9" style="fill:#7dacba"/><rect x="332.3" y="95" width="16.6" height="7.71" rx="3.9" ry="3.9" style="fill:#7dacba"/><rect x="353.1" y="95" width="16.6" height="7.71" rx="3.9" ry="3.9" style="fill:#7dacba"/><rect x="373.1" y="95" width="16.6" height="7.71" rx="3.9" ry="3.9" style="fill:#7dacba"/><rect x="190.4" y="86.6" width="16.6" height="7.71" rx="3.9" ry="3.9" style="fill:#7dacba"/><rect x="210.7" y="86.6" width="16.6" height="7.71" rx="3.9" ry="3.9" style="fill:#b93a59"/><rect x="251.5" y="86.6" width="16.6" height="7.71" rx="3.9" ry="3.9" style="fill:#7dacba"/><rect x="292.1" y="86.6" width="16.6" height="7.71" rx="3.9" ry="3.9" style="fill:#7dacba"/><rect x="311" y="86.6" width="16.6" height="7.71" rx="3.9" ry="3.9" style="fill:#7dacba"/><rect x="332.3" y="86.6" width="16.6" height="7.71" rx="3.9" ry="3.9" style="fill:#b93a59"/><rect x="353.1" y="86.6" width="16.6" height="7.71" rx="3.9" ry="3.9" style="fill:#7dacba"/><rect x="373.1" y="86.6" width="16.6" height="7.71" rx="3.9" ry="3.9" style="fill:#7dacba"/><rect x="190.4" y="78.2" width="16.6" height="7.71" rx="3.9" ry="3.9" style="fill:#7dacba"/><rect x="251.5" y="78.2" width="16.6" height="7.71" rx="3.9" ry="3.9" style="fill:#7dacba"/><rect x="292.1" y="78.2" width="16.6" height="7.71" rx="3.9" ry="3.9" style="fill:#b93a59"/><rect x="311" y="78.2" width="16.6" height="7.71" rx="3.9" ry="3.9" style="fill:#7dacba"/><rect x="353.1" y="78.2" width="16.6" height="7.71" rx="3.9" ry="3.9" style="fill:#b93a59"/><rect x="373.1" y="78.2" width="16.6" height="7.71" rx="3.9" ry="3.9" style="fill:#7dacba"/><rect x="190.4" y="69.4" width="16.6" height="7.71" rx="3.9" ry="3.9" style="fill:#b93a59"/><rect x="251.5" y="69.4" width="16.6" height="7.71" rx="3.9" ry="3.9" style="fill:#b93a59"/><rect x="311" y="69.4" width="16.6" height="7.71" rx="3.9" ry="3.9" style="fill:#7dacba"/><rect x="373.1" y="69.4" width="16.6" height="7.71" rx="3.9" ry="3.9" style="fill:#b93a59"/><rect x="311" y="60.5" width="16.6" height="7.71" rx="3.9" ry="3.9" style="fill:#b93a59"/><rect x="477.6" y="208.3" width="18.6" height="9.95" rx="5" ry="5" style="fill:#716977"/><rect x="554.5" y="208.3" width="18.6" height="9.95" rx="5" ry="5" style="fill:#716977"/><rect x="470.3" y="44.2" width="109.7" height="170.16" rx="12" ry="12" style="fill:#7dacba"/><circle cx="481.2" cy="54.8" r="3.6" style="fill:#716977"/><circle cx="569.4" cy="54.8" r="3.6" style="fill:#716977"/><circle cx="481.2" cy="203.2" r="3.6" style="fill:#716977"/><circle cx="569.4" cy="203.2" r="3.6" style="fill:#716977"/><circle cx="525.2" cy="88.4" r="19.6" style="fill:#716977"/><circle cx="525.5" cy="88.4" r="15.2" style="fill:#f8b32f"/><circle cx="525.5" cy="162.4" r="38.3" style="fill:#716977"/><circle cx="525.2" cy="88.4" r="7.2" style="fill:#716977"/><circle cx="525.2" cy="163.3" r="26.7" style="fill:#f8b32f"/><circle cx="525.2" cy="163.3" r="14.2" style="fill:#716977"/></svg>