<svg id="H1aSdfjAG" xmlns="http://www.w3.org/2000/svg" viewBox="0 0 485 475"><style>@-webkit-keyframes HyCuaBOfjRG_SJAnOziAz_Animation{0%,44%,to{-webkit-transform:scale(0,0);transform:scale(0,0)}48.33%{-webkit-transform:scale(2,2);transform:scale(2,2)}49.67%,90%{-webkit-transform:scale(1,1);transform:scale(1,1)}}@keyframes HyCuaBOfjRG_SJAnOziAz_Animation{0%,44%,to{-webkit-transform:scale(0,0);transform:scale(0,0)}48.33%{-webkit-transform:scale(2,2);transform:scale(2,2)}49.67%,90%{-webkit-transform:scale(1,1);transform:scale(1,1)}}@-webkit-keyframes SJouaBOGi0G_BJ4aOGsCM_Animation{0%,40%,to{-webkit-transform:scale(0,0);transform:scale(0,0)}43.67%{-webkit-transform:scale(2,2);transform:scale(2,2)}45.67%,90%{-webkit-transform:scale(1,1);transform:scale(1,1)}}@keyframes SJouaBOGi0G_BJ4aOGsCM_Animation{0%,40%,to{-webkit-transform:scale(0,0);transform:scale(0,0)}43.67%{-webkit-transform:scale(2,2);transform:scale(2,2)}45.67%,90%{-webkit-transform:scale(1,1);transform:scale(1,1)}}@-webkit-keyframes BJmF6ruzjCz_SkGFdMj0G_Animation{0%,to{-webkit-transform:rotate(0deg);transform:rotate(0deg)}30%,90%{-webkit-transform:rotate(120deg);transform:rotate(120deg)}}@keyframes BJmF6ruzjCz_SkGFdMj0G_Animation{0%,to{-webkit-transform:rotate(0deg);transform:rotate(0deg)}30%,90%{-webkit-transform:rotate(120deg);transform:rotate(120deg)}}#H1aSdfjAG *{-webkit-animation-duration:10s;animation-duration:10s;-webkit-animation-iteration-count:infinite;animation-iteration-count:infinite;-webkit-animation-timing-function:cubic-bezier(0,0,1,1);animation-timing-function:cubic-bezier(0,0,1,1)}#BJ5TBdzj0z,#BJXar_fo0M,#Bk-pSOMj0z,#ByhTBuMsRz,#H1zaBufoCz,#HkVardzjAz,#HyraHuzoAG,#HysaBdGs0G,#S1aTBOGsCz,#SyIpB_fiRG,#Sye6BdzsCG,#rJYaBdMsCG,#rkwpruzj0G,#ryO6HOGoCf{fill:#00ab9c}#HyA6rdziAf{fill:#ededed}#HkkeprOzi0z{fill:#fcfcfc}#H1xlTSuzi0f{fill:#ededed}#HkWgTBOMjCM{fill:#fcfcfc}#ryGxTBuMjCG{fill:#ededed}#SkmgpSdfjRf{fill:#fcfcfc}#S1NepSdzoCf{fill:#ededed}#HyBxaHufsAf{fill:#fcfcfc}#SyUxpB_fj0M{fill:#ededed}#ByDgTr_GoCf{fill:#fcfcfc}#ryulTHOzsCM{fill:#ededed}#B1KgTBdGjCM{fill:#fcfcfc}#Sy9x6rdziAM{fill:#ededed}#HJseTSuMsRz{fill:#fcfcfc}#B13xpH_MsCf{fill:#ededed}#ryTx6H_fsRG{fill:#fcfcfc}#S10lpSufj0M{fill:#ededed}#HyJWardGoCz{fill:#fcfcfc}#BkxbTSufiRf{fill:#ededed}#HyWbTHdGsCz{fill:#fcfcfc}#H1zZprdMoCG{fill:#ededed}#BymbpB_GsRM{fill:#fcfcfc}#Sk4-ardMi0f{fill:#ededed}#S1HbpSuMjRf{fill:#fcfcfc}#SJU-THOzoAG{fill:#ededed}#B1YZ6rufiCM,#B1pWTr_zsRz,#BJ_-pHufsAM,#By2WTBdfiCf,#S1oWpHuMiCM,#r15-pBdMoRz,#r1PW6r_zoCf{fill:#fcfcfc}#B1Wz6BOGi0f,#HJxz6rOGi0G,#SJRWpBOGoCz,#SyJfaSOMiAM,#SyMfaS_GjAG{fill:#ededed}#BJmz6r_GoAM{fill:#00ab9c}#BkNzTSOzjAG{fill:#ededed}#Syrf6BdfiAM{fill:#00ab9c}#B19LTrdGo0G,#B1D_ardfsRz,#B1USpB_fiCG,#B1cXTSOfs0z,#B1nvpB_MsAf,#B1yEaHuzjRz,#BJ47TH_MiCf,#BJCP6S_fsAz,#BJQ7ar_Mi0f,#BJR4TS_GoCf,#BJ_S6HdzjRz,#BJpvaBOziRz,#BkKNpBdMs0f,#BkNPpHuzsAz,#BkSw6BuGoAf,#BkXN6SuMjAG,#Bkjm6H_foRM,#BkjwTrdziCf,#ByIwaBdMoRG,#BybI6BOGjAM,#H12I6HdMjAG,#H1OvarOfoRf,#H1XHaHuzi0M,#HJCXTS_zoAM,#HJHITSdMjCf,#HJPH6ruGjCM,#HJgX6Bufj0z,#HJuOprdzjAM,#Hk0M6SdzjRG,#Hk2rardziRM,#Hk5P6SOfoAG,#HkLVTHOfj0G,#HkOXpSdfoCf,#HkPfprdfoRf,#HktL6rOMsRf,#HkxHpBOfo0f,#Hy-QprdMjCG,#HyQLpHufi0f,#HyWBTrdzsAz,#HyYrTHuMiRM,#HyZupSdfiAf,#HydL6HOMjAG,#HykBprOfiCz,#HykOTHuMsRG,#HynzTHdMjRf,#HyoSpS_Go0M,#Hyr76SOfiAM,#HyvmaSuzoRM,#S14SpBdzj0M,#S18L6r_MiAf,#S1GwpBOfoAf,#S1WE6H_zoRz,#S1f46rOzjCG,#S1zuaHuzjRz,#SJQdTrOMoRG,#SJaIaSdMsCG,#SJqHpSOfjAf,#SJtz6ruGj0M,#Sk5fprOGi0G,#SkKQpSuGsAf,#SkMLpHOfiCG,#SkSdpHOMi0G,#SknmTSufjCG,#Sku46SOzjAf,#Sy2EpH_GiRf,#Sy8_TSOfi0z,#SyJXardzjRf,#SyPUaBOMoAf,#SyTBTruMjAG,#SyXD6SuGsRf,#SyaQpBufjRf,#SyfB6S_MiAf,#SygNaSdGoRM,#r11LprdMjAf,#r1wPpSOziRM,#rJAB6BufsCG,#rJHSTHdMsAz,#rJLQpH_foCz,#rJSVaHOzi0f,#rJV4ardzoCz,#rJiLpHdMiAM,#rJjf6SOGj0M,#rJpEpSuzjAG,#rJxPaH_fiCG,#rk0U6H_Go0M,#rk6G6BuziRG,#rkELaS_fj0G,#rkG76rOGjCG,#rkKv6ruMoRG,#rkVOaSufjAG,#rkWvaHdzoAf,#rkeuarOMo0M,#rkg86HufiRz,#rkjVaBuMjRG,#rkufTS_fjCf,#ry1vTrdMjRM,#ry8fprufjAz,#rycN6r_Gs0M,#ryvEpBOGs0z{fill:#ededed}#rkYuTBuzsRM{fill:#871d22}#HJqdTr_fi0M{fill:#ffc000}#Bk2O6SuGjAf{fill:#871d22}#rJTOpSOMiCM{fill:#ffc000}#SJJYaH_Ms0f{fill:#871d22}#r1gKTS_GjCz{fill:#ffc000}#H1ZtTrdMiRf{fill:#871d22}#BJfFpBdfiAf{fill:#ffc000}#BJmF6ruzjCz{fill:#ddd}#BJmF6ruzjCz_SkGFdMj0G,#HyCuaBOfjRG_SJAnOziAz,#SJouaBOGi0G_BJ4aOGsCM{-webkit-transform-origin:50% 50%;transform-origin:50% 50%;transform-box:fill-box}#BJmF6ruzjCz_SkGFdMj0G{-webkit-transform:rotate(0deg);transform:rotate(0deg);-webkit-animation-timing-function:cubic-bezier(.42,0,.58,1);animation-timing-function:cubic-bezier(.42,0,.58,1);-webkit-animation-name:BJmF6ruzjCz_SkGFdMj0G_Animation;animation-name:BJmF6ruzjCz_SkGFdMj0G_Animation}#HyCuaBOfjRG_SJAnOziAz,#SJouaBOGi0G_BJ4aOGsCM{-webkit-transform:scale(0,0);transform:scale(0,0)}#SJouaBOGi0G_BJ4aOGsCM{-webkit-animation-name:SJouaBOGi0G_BJ4aOGsCM_Animation;animation-name:SJouaBOGi0G_BJ4aOGsCM_Animation}#HyCuaBOfjRG_SJAnOziAz{-webkit-animation-name:HyCuaBOfjRG_SJAnOziAz_Animation;animation-name:HyCuaBOfjRG_SJAnOziAz_Animation}</style><path id="Sye6BdzsCG" d="M217.5 130.4l-16.5 2.4V97.7l16.5-4.1z"/><path id="Bk-pSOMj0z" d="M163.7 177.5l-18.6 1.6v-34.5l18.7-4.2z"/><path id="H1zaBufoCz" d="M281.6 167.5l-27.5 1.5v-40.2l27.4-4.6z"/><path id="BJXar_fo0M" d="M217.7 214.8l-22 1-.1-38.7 21.8-2.2z"/><path id="HkVardzjAz" d="M188.9 256.8l-19.4-.9-.2-37.4L189 216z"/><path id="HyraHuzoAG" d="M247.7 257l-24.2.6v-41.2l24.2-.6z"/><path id="SyIpB_fiRG" d="M317.9 260.4l-24.9-.7v-45h25.3z"/><path id="rkwpruzj0G" d="M217.1 297.9l-21.4-2.4V257l21.7.6z"/><path id="ryO6HOGoCf" d="M139.4 255.4L128 255l.2-37.2 11.3-.2z"/><path id="rJYaBdMsCG" d="M163.7 332.2l-18.3-3.5v-34.8l17.9 1.7z"/><path id="BJ5TBdzj0z" d="M281.5 348.3l-27.1-4.1v-39.9l27.1 2.1z"/><path id="HysaBdGs0G" d="M217.5 378.8l-16.6-4v-35l16.5 2.5z"/><path id="ByhTBuMsRz" d="M316.7 392.8l-11.7-3 .2-34.9 11.8 1.8z"/><path id="S1aTBOGsCz" d="M319.2 115.7l-13.4 2-.6-35.3 14.4-3.8z"/><path id="HyA6rdziAf" d="M116.3 109l203.4-41.1"/><path id="HkkeprOzi0z" d="M116.4 109.3l203.3-41.2-.1-.5-203.3 41.2"/><path id="H1xlTSuzi0f" d="M352.1 75.6l-32.4-7.7"/><path id="HkWgTBOMjCM" d="M352.1 75.3l-32.4-7.7-.1.5 32.4 7.7"/><path id="ryGxTBuMjCG" d="M352.1 395.8V75.6"/><path id="SkmgpSdfjRf" d="M352.3 395.8V75.6h-.5v320.2"/><path id="S1NepSdzoCf" d="M316.6 404l35.5-8.2"/><path id="HyBxaHufsAf" d="M316.6 404.3l35.5-8.3-.1-.5-35.5 8.3"/><path id="SyUxpB_fj0M" d="M319.7 67.9L316.6 404"/><path id="ByDgTr_GoCf" d="M319.4 67.9L316.3 404h.5l3.1-336.1"/><path id="ryulTHOzsCM" d="M316.5 404.2l-199.2-41.6"/><path id="B1KgTBdGjCM" d="M316.6 403.9l-199.3-41.6-.1.5 199.3 41.6"/><path id="Sy9x6rdziAM" d="M116.3 109l1 253.8"/><path id="HJseTSuMsRz" d="M116.1 109l1 253.8h.5l-1-253.8"/><path id="B13xpH_MsCf" d="M117.3 327.7l199.7 29"/><path id="ryTx6H_fsRG" d="M117.3 328L317 356.9v-.5l-199.6-28.9"/><path id="S10lpSufj0M" d="M116.8 291.3l200.6 18.4"/><path id="HyJWardGoCz" d="M116.8 291.5L317.4 310l.1-.5L116.8 291"/><path id="BkxbTSufiRf" d="M317.9 260.4l-201-5.7"/><path id="HyWbTHdGsCz" d="M317.9 260.1l-201-5.6v.5l201 5.7"/><path id="H1zZprdMoCG" d="M116.8 218.2l201.5-6.2"/><path id="BymbpB_GsRM" d="M116.8 218.4l201.5-6.1v-.6l-201.6 6.2"/><path id="Sk4-ardMi0f" d="M318.8 164.1l-202.2 17.5"/><path id="S1HbpSuMjRf" d="M318.7 163.9l-202.1 17.5v.5l202.2-17.5"/><path id="SJU-THOzoAG" d="M116.5 145.1l202.7-29.4"/><path id="r1PW6r_zoCf" d="M116.5 145.3L319.2 116v-.5l-202.8 29.3"/><path id="BJ_-pHufsAM" d="M140 104.2l-1.6 263h.6l1.5-263"/><path id="B1YZ6rufiCM" d="M163.6 99.4l-.4 273h.6l.3-273"/><path id="r15-pBdMoRz" d="M188.9 94.3l-.4 283.3h.5l.4-283.3"/><path id="S1oWpHuMiCM" d="M217.1 88.4v295h.5v-295"/><path id="By2WTBdfiCf" d="M247.5 82.4v307.4h.5V82.4"/><path id="B1pWTr_zsRz" d="M281.3 75.6l.1 321.2h.5l-.1-321.2"/><path id="SJRWpBOGoCz" d="M140.2 104.4l23.4 4.8.1-.4-23.4-4.8"/><path id="SyJfaSOMiAM" d="M163.8 99.6l17.1 4 .1-.4-17.1-4"/><path id="HJxz6rOGi0G" d="M181.1 135.7v-32.3h-.4v32.3"/><path id="B1Wz6BOGi0f" d="M189.1 99.9l-8.3 3.3.2.4 8.2-3.4"/><path id="SyMfaS_GjAG" d="M189.1 94.5l11.8 3.4.1-.4-11.8-3.4"/><path id="BJmz6r_GoAM" d="M201 132.8V97.7"/><path id="BkNzTSOzjAG" d="M201.2 132.8V97.7h-.4v35.1"/><path id="Syrf6BdfiAM" d="M217.5 93.6L201 97.7"/><path id="ry8fprufjAz" d="M217.4 93.4l-16.5 4.1.1.4 16.5-4.1"/><path id="HkPfprdfoRf" d="M217.8 88.7l18.4 4.3.1-.4-18.4-4.2"/><path id="rkufTS_fjCf" d="M247.6 88.3l-11.4 4.3.1.4 11.5-4.4"/><path id="SJtz6ruGj0M" d="M236.4 127.7V92.8h-.3v34.9"/><path id="Sk5fprOGi0G" d="M247.7 82.6l33.8 6 .1-.3-33.9-6.1"/><path id="rJjf6SOGj0M" d="M281.5 75.8l23.7 6.8.1-.4-23.7-6.8"/><path id="HynzTHdMjRf" d="M319.5 78.4l-14.3 3.8.1.4 14.3-3.8"/><path id="rk6G6BuziRG" d="M306 117.7l-.6-35.3h-.4l.6 35.3"/><path id="Hk0M6SdzjRG" d="M139.9 141.8l5.1 2.9.2-.3-5.1-2.9"/><path id="SyJXardzjRf" d="M163.7 140.3l-18.6 4.1.1.3 18.6-4.1"/><path id="HJgX6Bufj0z" d="M145.3 179.1v-34.5h-.4v34.5"/><path id="Hy-QprdMjCG" d="M163.6 138.4l25.3 4.3.1-.4-25.3-4.2"/><path id="rkG76rOGjCG" d="M189 134.8l23.3 4.3.1-.4-23.3-4.3"/><path id="BJQ7ar_Mi0f" d="M212.8 172.9v-34h-.4v34"/><path id="BJ47TH_MiCf" d="M217.4 136.6l-5.2 2.1.2.4 5.1-2.2"/><path id="Hyr76SOfiAM" d="M247.7 134.8l-30.2-4.6-.1.4 30.3 4.6"/><path id="rJLQpH_foCz" d="M247.6 126.3l6.3 2.5.2-.4-6.3-2.5"/><path id="HyvmaSuzoRM" d="M254.3 169.7v-41.1h-.4v41.1"/><path id="HkOXpSdfoCf" d="M281.5 124l-27.5 4.4v.4l27.6-4.4"/><path id="SkKQpSuGsAf" d="M281.5 121.4l37.6 6.1v-.4l-37.5-6.1"/><path id="B1cXTSOfs0z" d="M116.6 181.8l17.7 2.8.1-.4-17.8-2.8"/><path id="Bkjm6H_foRM" d="M134.2 217.6l.3-33.2h-.4l-.3 33.2"/><path id="SknmTSufjCG" d="M139.7 182.8l-5.4 1.4.1.4 5.4-1.4"/><path id="SyaQpBufjRf" d="M139.5 179.8l24.1 3.4.1-.4-24.2-3.4"/><path id="HJCXTS_zoAM" d="M163.6 177.7l11.2 2.2.1-.4-11.2-2.1"/><path id="B1yEaHuzjRz" d="M175.3 216.4v-36.7h-.4v36.7"/><path id="SygNaSdGoRM" d="M189 177.8l-13.9 1.7v.4l13.9-1.7"/><path id="S1WE6H_zoRz" d="M188.9 175.5l6.5 1.7.1-.4-6.5-1.6"/><path id="S1f46rOzjCG" d="M217.4 174.7l-22 2.1.1.4 21.9-2.1"/><path id="BkXN6SuMjAG" d="M195.9 215.8V177h-.4v38.8"/><path id="rJV4ardzoCz" d="M217.4 173.1l12.3 2v-.4l-12.3-2"/><path id="rJSVaHOzi0f" d="M247.7 172.7l-18 2v.4l18-2"/><path id="HkLVTHOfj0G" d="M230 214.7v-39.8h-.4v39.8"/><path id="ryvEpBOGs0z" d="M247.7 170.5l29.1 3.6v-.4l-29.1-3.6"/><path id="Sku46SOzjAf" d="M281.5 172.7l-4.7 1v.4l4.8-1"/><path id="BkKNpBdMs0f" d="M277 213.3v-39.4h-.4v39.4"/><path id="rycN6r_Gs0M" d="M281.6 167.7l17.3 2.9.1-.4-17.3-2.9"/><path id="rkjVaBuMjRG" d="M318.7 167.5l-19.8 2.7.1.4 19.8-2.7"/><path id="Sy2EpH_GiRf" d="M299.8 212.6v-42.2h-.4v42.2"/><path id="rJpEpSuzjAG" d="M281.5 213.3l11.5 1.6v-.4l-11.4-1.6"/><path id="BJR4TS_GoCf" d="M318.3 214.5H293v.4h25.3"/><path id="HykBprOfiCz" d="M293.2 259.7v-45h-.4v45"/><path id="HkxHpBOfo0f" d="M247.7 214.4l29.3 2.2.1-.4-29.4-2.2"/><path id="HyWBTrdzsAz" d="M281.4 213l-4.5 3.2.3.3 4.4-3.2"/><path id="SyfB6S_MiAf" d="M277.2 259.3v-42.9h-.3v42.9"/><path id="H1XHaHuzi0M" d="M217.6 214.9l5.9 1.7.1-.4-5.9-1.6"/><path id="S14SpBdzj0M" d="M223.7 257.6v-41.2h-.4v41.2"/><path id="rJHSTHdMsAz" d="M247.7 215.6l-24.2.6v.4l24.2-.7"/><path id="B1USpB_fiCG" d="M163.6 216.9l5.6 1.8.1-.4-5.6-1.8"/><path id="HJPH6ruGjCM" d="M169.5 256.2v-37.7h-.4v37.7"/><path id="BJ_S6HdzjRz" d="M188.9 215.6l-19.7 2.7.1.4 19.7-2.8"/><path id="HyYrTHuMiRM" d="M128.2 255l.1-37.2h-.3l-.2 37.2"/><path id="SJqHpSOfjAf" d="M116.9 291.5l17.3-2.4v-.3l-17.4 2.3"/><path id="HyoSpS_Go0M" d="M139.2 289l-5-.2v.4l5 .2"/><path id="Hk2rardziRM" d="M134 255.2V289h.4v-33.8"/><path id="SyTBTruMjAG" d="M139.2 293.5l24.4-3.2v-.4l-24.5 3.2"/><path id="rJAB6BufsCG" d="M163.7 295.8l11.5-2.4-.1-.4-11.5 2.4"/><path id="r11LprdMjAf" d="M174.9 256.4v36.8h.4v-36.8"/><path id="rkg86HufiRz" d="M189 294.2l-13.9-1.2v.4l13.8 1.2"/><path id="BybI6BOGjAM" d="M188.9 298.1l6.9-2.4-.2-.4-6.8 2.4"/><path id="SkMLpHOfiCG" d="M195.5 257v38.5h.4V257"/><path id="HyQLpHufi0f" d="M217.5 297.8l-21.8-2.5v.4l21.7 2.5"/><path id="rkELaS_fj0G" d="M230 297.3v-39.4h-.4v39.4"/><path id="HJHITSdMjCf" d="M217.5 300.7l12.4-3.2-.1-.4-12.4 3.3"/><path id="S18L6r_MiAf" d="M247.7 298.7l-17.9-1.6v.4l17.9 1.6"/><path id="SyPUaBOMoAf" d="M247.7 303.5l30.5-5.2v-.4l-30.5 5.2"/><path id="HydL6HOMjAG" d="M278.1 259.3l-.1 38.8h.4l.1-38.8"/><path id="HktL6rOMsRf" d="M281.6 299.3l-3.3-1.4-.2.4 3.4 1.4"/><path id="B19LTrdGo0G" d="M281.6 306.6l18-4.3-.1-.4-18 4.4"/><path id="rJiLpHdMiAM" d="M299.4 259.9v42.2h.4v-42.2"/><path id="H12I6HdMjAG" d="M317.5 303.4l-17.9-1.5-.1.4 18 1.5"/><path id="SJaIaSdMsCG" d="M281.6 351.7l35.6-7.9-.1-.3-35.6 7.9"/><path id="rk0U6H_Go0M" d="M247.8 346.9l6.4-2.6-.1-.3-6.5 2.5"/><path id="ry1vTrdMjRM" d="M254.2 303.9v40.3h.4v-40.3"/><path id="rJxPaH_fiCG" d="M281.6 348.1l-27.2-4.1v.4l27.1 4.1"/><path id="rkWvaHdzoAf" d="M217.4 342.5l30.4-6.5-.1-.4-30.3 6.5"/><path id="S1GwpBOfoAf" d="M188.8 338.4l24.3-4.7v-.4l-24.3 4.7"/><path id="SyXD6SuGsRf" d="M212.8 300.1l.1 33.4h.4l-.1-33.4"/><path id="BkNPpHuzsAz" d="M217.5 335l-4.3-1.7-.2.4 4.4 1.6"/><path id="BkSw6BuGoAf" d="M163.6 334.7l25.4-4.8-.1-.3-25.4 4.8"/><path id="ByIwaBdMoRG" d="M139 331.2l6.5-2.3-.2-.4-6.4 2.3"/><path id="r1wPpSOziRM" d="M145.2 293.9v34.8h.4v-34.8"/><path id="H1OvarOfoRf" d="M163.7 332l-18.3-3.5v.4l18.2 3.4"/><path id="rkKv6ruMoRG" d="M117.4 327.9l21.6-4.4-.1-.4-21.6 4.4"/><path id="Hk5P6SOfoAG" d="M117.3 362.8l21.5-3.8-.1-.4-21.5 3.8"/><path id="BkjwTrdziCf" d="M138.7 367.4l24.9-4.6-.1-.4-24.8 4.7"/><path id="B1nvpB_MsAf" d="M163.5 372.6l17.6-3.8-.1-.4-17.5 3.8"/><path id="BJpvaBOziRz" d="M180.9 337.1v31.5h.3v-31.5"/><path id="BJCP6S_fsAz" d="M189 370.3l-7.9-1.9-.1.4 7.9 1.9"/><path id="HykOTHuMsRG" d="M188.8 377.8L201 375l-.1-.4-12.2 2.8"/><path id="rkeuarOMo0M" d="M200.7 339.8v35h.4v-35"/><path id="HyZupSdfiAf" d="M217.5 378.6l-16.5-4-.1.4 16.5 4"/><path id="S1zuaHuzjRz" d="M217.4 383.6l18.4-4.1-.1-.4-18.4 4.1"/><path id="SJQdTrOMoRG" d="M234.9 344.9v34.4h.3v-34.4"/><path id="rkVOaSufjAG" d="M247.8 382.5l-12-3.4-.1.4 12 3.3"/><path id="SkSdpHOMi0G" d="M247.8 389.4l33.8-7.9-.1-.3-33.8 7.8"/><path id="Sy8_TSOfi0z" d="M281.7 397l23.3-7-.1-.3-23.3 6.9"/><path id="B1D_ardfsRz" d="M305 354.9l-.2 34.9h.4l.1-34.9"/><path id="HJuOprdzjAM" d="M316.7 392.6l-11.7-2.9-.1.3 11.7 3"/><circle cx="165.1" cy="295.3" r="5.2" id="rkYuTBuzsRM"/><path d="M170.4 295.3h-.5c0 1.3-.5 2.5-1.4 3.3-.9.9-2 1.4-3.3 1.4-1.3 0-2.5-.5-3.3-1.4-.9-.9-1.4-2-1.4-3.3 0-1.3.5-2.5 1.4-3.3.9-.9 2-1.4 3.3-1.4 1.3 0 2.5.5 3.3 1.4.9.9 1.4 2 1.4 3.3h1c0-3.2-2.6-5.7-5.7-5.7-3.2 0-5.7 2.6-5.7 5.7 0 3.2 2.6 5.7 5.7 5.7 3.2 0 5.7-2.6 5.7-5.7h-.5z" id="HJqdTr_fi0M"/><g id="SJouaBOGi0G_BJ4aOGsCM" data-animator-group="true" data-animator-type="2"><g id="SJouaBOGi0G"><circle cx="116.3" cy="110.3" r="5.2" id="Bk2O6SuGjAf"/><path d="M121.5 110.3h-.5c0 1.3-.5 2.5-1.4 3.3-.9.9-2 1.4-3.3 1.4-1.3 0-2.5-.5-3.3-1.4-.9-.9-1.4-2-1.4-3.3 0-1.3.5-2.5 1.4-3.3.9-.9 2-1.4 3.3-1.4 1.3 0 2.5.5 3.3 1.4.9.9 1.4 2 1.4 3.3h1c0-3.2-2.6-5.7-5.7-5.7-3.2 0-5.7 2.6-5.7 5.7 0 3.2 2.6 5.7 5.7 5.7 3.2 0 5.7-2.6 5.7-5.7h-.5z" id="rJTOpSOMiCM"/></g></g><g id="HyCuaBOfjRG_SJAnOziAz" data-animator-group="true" data-animator-type="2"><g id="HyCuaBOfjRG"><circle cx="318.3" cy="259.7" r="5.2" id="SJJYaH_Ms0f"/><path d="M323.5 259.7h-.5c0 1.3-.5 2.5-1.4 3.3-.9.9-2 1.4-3.3 1.4-1.3 0-2.5-.5-3.3-1.4-.9-.9-1.4-2-1.4-3.3 0-1.3.5-2.5 1.4-3.3.9-.9 2-1.4 3.3-1.4 1.3 0 2.5.5 3.3 1.4.9.9 1.4 2 1.4 3.3h1c0-3.2-2.6-5.7-5.7-5.7-3.2 0-5.7 2.6-5.7 5.7 0 3.2 2.6 5.7 5.7 5.7 3.2 0 5.7-2.6 5.7-5.7h-.5z" id="r1gKTS_GjCz"/></g></g><path d="M253.4 127.7c0 2.9-2.3 5.2-5.2 5.2-2.9 0-5.2-2.3-5.2-5.2 0-2.9 2.3-5.2 5.2-5.2 2.9 0 5.2 2.3 5.2 5.2z" id="H1ZtTrdMiRf"/><path d="M253.4 127.7h-.5c0 1.3-.5 2.5-1.4 3.3-.9.9-2 1.4-3.3 1.4-1.3 0-2.5-.5-3.3-1.4-.9-.9-1.4-2-1.4-3.3 0-1.3.5-2.5 1.4-3.3.9-.9 2-1.4 3.3-1.4 1.3 0 2.5.5 3.3 1.4.9.9 1.4 2 1.4 3.3h1c0-3.2-2.6-5.7-5.7-5.7-3.2 0-5.7 2.6-5.7 5.7 0 3.2 2.6 5.7 5.7 5.7 3.2 0 5.7-2.6 5.7-5.7h-.5z" id="BJfFpBdfiAf"/><g id="BJmF6ruzjCz_SkGFdMj0G" data-animator-group="true" data-animator-type="1"><path d="M455.1 234.1v.5c0 2.9-.1 5.8-.2 8.7 0 .1.1.3.2.3s.3-.1.3-.2c.1-2.9.2-5.8.2-8.8v-.5c0-.1-.1-.3-.3-.3 0 0-.2.2-.2.3zm-.7-17.5c.2 2.9.4 5.8.5 8.7 0 .1.1.3.3.2.1 0 .3-.1.2-.3-.1-2.9-.3-5.9-.5-8.8 0-.1-.1-.2-.3-.2-.1.2-.2.3-.2.4zm-2.1-17.3c.5 2.9.9 5.8 1.2 8.7 0 .1.1.2.3.2.1 0 .2-.1.2-.3l-1.2-8.7c0-.1-.2-.2-.3-.2-.1 0-.2.1-.2.3zm-3.5-17.2c.7 2.8 1.3 5.7 1.9 8.5 0 .1.2.2.3.2.1 0 .2-.2.2-.3-.6-2.9-1.2-5.7-1.9-8.6 0-.1-.2-.2-.3-.2-.2.1-.3.3-.2.4zm-4.9-16.8c.9 2.8 1.8 5.5 2.6 8.4 0 .1.2.2.3.2.1 0 .2-.2.2-.3-.8-2.8-1.7-5.6-2.6-8.4 0-.1-.2-.2-.3-.2-.2 0-.3.2-.2.3zm-6.3-16.3l3.3 8.1c.1.1.2.2.3.1.1-.1.2-.2.1-.3-1-2.7-2.1-5.4-3.3-8.1-.1-.1-.2-.2-.3-.1-.1 0-.1.2-.1.3zm-7.5-15.8c1.4 2.6 2.7 5.2 3.9 7.8.1.1.2.2.3.1.1-.1.2-.2.1-.3l-3.9-7.8c-.1-.1-.2-.2-.3-.1-.1 0-.1.2-.1.3zm-8.8-15.1c1.6 2.5 3.1 4.9 4.5 7.5.1.1.2.2.4.1.1-.1.2-.2.1-.4-1.5-2.5-3-5-4.6-7.5-.1-.1-.2-.2-.4-.1v.4zm-9.9-14.3c1.8 2.3 3.5 4.7 5.1 7.1.1.1.2.1.4.1.1-.1.1-.2.1-.4-1.7-2.4-3.4-4.8-5.1-7.1-.1-.1-.2-.1-.4-.1-.2.1-.2.2-.1.4zm-11.1-13.6c1.9 2.2 3.8 4.4 5.7 6.7.1.1.3.1.4 0 .1-.1.1-.3 0-.4-1.9-2.3-3.8-4.5-5.7-6.7-.1-.1-.3-.1-.4 0-.1.2-.1.3 0 .4zm-12.2-12.6c2.1 2 4.2 4.1 6.2 6.2.1.1.3.1.4 0 .1-.1.1-.3 0-.4-2-2.1-4.1-4.2-6.2-6.2-.1-.1-.3-.1-.4 0-.1.2-.1.3 0 .4zM375 66c2.3 1.8 4.5 3.7 6.7 5.7.1.1.3.1.4 0 .1-.1.1-.3 0-.4-2.2-1.9-4.4-3.8-6.7-5.7-.1-.1-.3-.1-.4 0-.1.2-.1.3 0 .4zm-14-10.5c2.4 1.7 4.8 3.4 7.1 5.1.1.1.3.1.4-.1.1-.1.1-.3-.1-.4-2.3-1.8-4.7-3.5-7.1-5.1-.1-.1-.3-.1-.4.1 0 .2 0 .3.1.4zm-14.8-9.3l7.5 4.5c.1.1.3 0 .4-.1.1-.1 0-.3-.1-.4-2.5-1.6-5-3.1-7.5-4.5-.1-.1-.3 0-.4.1 0 .1 0 .3.1.4zM330.7 38c2.6 1.3 5.3 2.6 7.8 3.9.1.1.3 0 .3-.1.1-.1 0-.3-.1-.3-2.6-1.4-5.2-2.7-7.9-3.9-.1-.1-.3 0-.3.1s.1.3.2.3zm-16.2-6.8c2.7 1 5.5 2.1 8.1 3.3.1.1.3 0 .3-.1.1-.1 0-.3-.1-.3-2.7-1.1-5.4-2.2-8.2-3.3-.1-.1-.3 0-.3.1s.1.2.2.3zm-16.6-5.5c2.8.8 5.6 1.7 8.4 2.6.1 0 .3 0 .3-.2 0-.1 0-.3-.2-.3-2.8-.9-5.6-1.8-8.4-2.6-.1 0-.3 0-.3.2 0 .1.1.2.2.3zm-17-4.2c2.9.6 5.7 1.2 8.5 1.9.1 0 .3-.1.3-.2s-.1-.3-.2-.3c-2.8-.7-5.7-1.3-8.6-1.9-.1 0-.3.1-.3.2.1.1.2.3.3.3zm-17.3-2.7c2.9.3 5.8.7 8.7 1.2.1 0 .3-.1.3-.2s-.1-.3-.2-.3c-2.9-.5-5.8-.9-8.7-1.2-.1 0-.3.1-.3.2s.1.2.2.3zm-17.4-1.4c2.9.1 5.8.3 8.7.5.1 0 .3-.1.3-.2s-.1-.3-.2-.3c-2.9-.2-5.8-.4-8.8-.5-.1 0-.3.1-.3.2 0 .2.1.3.3.3zm-17.5 0c2.9-.1 5.8-.2 8.7-.2.1 0 .3-.1.3-.3 0-.1-.1-.3-.3-.3-2.9 0-5.9.1-8.8.2-.1 0-.3.1-.2.3 0 .2.1.3.3.3zm-17.5 1.4c2.9-.4 5.8-.6 8.7-.9.1 0 .2-.1.2-.3 0-.1-.1-.2-.3-.2-2.9.2-5.8.5-8.7.9-.1 0-.2.1-.2.3.1.2.2.3.3.2zM194 21.7c2.8-.6 5.7-1.1 8.6-1.6.1 0 .2-.2.2-.3 0-.1-.2-.2-.3-.2-2.9.5-5.8 1-8.6 1.6-.1 0-.2.2-.2.3 0 .1.1.2.3.2zm-17 4.2c2.8-.8 5.6-1.6 8.5-2.3.1 0 .2-.2.2-.3 0-.1-.2-.2-.3-.2-2.8.7-5.7 1.5-8.5 2.3-.1 0-.2.2-.2.3 0 .1.2.2.3.2zm-16.6 5.5c2.7-1 5.5-2 8.2-3 .1 0 .2-.2.2-.3 0-.1-.2-.2-.3-.2-2.8.9-5.5 1.9-8.3 3-.1.1-.2.2-.1.3 0 .2.2.3.3.2zm-16 6.9c2.6-1.3 5.3-2.5 8-3.6.1-.1.2-.2.1-.3-.1-.1-.2-.2-.3-.1-2.7 1.2-5.3 2.4-8 3.6-.1.1-.2.2-.1.3 0 .1.1.2.3.1zm-15.5 8.1c2.5-1.5 5.1-2.9 7.6-4.2.1-.1.2-.2.1-.3-.1-.1-.2-.2-.3-.1-2.6 1.4-5.1 2.8-7.7 4.2-.1.1-.2.2-.1.4.1.1.3.1.4 0zm-14.7 9.4c2.4-1.7 4.8-3.3 7.3-4.8.1-.1.2-.2.1-.4-.1-.1-.2-.2-.4-.1-2.5 1.6-4.9 3.2-7.3 4.8-.1.1-.1.2-.1.4.1.2.2.2.4.1zm-14 10.5c2.3-1.8 4.5-3.6 6.9-5.4.1-.1.1-.2.1-.4-.1-.1-.2-.1-.4-.1l-6.9 5.4c-.1.1-.1.3 0 .4 0 .2.2.2.3.1zM87.1 78c2.1-2 4.2-4 6.4-5.9.1-.1.1-.3 0-.4-.1-.1-.3-.1-.4 0-2.2 1.9-4.3 3.9-6.4 6-.1.1-.1.3 0 .4.1 0 .3 0 .4-.1zM75 90.6c1.9-2.2 3.9-4.3 5.9-6.4.1-.1.1-.3 0-.4-.1-.1-.3-.1-.4 0-2 2.1-4 4.3-5.9 6.5-.1.1-.1.3 0 .4.1 0 .3 0 .4-.1zm-11.1 13.5l5.4-6.9c.1-.1.1-.3 0-.4-.1-.1-.3-.1-.4 0-1.8 2.3-3.7 4.6-5.4 6.9-.1.1-.1.3.1.4.1.2.2.2.3 0zM54 118.6c1.6-2.5 3.2-4.9 4.8-7.3.1-.1.1-.3-.1-.4-.1-.1-.3-.1-.4.1-1.7 2.4-3.3 4.8-4.8 7.3-.1.1 0 .3.1.4.1 0 .3 0 .4-.1zm-8.8 15.1c1.4-2.6 2.8-5.1 4.2-7.7.1-.1 0-.3-.1-.4-.1-.1-.3 0-.4.1-1.5 2.5-2.9 5.1-4.2 7.7-.1.1 0 .3.1.3.2.2.3.2.4 0zm-7.5 15.9c1.1-2.7 2.3-5.4 3.6-8 .1-.1 0-.3-.1-.3-.1-.1-.3 0-.3.1-1.3 2.6-2.5 5.3-3.6 8-.1.1 0 .3.1.3.1.1.2 0 .3-.1zM31.5 166c.9-2.8 1.9-5.5 2.9-8.3.1-.1 0-.3-.1-.3-.1-.1-.3 0-.3.1-1 2.7-2 5.5-2.9 8.3 0 .1 0 .3.2.3 0 .1.2 0 .2-.1zm-4.8 16.8c.7-2.8 1.4-5.7 2.2-8.5 0-.1 0-.3-.2-.3-.1 0-.3 0-.3.2-.8 2.8-1.6 5.6-2.3 8.5 0 .1.1.3.2.3.2 0 .3-.1.4-.2zM23.2 200c.5-2.9 1-5.8 1.6-8.6 0-.1-.1-.3-.2-.3s-.3.1-.3.2c-.6 2.9-1.1 5.7-1.6 8.6 0 .1.1.3.2.3s.3-.1.3-.2zm-2.1 17.3c.2-2.9.5-5.8.9-8.7 0-.1-.1-.3-.2-.3s-.3.1-.3.2l-.9 8.7c0 .1.1.3.2.3.2.1.3 0 .3-.2zm-.6 17.5v-.2c0-2.8.1-5.7.2-8.5 0-.1-.1-.3-.2-.3s-.3.1-.3.2c-.1 2.8-.2 5.7-.2 8.5v.2c0 .1.1.3.3.3 0 .1.2 0 .2-.2zm.7 17.5c-.2-2.9-.4-5.8-.5-8.7 0-.1-.1-.3-.3-.2-.1 0-.3.1-.2.3.1 2.9.3 5.9.5 8.8 0 .1.1.2.3.2.1-.1.2-.2.2-.4zm2.1 17.4c-.5-2.9-.9-5.8-1.2-8.7 0-.1-.1-.2-.3-.2-.1 0-.2.1-.2.3l1.2 8.7c0 .1.2.2.3.2.1 0 .2-.2.2-.3zm3.5 17.1c-.7-2.8-1.3-5.7-1.9-8.5 0-.1-.2-.2-.3-.2-.1 0-.2.2-.2.3.6 2.9 1.2 5.7 1.9 8.6 0 .1.2.2.3.2.1-.1.2-.2.2-.4zm4.9 16.8c-.9-2.8-1.8-5.5-2.6-8.4 0-.1-.2-.2-.3-.2-.1 0-.2.2-.2.3.8 2.8 1.7 5.6 2.6 8.4 0 .1.2.2.3.2.1 0 .2-.1.2-.3zm6.2 16.4l-3.3-8.1c-.1-.1-.2-.2-.3-.1-.1.1-.2.2-.1.3 1 2.7 2.1 5.4 3.3 8.1.1.1.2.2.3.1.1-.1.1-.2.1-.3zm7.5 15.7c-1.4-2.6-2.7-5.2-3.9-7.8-.1-.1-.2-.2-.3-.1-.1.1-.2.2-.1.3l3.9 7.8c.1.1.2.2.3.1.1 0 .1-.1.1-.3zm8.7 15.1c-1.6-2.5-3.1-4.9-4.5-7.5-.1-.1-.2-.2-.4-.1-.1.1-.2.2-.1.4l4.5 7.5c.1.1.2.2.4.1s.2-.2.1-.4zm10 14.4c-1.8-2.3-3.5-4.7-5.1-7.1-.1-.1-.2-.1-.4-.1-.1.1-.1.2-.1.4 1.7 2.4 3.4 4.8 5.1 7.1.1.1.2.1.4.1.1-.1.2-.3.1-.4zm11.1 13.6c-1.9-2.2-3.8-4.4-5.7-6.7-.1-.1-.3-.1-.4 0-.1.1-.1.3 0 .4 1.9 2.3 3.7 4.5 5.7 6.7.1.1.3.1.4 0v-.4zm12.1 12.6c-2.1-2-4.2-4.1-6.2-6.2-.1-.1-.3-.1-.4 0s-.1.3 0 .4c2 2.1 4.1 4.2 6.2 6.2.1.1.3.1.4 0 .1-.2.1-.3 0-.4zm13.1 11.6c-2.3-1.8-4.5-3.7-6.7-5.7-.1-.1-.3-.1-.4 0s-.1.3 0 .4c2.2 1.9 4.4 3.8 6.7 5.7.1.1.3.1.4 0 .1-.2.1-.3 0-.4zm14 10.5c-2.4-1.7-4.8-3.4-7.1-5.1-.1-.1-.3-.1-.4.1-.1.1-.1.3.1.4 2.3 1.8 4.7 3.5 7.1 5.1.1.1.3.1.4-.1s0-.3-.1-.4zm14.8 9.4l-7.5-4.5c-.1-.1-.3 0-.4.1-.1.1 0 .3.1.4 2.5 1.6 5 3.1 7.5 4.5.1.1.3 0 .4-.1 0-.2 0-.3-.1-.4zm15.5 8.1c-2.6-1.3-5.3-2.6-7.8-3.9-.1-.1-.3 0-.3.1-.1.1 0 .3.1.3 2.6 1.4 5.2 2.7 7.9 3.9.1.1.3 0 .3-.1s-.1-.2-.2-.3zm16.1 6.9c-2.7-1-5.5-2.1-8.1-3.3-.1-.1-.3 0-.3.1-.1.1 0 .3.1.3 2.7 1.1 5.4 2.2 8.2 3.3.1.1.3 0 .3-.1s0-.2-.2-.3zm16.7 5.5c-2.8-.8-5.6-1.7-8.4-2.6-.1 0-.3 0-.3.2 0 .1 0 .3.2.3 2.8.9 5.6 1.8 8.4 2.6.1 0 .3 0 .3-.2 0-.1-.1-.2-.2-.3zm17 4.2c-2.9-.6-5.7-1.2-8.5-1.9-.1 0-.3.1-.3.2s.1.3.2.3c2.8.7 5.7 1.3 8.6 1.9.1 0 .3-.1.3-.2-.1-.1-.2-.3-.3-.3zm17.2 2.8c-2.9-.3-5.8-.8-8.7-1.2-.1 0-.3.1-.3.2s.1.3.2.3c2.9.5 5.8.9 8.7 1.2.1 0 .3-.1.3-.2.1-.2 0-.3-.2-.3zm17.5 1.4c-2.9-.1-5.8-.3-8.7-.5-.1 0-.3.1-.3.2s.1.3.2.3c2.9.2 5.8.4 8.8.5.1 0 .3-.1.3-.2-.1-.2-.2-.3-.3-.3zm17.5 0c-2.9.1-5.8.2-8.8.2-.1 0-.3.1-.3.3 0 .1.1.3.3.3 2.9 0 5.9-.1 8.8-.2.1 0 .3-.1.2-.3 0-.2-.1-.4-.2-.3zm17.4-1.4l-8.7.9c-.1 0-.2.1-.2.3 0 .1.1.2.3.2 2.9-.2 5.8-.5 8.7-.9.1 0 .2-.1.2-.3 0-.2-.1-.3-.3-.2zm17.3-2.8c-2.8.6-5.7 1.1-8.6 1.6-.1 0-.2.2-.2.3 0 .1.2.2.3.2 2.9-.5 5.8-1 8.6-1.6.1 0 .2-.2.2-.3 0-.2-.2-.3-.3-.2zm17-4.2c-2.8.8-5.6 1.6-8.5 2.3-.1 0-.2.2-.2.3 0 .1.2.2.3.2 2.8-.7 5.7-1.5 8.5-2.3.1 0 .2-.2.2-.3 0-.2-.2-.3-.3-.2zm16.6-5.6c-2.7 1-5.5 2-8.2 2.9-.1 0-.2.2-.2.3 0 .1.2.2.3.2 2.8-.9 5.5-1.9 8.3-2.9.1-.1.2-.2.1-.3 0-.2-.2-.2-.3-.2zm16-6.8c-2.6 1.2-5.3 2.4-8 3.6-.1.1-.2.2-.1.3.1.1.2.2.3.1 2.7-1.1 5.3-2.3 8-3.6.1-.1.2-.2.1-.3 0-.1-.1-.2-.3-.1zm15.5-8.2c-2.5 1.5-5.1 2.9-7.6 4.2-.1.1-.2.2-.1.3.1.1.2.2.3.1 2.6-1.4 5.1-2.8 7.7-4.2.1-.1.2-.2.1-.4h-.4zm14.7-9.3c-2.4 1.7-4.8 3.3-7.3 4.8-.1.1-.2.2-.1.4.1.1.2.2.4.1 2.5-1.6 4.9-3.2 7.3-4.8.1-.1.1-.2.1-.4-.1-.2-.2-.2-.4-.1zm14-10.5l-6.9 5.4c-.1.1-.1.2-.1.4.1.1.2.1.4.1l6.9-5.4c.1-.1.1-.3 0-.4 0-.2-.2-.2-.3-.1zm13.1-11.6c-2.1 2-4.2 4-6.4 5.9-.1.1-.1.3 0 .4.1.1.3.1.4 0 2.2-1.9 4.3-3.9 6.4-5.9.1-.1.1-.3 0-.4-.1-.1-.3-.1-.4 0zm12.1-12.6c-1.9 2.2-3.9 4.3-5.9 6.4-.1.1-.1.3 0 .4.1.1.3.1.4 0 2-2.1 4-4.3 6-6.4.1-.1.1-.3 0-.4-.2-.2-.4-.1-.5 0zm11.1-13.6l-5.4 6.9c-.1.1-.1.3 0 .4.1.1.3.1.4 0 1.9-2.3 3.7-4.6 5.4-6.9.1-.1.1-.3-.1-.4 0-.1-.2-.1-.3 0zm10-14.4c-1.6 2.5-3.2 4.9-4.8 7.3-.1.1-.1.3.1.4.1.1.3.1.4-.1 1.7-2.4 3.3-4.8 4.9-7.3.1-.1 0-.3-.1-.4-.3 0-.4 0-.5.1zm8.8-15.2c-1.4 2.6-2.8 5.1-4.2 7.7-.1.1 0 .3.1.4.1.1.3 0 .4-.1 1.5-2.5 2.9-5.1 4.2-7.7.1-.1 0-.3-.1-.3-.2-.1-.4-.1-.4 0zm7.5-15.8c-1.1 2.7-2.4 5.4-3.6 8-.1.1 0 .3.1.3.1.1.3 0 .3-.1 1.3-2.6 2.5-5.3 3.6-8 .1-.1 0-.3-.1-.3s-.2 0-.3.1zm6.2-16.4c-.9 2.8-1.9 5.5-2.9 8.3-.1.1 0 .3.1.3.1.1.3 0 .3-.1 1-2.7 2-5.5 3-8.3 0-.1 0-.3-.2-.3-.1-.1-.2 0-.3.1zm4.9-16.8c-.7 2.8-1.5 5.7-2.3 8.5 0 .1 0 .3.2.3.1 0 .3 0 .3-.2.8-2.8 1.6-5.6 2.3-8.5 0-.1-.1-.3-.2-.3s-.3.1-.3.2zm3.5-17.2c-.5 2.9-1 5.8-1.6 8.6 0 .1.1.3.2.3s.3-.1.3-.2c.6-2.9 1.1-5.7 1.6-8.6 0-.1-.1-.3-.2-.3-.2 0-.3.1-.3.2zm2.1-17.3c-.2 2.9-.5 5.8-.9 8.7 0 .1.1.3.2.3s.3-.1.3-.2l.9-8.7c0-.1-.1-.3-.2-.3-.2-.1-.3 0-.3.2z" id="BJmF6ruzjCz"/></g><script>(function(){var a=document.querySelector(&apos;#H1aSdfjAG&apos;),b=a.querySelectorAll(&apos;style&apos;),c=function(d){b.forEach(function(f){var g=f.textContent;g&amp;&amp;(f.textContent=g.replace(/transform-box:[^;\r\n]*/gi,&apos;transform-box: &apos;+d))})};c(&apos;initial&apos;),window.requestAnimationFrame(function(){return c(&apos;fill-box&apos;)})})();</script></svg>