<svg xmlns="http://www.w3.org/2000/svg" viewBox="0 0 203.4 241.9"><title>faders</title><rect x="13.1" y="5.7" width="8.7" height="236.2" rx="4.4" ry="4.4" style="fill:#b93a59"/><rect y="82.6" width="34.5" height="37.45" style="fill:#3a3a3a"/><line x1="2.4" y1="97.3" x2="31.3" y2="97.3" style="fill:none;stroke:#808285;stroke-miterlimit:10;stroke-width:2px"/><line x1="2.4" y1="104" x2="31.3" y2="104" style="fill:none;stroke:#808285;stroke-miterlimit:10;stroke-width:2px"/><line x1="2.4" y1="110.7" x2="31.3" y2="110.7" style="fill:none;stroke:#808285;stroke-miterlimit:10;stroke-width:2px"/><rect y="120.1" width="34.5" height="37.45" transform="translate(34.5 277.6) rotate(180)" style="fill:#3a3a3a"/><rect y="146.4" width="34.5" height="11.1" transform="translate(34.5 303.9) rotate(180)" style="fill:#191919;opacity:0.52"/><line x1="2.4" y1="128" x2="31.3" y2="128" style="fill:none;stroke:#808285;stroke-miterlimit:10;stroke-width:2px"/><line x1="2.4" y1="134.8" x2="31.3" y2="134.8" style="fill:none;stroke:#808285;stroke-miterlimit:10;stroke-width:2px"/><line x1="2.4" y1="141.5" x2="31.3" y2="141.5" style="fill:none;stroke:#808285;stroke-miterlimit:10;stroke-width:2px"/><line x1="2.4" y1="120.1" x2="31.3" y2="120.1" style="fill:none;stroke:#231f20;stroke-miterlimit:10;stroke-width:2px"/><rect y="82.6" width="34.5" height="11.1" style="fill:#191919;opacity:0.52"/><rect x="96.8" y="2" width="8.7" height="236.2" rx="4.4" ry="4.4" style="fill:#b93a59"/><rect x="83.9" y="19.4" width="34.5" height="37.45" style="fill:#3a3a3a"/><line x1="86.3" y1="34" x2="115.2" y2="34" style="fill:none;stroke:#808285;stroke-miterlimit:10;stroke-width:2px"/><line x1="86.3" y1="40.8" x2="115.2" y2="40.8" style="fill:none;stroke:#808285;stroke-miterlimit:10;stroke-width:2px"/><line x1="86.3" y1="47.5" x2="115.2" y2="47.5" style="fill:none;stroke:#808285;stroke-miterlimit:10;stroke-width:2px"/><rect x="83.9" y="56.8" width="34.5" height="37.45" transform="translate(202.3 151.1) rotate(180)" style="fill:#3a3a3a"/><rect x="83.9" y="83.2" width="34.5" height="11.1" transform="translate(202.3 177.4) rotate(180)" style="fill:#191919;opacity:0.52"/><line x1="86.3" y1="64.8" x2="115.2" y2="64.8" style="fill:none;stroke:#808285;stroke-miterlimit:10;stroke-width:2px"/><line x1="86.3" y1="71.5" x2="115.2" y2="71.5" style="fill:none;stroke:#808285;stroke-miterlimit:10;stroke-width:2px"/><line x1="86.3" y1="78.3" x2="115.2" y2="78.3" style="fill:none;stroke:#808285;stroke-miterlimit:10;stroke-width:2px"/><line x1="86.3" y1="56.8" x2="115.2" y2="56.8" style="fill:none;stroke:#231f20;stroke-miterlimit:10;stroke-width:2px"/><rect x="83.9" y="19.4" width="34.5" height="11.1" style="fill:#191919;opacity:0.52"/><rect x="181.2" width="8.7" height="236.2" rx="4.4" ry="4.4" style="fill:#b93a59"/><rect x="168.9" y="140.3" width="34.5" height="37.45" style="fill:#3a3a3a"/><line x1="171.3" y1="155" x2="200.2" y2="155" style="fill:none;stroke:#808285;stroke-miterlimit:10;stroke-width:2px"/><line x1="171.3" y1="161.7" x2="200.2" y2="161.7" style="fill:none;stroke:#808285;stroke-miterlimit:10;stroke-width:2px"/><line x1="171.3" y1="168.5" x2="200.2" y2="168.5" style="fill:none;stroke:#808285;stroke-miterlimit:10;stroke-width:2px"/><rect x="168.9" y="177.8" width="34.5" height="37.45" transform="translate(372.3 393) rotate(180)" style="fill:#3a3a3a"/><rect x="168.9" y="204.1" width="34.5" height="11.1" transform="translate(372.3 419.4) rotate(180)" style="fill:#191919;opacity:0.52"/><line x1="171.3" y1="185.8" x2="200.2" y2="185.8" style="fill:none;stroke:#808285;stroke-miterlimit:10;stroke-width:2px"/><line x1="171.3" y1="192.5" x2="200.2" y2="192.5" style="fill:none;stroke:#808285;stroke-miterlimit:10;stroke-width:2px"/><line x1="171.3" y1="199.2" x2="200.2" y2="199.2" style="fill:none;stroke:#808285;stroke-miterlimit:10;stroke-width:2px"/><line x1="171.3" y1="177.8" x2="200.2" y2="177.8" style="fill:none;stroke:#231f20;stroke-miterlimit:10;stroke-width:2px"/><rect x="168.9" y="140.3" width="34.5" height="11.1" style="fill:#191919;opacity:0.52"/></svg>