<svg xmlns="http://www.w3.org/2000/svg" viewBox="0 0 491.4 499.9"><title>fdp</title><path d="M379.6,36.8H383a3.1,3.1,0,0,1,2.6,1,4.3,4.3,0,0,1,.8,2.8,4.2,4.2,0,0,1-.8,2.7,3,3,0,0,1-2.5,1h-2.1v6.6h-1.3Zm3,6.4a2.4,2.4,0,0,0,1.8-.6,3.1,3.1,0,0,0,.5-2.1,5.2,5.2,0,0,0-.2-1.7,1.4,1.4,0,0,0-.7-.8,3.5,3.5,0,0,0-1.5-.2h-1.7v5.4Z" style="fill:#ffe6ce"/><path d="M387.9,50.4a2.4,2.4,0,0,1-.6-1.6,3.1,3.1,0,0,1,.4-1.6A3.6,3.6,0,0,1,389,46l2.4-1.2v-.7a7.3,7.3,0,0,0-.1-1.5,1.3,1.3,0,0,0-.4-.7l-.8-.2q-1.4,0-1.4,1.7v.3h-1.2a3.4,3.4,0,0,1,.7-2.3,2.6,2.6,0,0,1,2.1-.7,2.1,2.1,0,0,1,1.9.8,4.4,4.4,0,0,1,.6,2.5v4.9q0,.5,0,1.1t.1.9h-1.1l-.2-1.4a2.4,2.4,0,0,1-.8,1.1,2,2,0,0,1-1.3.4A1.8,1.8,0,0,1,387.9,50.4Zm2.8-.8a2.8,2.8,0,0,0,.7-.8V45.6l-1.7,1a2.6,2.6,0,0,0-.8.8,2,2,0,0,0-.3,1.1,1.6,1.6,0,0,0,.3,1.1,1,1,0,0,0,.8.4A1.4,1.4,0,0,0,390.7,49.6Z" style="fill:#ffe6ce"/><path d="M394.7,37.7h1.3v1.7h-1.3Zm0,3.1h1.3v10h-1.3Z" style="fill:#ffe6ce"/><path d="M399,50.6a2.2,2.2,0,0,1-.9-1.2,7.7,7.7,0,0,1-.3-2.3V44.6a7.5,7.5,0,0,1,.3-2.3,2.2,2.2,0,0,1,.9-1.2,3,3,0,0,1,1.6-.4,2.5,2.5,0,0,1,1.6.4,2.3,2.3,0,0,1,.8,1.3,10.4,10.4,0,0,1,.2,2.4v.9h-4.1v1.8a4.4,4.4,0,0,0,.3,2,1.2,1.2,0,0,0,1.1.6,1.3,1.3,0,0,0,1-.4,2.4,2.4,0,0,0,.4-1.5v-.7h1.2V48a3.6,3.6,0,0,1-.6,2.2,2.4,2.4,0,0,1-2,.8A2.8,2.8,0,0,1,399,50.6Zm2.9-5.6v-.8a8.3,8.3,0,0,0-.1-1.4,1.5,1.5,0,0,0-.4-.8,1.2,1.2,0,0,0-.9-.3l-.8.2a1.4,1.4,0,0,0-.5.8,7.5,7.5,0,0,0-.1,1.6V45Z" style="fill:#ffe6ce"/><path d="M404.9,40.8h1.2v1a3.4,3.4,0,0,1,1.1-.9,2.8,2.8,0,0,1,1.3-.3A1.5,1.5,0,0,1,410,42a3.5,3.5,0,0,1,1.1-1,2.8,2.8,0,0,1,1.3-.3,1.6,1.6,0,0,1,1.2.5,2.6,2.6,0,0,1,.5,1.8v7.9H413V43a1.9,1.9,0,0,0-.3-1.1.9.9,0,0,0-.7-.3l-1,.3-.9.8v8.3H409V43a1.8,1.8,0,0,0-.3-1.1.9.9,0,0,0-.7-.3l-.9.3-.9.7v8.3h-1.2Z" style="fill:#ffe6ce"/><path d="M417,50.6a2.2,2.2,0,0,1-.9-1.2,7.7,7.7,0,0,1-.3-2.3V44.6a7.5,7.5,0,0,1,.3-2.3,2.2,2.2,0,0,1,.9-1.2,3,3,0,0,1,1.6-.4,2.5,2.5,0,0,1,1.6.4,2.3,2.3,0,0,1,.8,1.3,10.4,10.4,0,0,1,.2,2.4v.9h-4.1v1.8a4.4,4.4,0,0,0,.3,2,1.2,1.2,0,0,0,1.1.6,1.3,1.3,0,0,0,1-.4,2.4,2.4,0,0,0,.4-1.5v-.7h1.2V48a3.6,3.6,0,0,1-.6,2.2,2.4,2.4,0,0,1-2,.8A2.8,2.8,0,0,1,417,50.6ZM420,45v-.8a8.3,8.3,0,0,0-.1-1.4,1.5,1.5,0,0,0-.4-.8,1.2,1.2,0,0,0-.9-.3l-.8.2a1.4,1.4,0,0,0-.5.8,7.5,7.5,0,0,0-.1,1.6V45Z" style="fill:#ffe6ce"/><path d="M422.9,40.8h1.3v1a4,4,0,0,1,1.1-.9,2.8,2.8,0,0,1,1.3-.3,1.3,1.3,0,0,1,1.1.6,2.7,2.7,0,0,1,.4,1.6v8h-1.3V43.1a1.9,1.9,0,0,0-.2-1.1.8.8,0,0,0-.7-.3l-.9.3-.9.7v8.3h-1.3Z" style="fill:#ffe6ce"/><path d="M431,50.4a2.9,2.9,0,0,1-.4-1.6V41.7h-1.2v-.8h1.2V37.7h1.3v3.1h1.7v.8h-1.7v7a2.2,2.2,0,0,0,.2,1,.8.8,0,0,0,.7.3h.7v1h-1.1A1.6,1.6,0,0,1,431,50.4Z" style="fill:#ffe6ce"/><path d="M373.8,77.7a4.6,4.6,0,0,1-1.2-2.9l1.5-.5a4.4,4.4,0,0,0,.8,2.4,2.1,2.1,0,0,0,1.7.8,1.9,1.9,0,0,0,1.4-.5,2,2,0,0,0,.5-1.5,3.9,3.9,0,0,0-1.7-2.8l-1.9-1.7a6.2,6.2,0,0,1-1.5-1.6,3.7,3.7,0,0,1-.5-1.9,3,3,0,0,1,.9-2.3,3.5,3.5,0,0,1,2.4-.8,3,3,0,0,1,2.4,1,4.5,4.5,0,0,1,.9,2.7l-1.3.4q-.1-2.8-2-2.8a1.9,1.9,0,0,0-1.3.4,1.6,1.6,0,0,0-.5,1.3,2.5,2.5,0,0,0,.2,1.1,3.8,3.8,0,0,0,.9,1.1l2,1.8a10.6,10.6,0,0,1,1.7,1.9,3.8,3.8,0,0,1,.6,2.2,3.2,3.2,0,0,1-1,2.5,3.7,3.7,0,0,1-2.6.9A3.5,3.5,0,0,1,373.8,77.7Z" style="fill:#ffe6ce"/><path d="M383.4,78.2a3.1,3.1,0,0,1-1.2-1.7,10.8,10.8,0,0,1-.4-3.2V69.7a10.4,10.4,0,0,1,.4-3.2,3,3,0,0,1,1.2-1.7,4.1,4.1,0,0,1,2.2-.5,3.6,3.6,0,0,1,2.2.6,3.3,3.3,0,0,1,1.1,1.9,14.5,14.5,0,0,1,.3,3.3v1.3h-5.7v2.5a6.1,6.1,0,0,0,.5,2.8,1.6,1.6,0,0,0,1.6.8,1.8,1.8,0,0,0,1.4-.6,3.3,3.3,0,0,0,.5-2.1v-1h1.7v.8a5,5,0,0,1-.8,3.1,3.3,3.3,0,0,1-2.8,1.1A4,4,0,0,1,383.4,78.2Zm4.1-7.9V69.1a11.6,11.6,0,0,0-.1-2,2.1,2.1,0,0,0-.5-1.1,1.7,1.7,0,0,0-1.2-.4,1.6,1.6,0,0,0-1.8,1.5,10.4,10.4,0,0,0-.2,2.3v.9Zm-.9-11.8h1.8L386,63.3h-.9Z" style="fill:#ffe6ce"/><path d="M392.8,78a3.4,3.4,0,0,1-1.1-1.9,13.2,13.2,0,0,1-.3-3V69.9a12.9,12.9,0,0,1,.3-3.3,3.2,3.2,0,0,1,1.1-1.8,3.8,3.8,0,0,1,2.3-.6,3.1,3.1,0,0,1,2.8,1.1,6.1,6.1,0,0,1,.8,3.4v.7h-1.7v-.7a7.8,7.8,0,0,0-.2-1.9,1.6,1.6,0,0,0-.6-1,2,2,0,0,0-1.1-.3,1.8,1.8,0,0,0-1.3.4,2.2,2.2,0,0,0-.6,1.2,13.9,13.9,0,0,0-.2,2.4v3.9a11.9,11.9,0,0,0,.2,2.3A2,2,0,0,0,394,77a1.9,1.9,0,0,0,1.2.4,1.8,1.8,0,0,0,1.2-.4A1.8,1.8,0,0,0,397,76a11.2,11.2,0,0,0,.1-2v-.8h1.7v.7a10.2,10.2,0,0,1-.3,2.6,2.9,2.9,0,0,1-1.1,1.6,3.7,3.7,0,0,1-2.2.6A3.6,3.6,0,0,1,392.8,78Z" style="fill:#ffe6ce"/><path d="M401.6,78a3.7,3.7,0,0,1-.6-2.2V64.5h1.8V75.4a2.7,2.7,0,0,0,.3,1.5,1.2,1.2,0,0,0,1,.4,2.5,2.5,0,0,0,1.3-.4,5.3,5.3,0,0,0,1.2-1V64.5h1.8v14h-1.8V77a5.6,5.6,0,0,1-1.6,1.3,3.8,3.8,0,0,1-1.8.5A1.9,1.9,0,0,1,401.6,78Z" style="fill:#ffe6ce"/><path d="M411.3,64.5h1.8v1.9a4.4,4.4,0,0,1,1.5-1.6,3.4,3.4,0,0,1,1.7-.5h.3v1.9h-.9a3,3,0,0,0-2.7,1.6V78.5h-1.8Z" style="fill:#ffe6ce"/><path d="M418.5,60.1h1.8v2.4h-1.8Zm0,4.3h1.8v14h-1.8Z" style="fill:#ffe6ce"/><path d="M423.9,77.7a4.6,4.6,0,0,1-1.2-2.9l1.5-.5a4.4,4.4,0,0,0,.8,2.4,2.1,2.1,0,0,0,1.7.8,1.9,1.9,0,0,0,1.4-.5,2,2,0,0,0,.5-1.5,3.9,3.9,0,0,0-1.7-2.8l-1.9-1.7a6.2,6.2,0,0,1-1.5-1.6,3.7,3.7,0,0,1-.5-1.9,3,3,0,0,1,.9-2.3,3.5,3.5,0,0,1,2.4-.8,3,3,0,0,1,2.4,1,4.5,4.5,0,0,1,.9,2.7l-1.3.4q-.1-2.8-2-2.8a1.9,1.9,0,0,0-1.3.4,1.6,1.6,0,0,0-.5,1.3,2.5,2.5,0,0,0,.2,1.1,3.8,3.8,0,0,0,.9,1.1l2,1.8a10.6,10.6,0,0,1,1.7,1.9,3.8,3.8,0,0,1,.6,2.2,3.2,3.2,0,0,1-1,2.5,3.7,3.7,0,0,1-2.6.9A3.5,3.5,0,0,1,423.9,77.7Z" style="fill:#ffe6ce"/><path d="M433.5,78.2a3.1,3.1,0,0,1-1.2-1.7,10.8,10.8,0,0,1-.4-3.2V69.7a10.4,10.4,0,0,1,.4-3.2,3,3,0,0,1,1.2-1.7,4.1,4.1,0,0,1,2.2-.5,3.6,3.6,0,0,1,2.2.6,3.3,3.3,0,0,1,1.1,1.9,14.5,14.5,0,0,1,.3,3.3v1.3h-5.7v2.5a6.1,6.1,0,0,0,.5,2.8,1.6,1.6,0,0,0,1.6.8,1.8,1.8,0,0,0,1.4-.6,3.3,3.3,0,0,0,.5-2.1v-1h1.7v.8a5,5,0,0,1-.8,3.1,3.3,3.3,0,0,1-2.8,1.1A4,4,0,0,1,433.5,78.2Zm4.1-7.9V69.1a11.6,11.6,0,0,0-.1-2,2.1,2.1,0,0,0-.5-1.1,1.7,1.7,0,0,0-1.2-.4,1.6,1.6,0,0,0-1.8,1.5,10.4,10.4,0,0,0-.2,2.3v.9Zm-.9-11.8h1.8L436,63.3h-.9Z" style="fill:#ffe6ce"/><circle cx="358.3" cy="333.5" r="81.2" style="fill:none;stroke:#ffe6ce;stroke-miterlimit:10;stroke-width:5px"/><path d="M326.3,277.1a2.1,2.1,0,0,1-1,.6l-2,.7V277l1.8-.8a5.1,5.1,0,0,0,1.6-1.4h1.4v19.7h-1.8Z" style="fill:#ffe6ce"/><path d="M332.8,288.8v-8.5q0-5.8,4.7-5.8t4.7,5.8v8.5a7.3,7.3,0,0,1-1.1,4.3,4.1,4.1,0,0,1-3.6,1.5Q332.8,294.6,332.8,288.8Zm6.9,3.3a6.2,6.2,0,0,0,.7-3.1v-8.8a6.3,6.3,0,0,0-.6-3.1,2.4,2.4,0,0,0-2.2-1.1,2.3,2.3,0,0,0-2.2,1.1,6.3,6.3,0,0,0-.6,3.1V289q0,4.2,2.9,4.2A2.4,2.4,0,0,0,339.7,292.1Z" style="fill:#ffe6ce"/><path d="M345.3,288.8v-8.5q0-5.8,4.7-5.8t4.7,5.8v8.5a7.3,7.3,0,0,1-1.1,4.3,4.1,4.1,0,0,1-3.6,1.5Q345.3,294.6,345.3,288.8Zm6.9,3.3a6.2,6.2,0,0,0,.7-3.1v-8.8a6.3,6.3,0,0,0-.6-3.1,2.4,2.4,0,0,0-2.2-1.1,2.3,2.3,0,0,0-2.2,1.1,6.3,6.3,0,0,0-.6,3.1V289q0,4.2,2.9,4.2A2.4,2.4,0,0,0,352.2,292.1Z" style="fill:#ffe6ce"/><path d="M357.9,288.8v-8.5q0-5.8,4.7-5.8t4.7,5.8v8.5a7.3,7.3,0,0,1-1.1,4.3,4.1,4.1,0,0,1-3.6,1.5Q357.9,294.6,357.9,288.8Zm6.9,3.3a6.2,6.2,0,0,0,.7-3.1v-8.8a6.3,6.3,0,0,0-.6-3.1,2.4,2.4,0,0,0-2.2-1.1,2.3,2.3,0,0,0-2.2,1.1,6.3,6.3,0,0,0-.6,3.1V289q0,4.2,2.9,4.2A2.4,2.4,0,0,0,364.8,292.1Z" style="fill:#ffe6ce"/><path d="M375,276.8h1.6V288l4.2-6.1h1.7l-3.2,4.8,3,7.7h-1.6l-2.6-6.8-1.5,2.1v4.7H375Z" style="fill:#ffe6ce"/><path d="M383.7,281.9h1.5v1.3a4.2,4.2,0,0,1,1.4-1.1,3.5,3.5,0,0,1,1.6-.4,1.9,1.9,0,0,1,2,1.6,4.4,4.4,0,0,1,1.4-1.2,3.5,3.5,0,0,1,1.7-.4,2,2,0,0,1,1.5.7,3.3,3.3,0,0,1,.6,2.2v9.9h-1.5v-9.8a2.3,2.3,0,0,0-.3-1.4,1.1,1.1,0,0,0-.9-.4,2.5,2.5,0,0,0-1.2.3,4.5,4.5,0,0,0-1.2,1,3.6,3.6,0,0,1,0,.5v9.9h-1.5v-9.8a2.3,2.3,0,0,0-.3-1.4,1.1,1.1,0,0,0-.9-.4,2.4,2.4,0,0,0-1.2.3l-1.2.9v10.4h-1.5Z" style="fill:#ffe6ce"/><path d="M337.1,302.2h1v.9a2.9,2.9,0,0,1,.9-.8l1.1-.3a1.3,1.3,0,0,1,1.4,1.1,3,3,0,0,1,1-.8l1.1-.3a1.3,1.3,0,0,1,1,.5,2.2,2.2,0,0,1,.4,1.5v6.7h-1V304a1.6,1.6,0,0,0-.2-1,.8.8,0,0,0-.6-.3l-.8.2-.8.7v7.1h-1V304a1.6,1.6,0,0,0-.2-1,.8.8,0,0,0-.6-.3l-.8.2-.8.6v7.1h-1Z" style="fill:#ffe6ce"/><path d="M346.8,310.4a2,2,0,0,1-.5-1.4,2.6,2.6,0,0,1,.3-1.4,3,3,0,0,1,1-1l2.1-1V305a6.2,6.2,0,0,0-.1-1.2,1.1,1.1,0,0,0-.3-.6l-.6-.2q-1.2,0-1.2,1.5v.3h-1.1a2.9,2.9,0,0,1,.6-1.9,2.2,2.2,0,0,1,1.8-.6,1.8,1.8,0,0,1,1.6.7,3.8,3.8,0,0,1,.5,2.1v4.2c0,.3,0,.6,0,.9s0,.6.1.8h-1l-.2-1.2a2,2,0,0,1-.7.9,1.7,1.7,0,0,1-1.1.4A1.6,1.6,0,0,1,346.8,310.4Zm2.4-.7.6-.7v-2.7l-1.5.8-.7.7a1.7,1.7,0,0,0-.2.9,1.4,1.4,0,0,0,.3.9.9.9,0,0,0,.7.3A1.2,1.2,0,0,0,349.2,309.7Z" style="fill:#ffe6ce"/><path d="M353.9,306.3l-1.9-4.1H353l1.5,3.1,1.4-3.1H357l-2,4.2,2,4.4h-1l-1.6-3.4-1.5,3.4h-1Z" style="fill:#ffe6ce"/><path d="M358.2,299.6h1.1V301h-1.1Zm0,2.6h1.1v8.6h-1.1Z" style="fill:#ffe6ce"/><path d="M361.1,302.2h1v.9a2.9,2.9,0,0,1,.9-.8l1.1-.3a1.3,1.3,0,0,1,1.4,1.1,3,3,0,0,1,1-.8l1.1-.3a1.3,1.3,0,0,1,1,.5,2.2,2.2,0,0,1,.4,1.5v6.7h-1V304a1.6,1.6,0,0,0-.2-1,.8.8,0,0,0-.6-.3l-.8.2-.8.7v7.1h-1V304a1.6,1.6,0,0,0-.2-1,.8.8,0,0,0-.6-.3l-.8.2-.8.6v7.1h-1Z" style="fill:#ffe6ce"/><path d="M370.9,310.4a2.3,2.3,0,0,1-.3-1.3v-6.9h1.1v6.6a1.6,1.6,0,0,0,.2.9.7.7,0,0,0,.6.3l.8-.2.7-.6v-7h1.1v8.6H374v-.9l-1,.8a2.3,2.3,0,0,1-1.1.3A1.1,1.1,0,0,1,370.9,310.4Z" style="fill:#ffe6ce"/><path d="M376.7,302.2h1v.9a2.9,2.9,0,0,1,.9-.8l1.1-.3a1.3,1.3,0,0,1,1.4,1.1,3,3,0,0,1,1-.8l1.1-.3a1.3,1.3,0,0,1,1,.5,2.2,2.2,0,0,1,.4,1.5v6.7h-1V304a1.6,1.6,0,0,0-.2-1,.8.8,0,0,0-.6-.3l-.8.2-.8.7v7.1h-1V304a1.6,1.6,0,0,0-.2-1,.8.8,0,0,0-.6-.3l-.8.2-.8.6v7.1h-1Z" style="fill:#ffe6ce"/><path d="M354.5,370.5a8,8,0,1,0,8,8A8,8,0,0,0,354.5,370.5Zm0,13.4a5.3,5.3,0,1,1,5.3-5.3A5.4,5.4,0,0,1,354.5,383.8Z" style="fill:#ffebd8"/><path d="M399.9,370.5a8,8,0,1,0,8,8A8,8,0,0,0,399.9,370.5Zm0,13.4a5.3,5.3,0,1,1,5.3-5.3A5.4,5.4,0,0,1,399.9,383.8Z" style="fill:#ffebd8"/><path d="M415.7,363.1l-12-18.7a1.3,1.3,0,0,0-1.1-.6H387.9a1.3,1.3,0,0,0-1.3,1.3v33.4a1.3,1.3,0,0,0,1.3,1.3h5.3v-2.7h-4V346.4h12.6l11.4,17.8v13h-6.7v2.7h8a1.3,1.3,0,0,0,1.3-1.3V363.8A1.3,1.3,0,0,0,415.7,363.1Z" style="fill:#ffebd8"/><path d="M394.6,361.1v-9.4h10.7v-2.7h-12a1.3,1.3,0,0,0-1.3,1.3v12a1.3,1.3,0,0,0,1.3,1.3h20v-2.7H394.6Z" style="fill:#ffebd8"/><path d="M387.9,334.4H337.1a1.3,1.3,0,0,0-1.3,1.3v42.8a1.3,1.3,0,0,0,1.3,1.3h10.7v-2.7h-9.4V337.1h48.1v40.1H361.2v2.7h26.7a1.3,1.3,0,0,0,1.3-1.3V335.7A1.3,1.3,0,0,0,387.9,334.4Z" style="fill:#ffebd8"/><rect x="409.3" y="371.8" width="5.3" height="2.67" style="fill:#ffebd8"/><rect x="353.1" y="377.1" width="2.7" height="2.67" style="fill:#ffebd8"/><rect x="398.6" y="377.1" width="2.7" height="2.67" style="fill:#ffebd8"/><rect x="341.1" y="329" width="18.7" height="2.67" style="fill:#ffebd8"/><rect x="335.8" y="329" width="2.7" height="2.67" style="fill:#ffebd8"/><path d="M329.5,340.8a4.2,4.2,0,0,0,0-6.2,5.9,5.9,0,0,1-.9-1.6,6.1,6.1,0,0,1,0-2,5.4,5.4,0,0,0-.4-3.3,5.5,5.5,0,0,0-2.7-2,3.8,3.8,0,0,1-2.7-2.7,5.5,5.5,0,0,0-2-2.7,5.4,5.4,0,0,0-3.3-.4,6.1,6.1,0,0,1-2,0,5.9,5.9,0,0,1-1.6-.9,4.2,4.2,0,0,0-6.2,0,5.9,5.9,0,0,1-1.6.9,6.1,6.1,0,0,1-2,0,5.4,5.4,0,0,0-3.3.4,5.5,5.5,0,0,0-2,2.7,3.8,3.8,0,0,1-2.7,2.7,5.5,5.5,0,0,0-2.7,2,5.4,5.4,0,0,0-.4,3.3,6.1,6.1,0,0,1,0,2,5.9,5.9,0,0,1-.9,1.6,4.2,4.2,0,0,0,0,6.2,5.9,5.9,0,0,1,.9,1.6,6.1,6.1,0,0,1,0,2,5.4,5.4,0,0,0,.4,3.3,5.5,5.5,0,0,0,2.7,2,3.8,3.8,0,0,1,2.7,2.7,5.5,5.5,0,0,0,2,2.7,5.4,5.4,0,0,0,3.3.4,6.1,6.1,0,0,1,2,0,5.9,5.9,0,0,1,1.6.9,4.2,4.2,0,0,0,6.2,0,5.9,5.9,0,0,1,1.6-.9,6.1,6.1,0,0,1,2,0,5.4,5.4,0,0,0,3.3-.4,5.5,5.5,0,0,0,2-2.7,3.8,3.8,0,0,1,2.7-2.7,5.5,5.5,0,0,0,2.7-2,5.4,5.4,0,0,0,.4-3.3,6.1,6.1,0,0,1,0-2A5.9,5.9,0,0,1,329.5,340.8Zm-1.4-1A7.1,7.1,0,0,0,327,342a7.4,7.4,0,0,0-.1,2.6,2.6,2.6,0,0,1-2.1,3.6,5.4,5.4,0,0,0-3.5,3.5,2.6,2.6,0,0,1-3.6,2.1,7.3,7.3,0,0,0-2.6.1,7.1,7.1,0,0,0-2.2,1.2,2.7,2.7,0,0,1-4.3,0,7.1,7.1,0,0,0-2.2-1.2H304a2.6,2.6,0,0,1-3.6-2.1,5.4,5.4,0,0,0-3.5-3.5,2.6,2.6,0,0,1-2.1-3.6,7.4,7.4,0,0,0-.1-2.6,7.1,7.1,0,0,0-1.2-2.2,2.7,2.7,0,0,1,0-4.3,7.1,7.1,0,0,0,1.2-2.2,7.4,7.4,0,0,0,.1-2.6,2.6,2.6,0,0,1,2.1-3.6,5.4,5.4,0,0,0,3.5-3.5,4.3,4.3,0,0,1,1.3-1.9,4.2,4.2,0,0,1,2.3-.2,7.3,7.3,0,0,0,2.6-.1,7.1,7.1,0,0,0,2.2-1.2,2.7,2.7,0,0,1,4.3,0,7.1,7.1,0,0,0,2.2,1.2,7.3,7.3,0,0,0,2.6.1,4.2,4.2,0,0,1,2.3.2,4.3,4.3,0,0,1,1.3,1.9,5.4,5.4,0,0,0,3.5,3.5,2.6,2.6,0,0,1,2.1,3.6,7.4,7.4,0,0,0,.1,2.6,7.1,7.1,0,0,0,1.2,2.2,2.7,2.7,0,0,1,0,4.3Z" style="fill:#ffebd8"/><path d="M309.1,343l-1.8,1.8-1.2-1.2,1.2-1.2a.8.8,0,0,0-1.2-1.2l-1.2,1.2-1.2-1.2,1.8-1.8a.8.8,0,0,0-1.2-1.2l-2.4,2.4a.8.8,0,0,0,0,1.2l4.7,4.7.6.2.6-.2,2.4-2.4a.8.8,0,0,0-1.2-1.2Z" style="fill:#ffebd8"/><path d="M312.7,337.1a.8.8,0,0,0,0,1.2.8.8,0,0,1,0,1.2.9.9,0,0,1-1.2,0l-2.4-2.4a.8.8,0,0,1,0-1.2.9.9,0,0,1,1.2,0,.8.8,0,0,0,1.2-1.2,2.5,2.5,0,1,0-3.5,3.5l2.4,2.4a2.5,2.5,0,1,0,3.5-3.5A.8.8,0,0,0,312.7,337.1Z" style="fill:#ffebd8"/><path d="M316.2,330a2.5,2.5,0,1,0-3.5,3.5l2.4,2.4a2.5,2.5,0,0,0,3.5-3.5Zm1.2,4.7a.9.9,0,0,1-1.2,0l-2.4-2.4a.8.8,0,0,1,0-1.2l.6-.2.6.2,2.4,2.4A.8.8,0,0,1,317.4,334.7Z" style="fill:#ffebd8"/><path d="M108.7,450.2H104l1.6-3.2,2.7,1.4a.9.9,0,0,0,1.2-1.1l-4.4-10.5a.9.9,0,0,0-.8-.5H93a.9.9,0,0,0-.6,1.5l3.1,3.1-2.9,5.8a3.7,3.7,0,0,0,.2,3.6l.6.8,6.1,8.9a6.1,6.1,0,0,0,5,2.6h4.3a.9.9,0,0,0,.9-.9V451.1A.9.9,0,0,0,108.7,450.2Zm-14.1-.4h-.1l-.4-.5a2,2,0,0,1-.1-1.9l3.2-6.4a.9.9,0,0,0-.2-1l-2-2h8.7l3.2,7.8-1.4-.7a.9.9,0,0,0-1.2.4l-2.4,4.8H95.8A2,2,0,0,1,94.6,449.8Zm13.2,10.9h-3.4a4.4,4.4,0,0,1-3.6-1.9L96.1,452h11.7Z" style="fill:#ffe6ce"/><path d="M133.7,446.6l-4.1-7.3a.9.9,0,0,0-1.2-.3l-7.9,4.4a.9.9,0,0,0-.3,1.2l3.5,5.7h-3.7v-2.6a.9.9,0,0,0-1.6-.5l-7,9.6a.9.9,0,0,0,.1,1.1l7,7.9a.9.9,0,0,0,.7.3h.3a.9.9,0,0,0,.6-.8v-2.6h1.6a6.1,6.1,0,0,0,5-2.6l6.8-9.6A3.7,3.7,0,0,0,133.7,446.6Zm-8.4,12.3a4.4,4.4,0,0,1-3.6,1.9h-2.5a.9.9,0,0,0-.9.9v1.2l-5-5.6,5-6.9v.8a.9.9,0,0,0,.9.9h10.9Zm6.7-9.6-.4.5a2,2,0,0,1-1.2.5h-4.5l-3.6-5.8,6.3-3.5,3.6,6.5A2,2,0,0,1,132.1,449.3Z" style="fill:#ffe6ce"/><path d="M116.2,435l-2.6,1.3a.9.9,0,0,0,.2,1.6l9.6,1.8h.2a.9.9,0,0,0,.8-.5l4.4-10.5a.9.9,0,0,0-1.2-1.1l-2.8,1.4-2-3.1a4.4,4.4,0,0,0-3.6-2H107.8a5.7,5.7,0,0,0-4.8,2.3l-3.8,5a.9.9,0,0,0,.3,1.3l9.6,5.3a.9.9,0,0,0,1.1-.3l3.9-5.5Zm2.9-9.3a2.6,2.6,0,0,1,2.2,1.2l2.5,3.7a.9.9,0,0,0,1.1.3l1.4-.7-3.2,7.7-6.4-1.2,1.2-.6a.9.9,0,0,0,.3-1.3l-5.7-8.3-.7-.8ZM109.4,436l-8.1-4.4,3.1-4.2a3.9,3.9,0,0,1,3.3-1.6,4,4,0,0,1,3.3,1.8l2.1,3.1Z" style="fill:#ffe6ce"/><path d="M147,416.6l-14.4-18.3a1.9,1.9,0,0,0-1.5-.7H93.3a1.9,1.9,0,0,0-1.5.7L77.5,416.6a1.8,1.8,0,0,0-.4,1.2v51.3a1.9,1.9,0,0,0,1.9,1.9h66.6a1.9,1.9,0,0,0,1.9-1.9V417.8A1.7,1.7,0,0,0,147,416.6Zm-5.1-.4H114.1V401.4h16.1ZM94.2,401.4h16.1v14.8H82.6ZM80.8,467.2V420h62.8v47.3Z" style="fill:#ffe6ce"/><circle cx="112.5" cy="416.2" r="81.2" style="fill:none;stroke:#ffe6ce;stroke-miterlimit:10;stroke-width:5px"/><path d="M89.2,350.7H93v.8H90.2v4h2.3v.7H90.2v4.3H93v.7H89.2Z" style="fill:#ffe6ce"/><path d="M94.2,353.7h.9v.8l.8-.7.9-.2a1.2,1.2,0,0,1,1.2,1,2.6,2.6,0,0,1,.9-.7l1-.2a1.2,1.2,0,0,1,.9.4,2,2,0,0,1,.4,1.3v5.9h-.9v-5.9a1.4,1.4,0,0,0-.2-.9.7.7,0,0,0-.6-.2l-.7.2-.7.6v6.2h-.9v-5.9a1.4,1.4,0,0,0-.2-.9.7.7,0,0,0-.6-.2l-.7.2-.7.6v6.2h-.9Z" style="fill:#ffe6ce"/><path d="M103.5,360.6v.6h-.9V350.7h.9v3.6l.6-.5.8-.2a1.3,1.3,0,0,1,1.4.8,5.4,5.4,0,0,1,.4,2.2v1.6a5.5,5.5,0,0,1-.4,2.4,1.4,1.4,0,0,1-1.4.8A1.8,1.8,0,0,1,103.5,360.6Zm2-.6a5.9,5.9,0,0,0,.2-1.8v-1.6a5.3,5.3,0,0,0-.2-1.7.8.8,0,0,0-.8-.5,1.7,1.7,0,0,0-1.2.6V360a1.5,1.5,0,0,0,1.2.5A.8.8,0,0,0,105.5,360Z" style="fill:#ffe6ce"/><path d="M108.2,360.8a1.8,1.8,0,0,1-.4-1.2,2.3,2.3,0,0,1,.3-1.2,2.7,2.7,0,0,1,.9-.9l1.8-.9v-.5a5.4,5.4,0,0,0-.1-1.1,1,1,0,0,0-.3-.6l-.6-.2q-1.1,0-1.1,1.3v.3h-.9a2.6,2.6,0,0,1,.5-1.7,2,2,0,0,1,1.5-.5,1.6,1.6,0,0,1,1.4.6,3.3,3.3,0,0,1,.4,1.9v3.7q0,.4,0,.8c0,.3,0,.5,0,.7H111v-1a1.8,1.8,0,0,1-.6.8,1.5,1.5,0,0,1-1,.3A1.4,1.4,0,0,1,108.2,360.8Zm2.1-.6.5-.6v-2.3l-1.3.7-.6.6a1.5,1.5,0,0,0-.2.8,1.2,1.2,0,0,0,.2.8.8.8,0,0,0,.6.3Z" style="fill:#ffe6ce"/><path d="M113.3,350.7h.9v10.5h-.9Z" style="fill:#ffe6ce"/><path d="M115.9,350.7h.9v10.5h-.9Z" style="fill:#ffe6ce"/><path d="M118.6,360.8a1.8,1.8,0,0,1-.4-1.2,2.3,2.3,0,0,1,.3-1.2,2.7,2.7,0,0,1,.9-.9l1.8-.9v-.5a5.4,5.4,0,0,0-.1-1.1,1,1,0,0,0-.3-.6l-.6-.2q-1.1,0-1.1,1.3v.3h-.9a2.6,2.6,0,0,1,.5-1.7,2,2,0,0,1,1.5-.5,1.6,1.6,0,0,1,1.4.6,3.3,3.3,0,0,1,.4,1.9v3.7q0,.4,0,.8c0,.3,0,.5,0,.7h-.8v-1a1.8,1.8,0,0,1-.6.8,1.5,1.5,0,0,1-1,.3A1.4,1.4,0,0,1,118.6,360.8Zm2.1-.6.5-.6v-2.3l-1.3.7-.6.6a1.5,1.5,0,0,0-.2.8,1.2,1.2,0,0,0,.2.8.8.8,0,0,0,.6.3Z" style="fill:#ffe6ce"/><path d="M123.7,363.3a1.1,1.1,0,0,1-.6-1,1.4,1.4,0,0,1,.4-.9l.9-.7q-.8-.2-.8-.8a1.1,1.1,0,0,1,.2-.7l.7-.7a2.1,2.1,0,0,1-.7-.9,3.6,3.6,0,0,1-.2-1.4,3.2,3.2,0,0,1,.5-1.9,1.8,1.8,0,0,1,1.6-.7,1.7,1.7,0,0,1,1.6.9l.4-.5.6-.4h.2l.3.7-.7.3-.5.4.2.6a3.9,3.9,0,0,1,.1.7,3.3,3.3,0,0,1-.5,1.9,1.8,1.8,0,0,1-1.6.7h-.8a1.4,1.4,0,0,0-.5.9.3.3,0,0,0,.1.3h.5l1.2.2a2.7,2.7,0,0,1,1.4.6,1.5,1.5,0,0,1,.5,1.2,1.5,1.5,0,0,1-.7,1.3,3.3,3.3,0,0,1-1.8.4A3.8,3.8,0,0,1,123.7,363.3Zm3.1-.7a.8.8,0,0,0,.4-.7.8.8,0,0,0-.3-.7l-1.1-.4h-1l-.7.6a1,1,0,0,0-.3.7.7.7,0,0,0,.4.6l1.2.2Zm-.2-5.1a3.5,3.5,0,0,0,.2-1.4q0-2-1.2-2a1,1,0,0,0-1,.6,3.2,3.2,0,0,0-.3,1.4q0,2,1.3,2A1,1,0,0,0,126.5,357.6Z" style="fill:#ffe6ce"/><path d="M129.8,361a1.7,1.7,0,0,1-.7-.9,5.8,5.8,0,0,1-.2-1.7v-1.9a5.6,5.6,0,0,1,.2-1.7,1.6,1.6,0,0,1,.7-.9,2.2,2.2,0,0,1,1.2-.3,1.9,1.9,0,0,1,1.2.3,1.7,1.7,0,0,1,.6,1,7.8,7.8,0,0,1,.2,1.8v.7h-3v1.3a3.3,3.3,0,0,0,.2,1.5.9.9,0,0,0,.8.4.9.9,0,0,0,.8-.3,1.8,1.8,0,0,0,.3-1.1v-.5h.9v.4a2.7,2.7,0,0,1-.5,1.7,1.8,1.8,0,0,1-1.5.6A2.1,2.1,0,0,1,129.8,361Zm2.2-4.2v-.6a6.2,6.2,0,0,0-.1-1.1,1.1,1.1,0,0,0-.3-.6l-.7-.2-.6.2a1,1,0,0,0-.3.6,5.6,5.6,0,0,0-.1,1.2v.5Z" style="fill:#ffe6ce"/><path d="M76.6,387.6l5.3-8.1.2-.3V379a20.5,20.5,0,0,0,1.5-2.6,6.1,6.1,0,0,0,.5-2.5,4.1,4.1,0,0,0-.7-2.5,2.3,2.3,0,0,0-2-.9,2.5,2.5,0,0,0-2.4,1.1,5.8,5.8,0,0,0-.7,3v.4H76.8v-.5a6.5,6.5,0,0,1,1.1-4.2,4.4,4.4,0,0,1,3.6-1.4,4.2,4.2,0,0,1,3.3,1.3A5.4,5.4,0,0,1,86,374a7,7,0,0,1-.3,2.1,9.2,9.2,0,0,1-.8,1.8l-1.3,2-4.9,7.4h6.8v1.5H76.6Z" style="fill:#ffe6ce"/><path d="M88,372.6h1v.8l.9-.7,1.1-.3a1.1,1.1,0,0,1,.9.5,2.2,2.2,0,0,1,.3,1.3v6.6h-1v-6.3a1.6,1.6,0,0,0-.2-.9.7.7,0,0,0-.6-.3l-.7.2-.7.6v6.7H88Z" style="fill:#ffe6ce"/><path d="M94.1,380.1a5.5,5.5,0,0,1-.5-2.6V376a6.4,6.4,0,0,1,.4-2.6,1.5,1.5,0,0,1,1.5-.9,1.9,1.9,0,0,1,1.4.7v-3.9h1v11.5H97v-.6a1.9,1.9,0,0,1-1.4.7A1.6,1.6,0,0,1,94.1,380.1Zm2.9-.6v-5.7a1.9,1.9,0,0,0-1.2-.6.9.9,0,0,0-.9.6,5,5,0,0,0-.2,1.8v1.9a5.7,5.7,0,0,0,.2,1.9.9.9,0,0,0,.9.6A1.8,1.8,0,0,0,97,379.6Z" style="fill:#ffe6ce"/><path d="M100.4,380.6a1.8,1.8,0,0,1-.7-1,6.3,6.3,0,0,1-.2-1.9v-2.1a6.1,6.1,0,0,1,.2-1.9,1.8,1.8,0,0,1,.7-1,2.4,2.4,0,0,1,1.3-.3,2.1,2.1,0,0,1,1.3.4,1.9,1.9,0,0,1,.6,1.1,8.5,8.5,0,0,1,.2,1.9v.7h-3.3V378a3.5,3.5,0,0,0,.3,1.6,1,1,0,0,0,.9.5,1,1,0,0,0,.8-.3,1.9,1.9,0,0,0,.3-1.2V378h1v.5a2.9,2.9,0,0,1-.5,1.8,1.9,1.9,0,0,1-1.6.6A2.3,2.3,0,0,1,100.4,380.6Zm2.4-4.6v-.7a6.8,6.8,0,0,0-.1-1.2,1.2,1.2,0,0,0-.3-.7,1,1,0,0,0-.7-.2l-.7.2a1.1,1.1,0,0,0-.4.7,6.1,6.1,0,0,0-.1,1.3v.6Z" style="fill:#ffe6ce"/><path d="M110.8,374.8h1.7v1.4a4.7,4.7,0,0,1,1.5-1.2,3.9,3.9,0,0,1,1.8-.4,2.2,2.2,0,0,1,2.2,1.8,4.9,4.9,0,0,1,1.6-1.4,4,4,0,0,1,1.9-.5,2.2,2.2,0,0,1,1.7.8,3.7,3.7,0,0,1,.7,2.5v11.1h-1.7v-11a2.6,2.6,0,0,0-.4-1.6,1.3,1.3,0,0,0-1-.4,2.8,2.8,0,0,0-1.3.4,5,5,0,0,0-1.3,1.1,4.1,4.1,0,0,1,0,.5v11.1h-1.7v-11a2.6,2.6,0,0,0-.4-1.6,1.3,1.3,0,0,0-1-.4,2.6,2.6,0,0,0-1.3.4,5.9,5.9,0,0,0-1.3,1v11.6h-1.7Z" style="fill:#ffe6ce"/><path d="M126.8,388.2a3.3,3.3,0,0,1-.8-2.2,4.3,4.3,0,0,1,.5-2.3,5,5,0,0,1,1.7-1.6l3.4-1.7v-1a10.2,10.2,0,0,0-.2-2,1.8,1.8,0,0,0-.5-1,1.6,1.6,0,0,0-1.1-.3q-2,0-2,2.4v.5h-1.7a4.8,4.8,0,0,1,.9-3.2,3.7,3.7,0,0,1,2.9-1,3,3,0,0,1,2.6,1.1,6.2,6.2,0,0,1,.8,3.5v6.8q0,.7,0,1.6t.1,1.2H132l-.3-1.9a3.3,3.3,0,0,1-1.1,1.5,2.8,2.8,0,0,1-1.8.6A2.6,2.6,0,0,1,126.8,388.2Zm3.9-1.1a4,4,0,0,0,1-1.2v-4.4l-2.4,1.4a3.7,3.7,0,0,0-1.1,1.1,2.8,2.8,0,0,0-.4,1.5,2.3,2.3,0,0,0,.4,1.6,1.5,1.5,0,0,0,1.2.5A2,2,0,0,0,130.7,387.1Z" style="fill:#ffe6ce"/><path d="M136.2,370.5H138v2.4h-1.8Zm0,4.3H138v14h-1.8Z" style="fill:#ffe6ce"/><path d="M141,374.8h1.8v1.5a5.6,5.6,0,0,1,1.6-1.2,3.9,3.9,0,0,1,1.8-.4,1.9,1.9,0,0,1,1.6.8,3.7,3.7,0,0,1,.6,2.2v11.3h-1.8V378a2.7,2.7,0,0,0-.3-1.5,1.2,1.2,0,0,0-1-.5,2.5,2.5,0,0,0-1.2.4l-1.2,1v11.6H141Z" style="fill:#ffe6ce"/><circle cx="132.7" cy="132.7" r="132.7" style="fill:#00ab9c"/><path d="M48.8,73.8H59.7V76h-8V87.4h6.7v2.1H51.6v14.7H48.8Z" style="fill:#ffe6ce"/><path d="M62.8,82.5h2.8v3a6.8,6.8,0,0,1,2.3-2.4,5.2,5.2,0,0,1,2.7-.8h.5v2.9L69.7,85a4.7,4.7,0,0,0-4.1,2.5v16.6H62.8Z" style="fill:#ffe6ce"/><path d="M74.3,103.1a5.1,5.1,0,0,1-1.2-3.4,6.7,6.7,0,0,1,.8-3.5,7.7,7.7,0,0,1,2.6-2.5A47.8,47.8,0,0,1,81.8,91V89.5a15.7,15.7,0,0,0-.2-3.1,2.8,2.8,0,0,0-.8-1.6,2.5,2.5,0,0,0-1.6-.5q-3,0-3,3.7v.7H73.4a7.4,7.4,0,0,1,1.4-4.9,5.7,5.7,0,0,1,4.5-1.6,4.6,4.6,0,0,1,4.1,1.7q1.2,1.7,1.2,5.4V99.9q0,1,.1,2.4t.1,1.9H82.3l-.4-3a5.1,5.1,0,0,1-1.7,2.4,4.3,4.3,0,0,1-2.8,1A4,4,0,0,1,74.3,103.1Zm6-1.7a6.1,6.1,0,0,0,1.5-1.8V92.9L78.1,95a5.7,5.7,0,0,0-1.7,1.7,4.4,4.4,0,0,0-.6,2.4,3.5,3.5,0,0,0,.7,2.4,2.3,2.3,0,0,0,1.8.8A3.1,3.1,0,0,0,80.3,101.4Z" style="fill:#ffe6ce"/><path d="M88.8,75.8h2.7v3.7H88.8Zm0,6.7h2.7v21.6H88.8Z" style="fill:#ffe6ce"/><path d="M97,102.8a7.1,7.1,0,0,1-1.8-4.5l2.3-.7a6.8,6.8,0,0,0,1.2,3.6,3.2,3.2,0,0,0,2.6,1.2,2.9,2.9,0,0,0,2.2-.8,3.2,3.2,0,0,0,.8-2.3q0-2.1-2.6-4.3l-3-2.5A9.6,9.6,0,0,1,96.4,90a5.8,5.8,0,0,1-.7-2.9,4.6,4.6,0,0,1,1.4-3.6,5.3,5.3,0,0,1,3.8-1.3,4.6,4.6,0,0,1,3.7,1.5,6.9,6.9,0,0,1,1.4,4.2l-1.9.6q-.2-4.3-3.1-4.3a2.9,2.9,0,0,0-2,.7,2.5,2.5,0,0,0-.7,1.9,3.9,3.9,0,0,0,.4,1.8,5.9,5.9,0,0,0,1.4,1.6L103,93a16.3,16.3,0,0,1,2.7,2.9,5.9,5.9,0,0,1,.9,3.3,4.9,4.9,0,0,1-1.5,3.8,5.8,5.8,0,0,1-4,1.4A5.4,5.4,0,0,1,97,102.8Z" style="fill:#ffe6ce"/><path d="M118.2,102.4q-1.2-2.1-1.2-7v-4a17,17,0,0,1,1.1-6.9,4,4,0,0,1,4-2.3,5.1,5.1,0,0,1,3.8,1.9V73.8h2.7v30.3h-2.7v-1.5a5,5,0,0,1-3.7,1.9A4.2,4.2,0,0,1,118.2,102.4Zm7.7-1.5v-15a5,5,0,0,0-3.2-1.5,2.3,2.3,0,0,0-2.3,1.5,13.2,13.2,0,0,0-.6,4.8v5.1a15.1,15.1,0,0,0,.6,5.1,2.4,2.4,0,0,0,2.4,1.6A4.7,4.7,0,0,0,125.9,100.9Z" style="fill:#ffe6ce"/><path d="M134.9,103.7A4.8,4.8,0,0,1,133,101a16.6,16.6,0,0,1-.6-5V90.6a16.1,16.1,0,0,1,.6-5,4.6,4.6,0,0,1,1.9-2.6,6.4,6.4,0,0,1,3.3-.8,5.5,5.5,0,0,1,3.5,1,5,5,0,0,1,1.7,2.9,22.4,22.4,0,0,1,.5,5.1v1.9h-8.8v3.8a9.4,9.4,0,0,0,.7,4.3,2.5,2.5,0,0,0,2.4,1.2,2.7,2.7,0,0,0,2.2-.9,5.1,5.1,0,0,0,.8-3.3V96.8h2.7V98a7.7,7.7,0,0,1-1.3,4.8,5.1,5.1,0,0,1-4.3,1.7A6.1,6.1,0,0,1,134.9,103.7Zm6.3-12.2V89.7a17.9,17.9,0,0,0-.2-3.1,3.2,3.2,0,0,0-.8-1.8,2.6,2.6,0,0,0-1.9-.6,2.5,2.5,0,0,0-2.8,2.3,16,16,0,0,0-.3,3.5v1.5Z" style="fill:#ffe6ce"/><path d="M155.8,73.8h7.3q3.9,0,5.5,2.1a9.4,9.4,0,0,1,1.7,6,9,9,0,0,1-1.7,5.7q-1.7,2.2-5.4,2.2h-4.5v14.3h-2.8Zm6.5,13.8q2.8,0,4-1.3t1.2-4.5a11.2,11.2,0,0,0-.4-3.6,3,3,0,0,0-1.5-1.8,7.4,7.4,0,0,0-3.1-.5h-3.7V87.7Z" style="fill:#ffe6ce"/><path d="M173.9,102.5q-1.3-2-1.3-6.2v-6q0-4.2,1.3-6.2t4.5-2q3.3,0,4.5,2t1.3,6.2v6q0,4.2-1.3,6.2t-4.5,2Q175.2,104.5,173.9,102.5Zm6.5-.8a3.6,3.6,0,0,0,.8-1.9,22.9,22.9,0,0,0,.2-3.3V90.2a23,23,0,0,0-.2-3.3,3.6,3.6,0,0,0-.8-1.9,2.6,2.6,0,0,0-2-.7,2.5,2.5,0,0,0-2,.7,3.6,3.6,0,0,0-.8,1.9,22.8,22.8,0,0,0-.2,3.3v6.3a22.8,22.8,0,0,0,.2,3.3,3.6,3.6,0,0,0,.8,1.9,2.5,2.5,0,0,0,2,.7A2.6,2.6,0,0,0,180.4,101.7Z" style="fill:#ffe6ce"/><path d="M188.2,82.5h2.8v3a6.8,6.8,0,0,1,2.3-2.4,5.2,5.2,0,0,1,2.7-.8h.5v2.9l-1.3-.2a4.7,4.7,0,0,0-4.1,2.5v16.6h-2.8Z" style="fill:#ffe6ce"/><path d="M201.2,103.2a6.2,6.2,0,0,1-.8-3.5V84.3h-2.7V82.5h2.7V75.8h2.7v6.7h3.6v1.8h-3.6V99.4a4.8,4.8,0,0,0,.4,2.3,1.7,1.7,0,0,0,1.5.6l1.6-.2v2.1l-2.3.2A3.5,3.5,0,0,1,201.2,103.2Z" style="fill:#ffe6ce"/><path d="M210.4,102.8a7.1,7.1,0,0,1-1.8-4.5l2.3-.7a6.8,6.8,0,0,0,1.2,3.6,3.2,3.2,0,0,0,2.6,1.2,2.9,2.9,0,0,0,2.2-.8,3.2,3.2,0,0,0,.8-2.3q0-2.1-2.6-4.3l-3-2.5a9.6,9.6,0,0,1-2.2-2.5,5.8,5.8,0,0,1-.7-2.9,4.6,4.6,0,0,1,1.4-3.6,5.3,5.3,0,0,1,3.8-1.3,4.6,4.6,0,0,1,3.7,1.5,6.9,6.9,0,0,1,1.4,4.2l-1.9.6q-.2-4.3-3.1-4.3a2.9,2.9,0,0,0-2,.7,2.5,2.5,0,0,0-.7,1.9,3.9,3.9,0,0,0,.4,1.8,5.9,5.9,0,0,0,1.4,1.6l3.1,2.7a16.3,16.3,0,0,1,2.7,2.9,5.9,5.9,0,0,1,.9,3.3,4.9,4.9,0,0,1-1.5,3.8,5.8,5.8,0,0,1-4,1.4A5.4,5.4,0,0,1,210.4,102.8Z" style="fill:#ffe6ce"/><path d="M106.2,167.2q-2.5-2.9-2.5-8.2v-1.1h4v1a10.5,10.5,0,0,0,1.5,5.9q1.4,2,4.7,2a5.8,5.8,0,0,0,5-2.3q1.7-2.3,1.7-7.4,0-9.5-6.8-9.7h-1.1v-4h1.1q3.7,0,5.3-2t1.6-6.7a10.7,10.7,0,0,0-1.4-6q-1.4-2.1-4.8-2.1t-5,1.9q-1.6,1.9-1.6,6.1v.8h-4v-1.1q0-11,10.6-11,5.3,0,7.9,3.1t2.6,8.3A13.1,13.1,0,0,1,123,142a7.8,7.8,0,0,1-4.8,3.4,7.9,7.9,0,0,1,4.7,3.6q1.9,2.9,1.9,8t-2.7,9.6q-2.7,3.5-8.3,3.5T106.2,167.2Z" style="fill:#ffe6ce"/><path d="M144.8,166.3q-2.6-3.8-2.6-10.5v-3.6h-3.6v-2.4h3.6v-7.4h-3.6v-2.4h3.6v-2.5q0-6.9,2.6-10.6t9-3.7q5.9,0,8.4,3.3t2.5,9.7v2.1h-4.1v-2a23,23,0,0,0-.5-5.3,5.6,5.6,0,0,0-2-3.2,6.9,6.9,0,0,0-4.2-1.1,7.3,7.3,0,0,0-4.6,1.2,6.2,6.2,0,0,0-2.1,3.4,22.7,22.7,0,0,0-.6,5.6v3.1h7.2v2.4h-7.2v7.4h7.2v2.4h-7.2v4.3q0,5.3,1.6,7.7t5.7,2.4q4,0,5.4-2.5t1.4-7.5v-2.3h4.1v2q0,6.6-2.4,10.1t-8.4,3.6Q147.4,170.1,144.8,166.3Z" style="fill:#ffe6ce"/><path d="M77.6,183.6h1.9v1.3a3.6,3.6,0,0,1,3-1.5,2.7,2.7,0,0,1,2.8,1.7,11.2,11.2,0,0,1,.7,4.5v3.2a11.2,11.2,0,0,1-.8,4.8,2.9,2.9,0,0,1-2.9,1.7,3.7,3.7,0,0,1-2.7-1.5V204H77.6Zm6,12.9a12.1,12.1,0,0,0,.4-3.8v-3.3a10.8,10.8,0,0,0-.4-3.5,1.6,1.6,0,0,0-1.7-1.1,3.4,3.4,0,0,0-2.4,1.2v10.5a3.3,3.3,0,0,0,2.4,1.1A1.6,1.6,0,0,0,83.7,196.5Z" style="fill:#ffe6ce"/><path d="M89.2,198.2a3.6,3.6,0,0,1-.9-2.4,4.7,4.7,0,0,1,.6-2.5,5.4,5.4,0,0,1,1.8-1.8l3.8-1.9v-1.1a11.2,11.2,0,0,0-.2-2.2,2,2,0,0,0-.6-1.1,1.8,1.8,0,0,0-1.2-.3q-2.2,0-2.2,2.6v.5H88.5a5.3,5.3,0,0,1,1-3.5,4,4,0,0,1,3.2-1.1,3.3,3.3,0,0,1,2.9,1.2,6.8,6.8,0,0,1,.9,3.9v7.5q0,.7,0,1.7t.1,1.4H94.9l-.3-2.1a3.7,3.7,0,0,1-1.2,1.7,3.1,3.1,0,0,1-2,.7A2.8,2.8,0,0,1,89.2,198.2Zm4.3-1.2a4.3,4.3,0,0,0,1.1-1.3v-4.8l-2.6,1.5a4,4,0,0,0-1.2,1.2,3.1,3.1,0,0,0-.4,1.7,2.5,2.5,0,0,0,.5,1.7,1.6,1.6,0,0,0,1.3.6A2.2,2.2,0,0,0,93.5,197Z" style="fill:#ffe6ce"/><path d="M99.4,183.6h2v2.1A4.8,4.8,0,0,1,103,184a3.7,3.7,0,0,1,1.9-.6h.3v2.1l-1-.2a3.3,3.3,0,0,0-2.9,1.8V199h-2Z" style="fill:#ffe6ce"/><path d="M113.2,197.7a10.4,10.4,0,0,1-.9-5v-2.8a12.1,12.1,0,0,1,.8-4.9,2.9,2.9,0,0,1,2.8-1.7,3.6,3.6,0,0,1,2.7,1.3v-7.3h1.9V199h-1.9v-1.1a3.6,3.6,0,0,1-2.6,1.3A3,3,0,0,1,113.2,197.7Zm5.5-1.1V186a3.6,3.6,0,0,0-2.3-1.1,1.6,1.6,0,0,0-1.7,1,9.4,9.4,0,0,0-.4,3.4v3.6a10.8,10.8,0,0,0,.4,3.6,1.7,1.7,0,0,0,1.7,1.1A3.4,3.4,0,0,0,118.7,196.7Z" style="fill:#ffe6ce"/><path d="M123.8,178.8h1.9v2.6h-1.9Zm0,4.8h1.9V199h-1.9Z" style="fill:#ffe6ce"/><path d="M130,185h-2v-1.4h2V182a9.3,9.3,0,0,1,.2-2.1,2.3,2.3,0,0,1,.8-1.3,2.9,2.9,0,0,1,1.8-.5l1.6.2v1.4h-1.1a1.1,1.1,0,0,0-1.1.5,4.2,4.2,0,0,0-.3,1.7v1.8h2.5V185H132v14h-2Zm6.3,0h-2v-1.4h2V182a9.3,9.3,0,0,1,.2-2.1,2.3,2.3,0,0,1,.8-1.3,2.9,2.9,0,0,1,1.8-.5l1.6.2v1.4h-1.1a1.1,1.1,0,0,0-1.1.5,4.2,4.2,0,0,0-.3,1.7v1.8h2.5V185h-2.5v14h-2Z" style="fill:#ffe6ce"/><path d="M143,198.4a4.1,4.1,0,0,1-.6-2.4V183.6h2v11.9a2.9,2.9,0,0,0,.4,1.7,1.3,1.3,0,0,0,1.1.5,2.7,2.7,0,0,0,1.4-.4,5.9,5.9,0,0,0,1.3-1.1V183.6h1.9V199h-1.9v-1.7a6.1,6.1,0,0,1-1.7,1.4,4.2,4.2,0,0,1-2,.5A2.1,2.1,0,0,1,143,198.4Z" style="fill:#ffe6ce"/><path d="M154.1,198a5.1,5.1,0,0,1-1.3-3.2l1.6-.5a4.8,4.8,0,0,0,.8,2.6,2.3,2.3,0,0,0,1.9.8,2,2,0,0,0,1.6-.6,2.2,2.2,0,0,0,.5-1.6,4.3,4.3,0,0,0-1.9-3.1l-2.1-1.8a6.8,6.8,0,0,1-1.6-1.8,4.1,4.1,0,0,1-.5-2.1,3.3,3.3,0,0,1,1-2.5,3.8,3.8,0,0,1,2.7-.9,3.2,3.2,0,0,1,2.6,1.1,4.9,4.9,0,0,1,1,3l-1.4.5q-.2-3-2.2-3a2,2,0,0,0-1.4.5,1.8,1.8,0,0,0-.5,1.4,2.8,2.8,0,0,0,.3,1.3,4.2,4.2,0,0,0,1,1.2l2.2,1.9a11.6,11.6,0,0,1,1.9,2.1,4.2,4.2,0,0,1,.7,2.4,3.5,3.5,0,0,1-1.1,2.7,4.1,4.1,0,0,1-2.9,1A3.8,3.8,0,0,1,154.1,198Z" style="fill:#ffe6ce"/><path d="M164.6,198.6a3.4,3.4,0,0,1-1.3-1.9,11.8,11.8,0,0,1-.4-3.5v-3.9a11.4,11.4,0,0,1,.4-3.6,3.3,3.3,0,0,1,1.4-1.8,4.5,4.5,0,0,1,2.4-.6,3.9,3.9,0,0,1,2.5.7,3.6,3.6,0,0,1,1.2,2,15.9,15.9,0,0,1,.3,3.6v1.4h-6.2v2.7a6.7,6.7,0,0,0,.5,3.1,1.8,1.8,0,0,0,1.7.9,1.9,1.9,0,0,0,1.6-.6,3.7,3.7,0,0,0,.5-2.3v-1.1H171v.9a5.5,5.5,0,0,1-.9,3.4,3.6,3.6,0,0,1-3.1,1.2A4.4,4.4,0,0,1,164.6,198.6Zm4.5-8.7v-1.3a12.8,12.8,0,0,0-.1-2.2,2.3,2.3,0,0,0-.6-1.3,1.8,1.8,0,0,0-1.4-.5,1.8,1.8,0,0,0-2,1.6,11.4,11.4,0,0,0-.2,2.5v1Z" style="fill:#ffe6ce"/><path d="M174.1,198.4a4.1,4.1,0,0,1-.6-2.4V183.6h2v11.9a2.9,2.9,0,0,0,.4,1.7,1.3,1.3,0,0,0,1.1.5,2.7,2.7,0,0,0,1.4-.4,5.9,5.9,0,0,0,1.3-1.1V183.6h1.9V199h-1.9v-1.7a6.1,6.1,0,0,1-1.7,1.4,4.2,4.2,0,0,1-2,.5A2.1,2.1,0,0,1,174.1,198.4Z" style="fill:#ffe6ce"/><path d="M184.7,183.6h2v2.1a4.8,4.8,0,0,1,1.6-1.7,3.7,3.7,0,0,1,1.9-.6h.3v2.1l-1-.2a3.3,3.3,0,0,0-2.9,1.8V199h-2Z" style="fill:#ffe6ce"/><path d="M425.2,113.1H400.8v-5.5a6.9,6.9,0,1,1,13.8,0,1.8,1.8,0,0,0,1.8,1.8h6.3a1.8,1.8,0,0,0,1.8-1.8,16.8,16.8,0,1,0-33.5,0v5.5h-.8a5.4,5.4,0,0,0-5.3,5.4v23.9a5.4,5.4,0,0,0,5.3,5.4h35.1a5.4,5.4,0,0,0,5.3-5.4V118.6A5.4,5.4,0,0,0,425.2,113.1Zm-30.7-5.5a13.2,13.2,0,0,1,26.2-1.8H418a10.5,10.5,0,0,0-20.8,1.8v5.5h-2.7Zm32.4,34.8a1.8,1.8,0,0,1-1.7,1.8H390.1a1.8,1.8,0,0,1-1.7-1.8V118.6a1.8,1.8,0,0,1,1.7-1.8h35.1a1.8,1.8,0,0,1,1.7,1.8v23.9Z" style="fill:#ffebd8"/><path d="M413,126.8a5.3,5.3,0,1,0-8.9,3.9l-1.3,5.7a1.8,1.8,0,0,0,0,.4c0,1.6,1.5,2.7,3.5,2.7h2.8c2,0,3.5-1.2,3.5-2.7a1.8,1.8,0,0,0,0-.4l-1.3-5.7A5.3,5.3,0,0,0,413,126.8Zm-6.4,9.1,1.1-5,1.1,5Zm1.9-7.6a.8.8,0,1,1-1.6,0,1.7,1.7,0,1,1,1.6,0Z" style="fill:#ffebd8"/><circle cx="407.7" cy="90.3" r="81.2" style="fill:none;stroke:#ffe6ce;stroke-miterlimit:10;stroke-width:5px"/></svg>