<?xml version="1.0" encoding="utf-8"?>
<!-- Generator: Adobe Illustrator 22.1.0, SVG Export Plug-In . SVG Version: 6.00 Build 0)  -->
<svg version="1.1" id="Layer_1" xmlns="http://www.w3.org/2000/svg" xmlns:xlink="http://www.w3.org/1999/xlink" x="0px" y="0px"
	 viewBox="0 0 699.7 384.8" style="enable-background:new 0 0 699.7 384.8;" xml:space="preserve">
<style type="text/css">
	.st0{display:none;fill:#1A1A1A;stroke:#FFFFFF;stroke-miterlimit:10;}
	.st1{fill:none;stroke:#00AB9C;stroke-width:8;stroke-linecap:round;stroke-miterlimit:10;}
	.st2{fill:none;stroke:#FCCD4C;stroke-width:8;stroke-linecap:round;stroke-miterlimit:10;}
	.st3{fill:none;stroke:#FCF3E9;stroke-width:8;stroke-linecap:round;stroke-miterlimit:10;}
	.st4{fill:#FCF3E9;}
	.st5{fill:#00AB9C;}
	.st6{display:none;}
	.st7{display:inline;fill:#FCF3E9;}
</style>
<rect x="-22.2" y="-8.3" class="st0" width="756.3" height="431.5"/>
<title>hp</title>
<path class="st1" d="M569.8,230c0,0-17.4,37.8-47.1,26.8c-10.3-3.9-64.2-54.4-85-54.9c-47.1-1.2-23.3,127.5-100.7,122.4"/>
<path class="st2" d="M569.8,201.9c0,0-49.1,109.4-116.4,105.6c-53.7-3-110.9-105.6-110.9-105.6"/>
<path class="st3" d="M577,222.9c0,0-11.3-41.7-56-46.3c-44.7-4.6-67.1,113-125.3,25.3c-57.1-86-124.1-77.5-124.1-77.5"/>
<path class="st2" d="M569.8,192.4c0,0-18.8-61.8-91.5-57.2s-93.3,130-239.6,132.9"/>
<path class="st1" d="M567.5,178.3c0,0-22.2,3.7-42.7,8.1c-86.2,18.9-91.1-122-180.1-124.4"/>
<path class="st4" d="M647.1,191.9l-73.3-33.1c-4.8,0.1-8.7,4-8.7,8.8l0.5,82.2c0.1,4.8,4,8.7,8.8,8.7l73.6-33.3
	c4.8-0.1,8.7-4,8.7-8.8l-0.8-15.8C655.9,195.8,652,191.9,647.1,191.9z"/>
<path class="st5" d="M652.3,185.1l35.2-0.2c6.6,0,12,5.3,12.1,11.9l0.1,22.2c0,6.6-5.3,12-11.9,12.1l-35.2,0.2
	c-6.6,0-12-5.3-12.1-11.9l-0.1-22.2C640.3,190.5,645.7,185.1,652.3,185.1z"/>
<polygon class="st5" points="584.8,164.1 579.8,161.9 580.3,255.8 585.3,253.6 "/>
<g class="st6">
	<path class="st7" d="M161.3,302.2l0,5.3h-0.6l-12.1-17.8h-0.1l0,11.9v6h-0.6v-5.7l0-13.4h0.6l12.1,17.8h0.1l0.1-17.8l0.6-0.1
		L161.3,302.2z"/>
	<path class="st7" d="M175.7,307l-0.1,0.5h-7.7v-14.7h7.7l0.1,0.1l-0.1,0.5l-7,0v6.2h5.9l0.1,0.1l-0.1,0.5h-5.8v6.8L175.7,307
		L175.7,307z"/>
	<path class="st7" d="M192.9,307.5h-0.6l-3.8-9.9h-0.1l-4.1,9.9h-0.6l-5.6-14.7h0.7l0.3,1l4.9,12.8h0.1l4.1-10l-1.5-3.8h0.7l0.3,1.1
		l4.9,12.7h0.1l5.3-12.8l0.4-1h0.7L192.9,307.5z"/>
	<path class="st7" d="M209.6,293.3l-0.1,0.5l-0.2,0c-0.9-0.4-1.8-0.7-2.8-0.7c-0.8,0-1.5,0.2-2,0.5c-0.6,0.3-1,0.7-1.3,1.2
		s-0.5,1-0.5,1.5c0,0.5,0.2,1,0.5,1.3c0.3,0.4,0.7,0.7,1.1,1c0.4,0.3,1.1,0.6,1.9,0.9c0.9,0.4,1.6,0.7,2.1,1.1
		c0.5,0.3,1,0.7,1.3,1.2s0.6,1.1,0.6,1.8c0,0.7-0.2,1.3-0.6,1.9c-0.4,0.6-0.9,1.1-1.6,1.4s-1.5,0.5-2.4,0.5c-0.6,0-1.3-0.1-2-0.3
		c-0.7-0.2-1.3-0.5-1.8-0.8l0-0.6l0.1,0c0.5,0.4,1.1,0.6,1.7,0.8c0.6,0.2,1.3,0.3,1.9,0.3c0.8,0,1.5-0.2,2.1-0.5
		c0.6-0.3,1.1-0.7,1.4-1.2c0.3-0.5,0.5-1,0.5-1.6c0-0.6-0.2-1-0.5-1.5c-0.3-0.4-0.7-0.8-1.2-1c-0.5-0.3-1.1-0.6-1.9-1
		c-0.9-0.4-1.5-0.8-2-1s-0.9-0.7-1.3-1.2c-0.4-0.5-0.5-1-0.5-1.7c0-0.7,0.2-1.3,0.6-1.8c0.4-0.6,0.9-1,1.6-1.3s1.5-0.5,2.3-0.5
		C207.6,292.7,208.6,292.9,209.6,293.3z"/>
	<path class="st7" d="M222.2,307l-0.1,0.5h-7v-14.7h0.6v14.2L222.2,307L222.2,307z"/>
	<path class="st7" d="M234,307l-0.1,0.5h-7.7v-14.7h7.7l0.1,0.1l-0.1,0.5l-7,0v6.2h5.9l0.1,0.1l-0.1,0.5h-5.8v6.8L234,307L234,307z"
		/>
	<path class="st7" d="M246.9,292.9l-0.1,0.5l-2.5,0H242v14.2h-0.6v-14.2h-2.2l-2.6,0l-0.1-0.1l0.1-0.5h10.2L246.9,292.9z"/>
	<path class="st7" d="M259.7,292.9l-0.1,0.5l-2.5,0h-2.3v14.2h-0.6v-14.2h-2.2l-2.6,0l-0.1-0.1l0.1-0.5h10.2L259.7,292.9z"/>
	<path class="st7" d="M272.1,307l-0.1,0.5h-7.7v-14.7h7.7l0.1,0.1l-0.1,0.5l-7,0v6.2h5.9l0.1,0.1l-0.1,0.5h-5.8v6.8L272.1,307
		L272.1,307z"/>
	<path class="st7" d="M285.5,307.3v0.1l-0.4,0.2l-0.2-0.1c-1.7-2.1-3.2-4.1-4.4-6.1h-3.3v6h-0.6v-14.7l3.6,0c1.4,0,2.6,0.4,3.3,1
		c0.8,0.7,1.2,1.7,1.2,3c0,1.1-0.3,2.1-0.9,2.9s-1.5,1.4-2.6,1.7C282.3,303.3,283.8,305.3,285.5,307.3z M277.2,300.9l3.5,0
		c1.1-0.3,1.9-0.7,2.5-1.5s0.9-1.6,0.9-2.7c0-1.1-0.3-2-1-2.5c-0.6-0.6-1.6-0.9-2.8-1l-3.1,0V300.9z"/>
</g>
<g class="st6">
	<path class="st7" d="M150.3,252.9h6.8l0.1,0.1l-0.1,0.5h-6.8v9.3h-0.6v-19.1h8.9l0.1,0.1l-0.1,0.5h-8.3V252.9z"/>
	<path class="st7" d="M171.6,249.8c1.1,1.3,1.7,3,1.7,5.4c0,2.5-0.6,4.4-1.7,5.7c-1.2,1.3-2.8,2-5,2c-2.1,0-3.6-0.6-4.8-1.9
		c-1.1-1.3-1.7-3.1-1.7-5.5c0-2.4,0.6-4.3,1.7-5.6c1.2-1.3,2.8-2,5-2C168.9,247.9,170.5,248.6,171.6,249.8z M162.4,250.3
		c-1,1.2-1.5,2.9-1.5,5.1c0,2.2,0.5,4,1.5,5.1c1,1.2,2.4,1.8,4.3,1.8c2,0,3.5-0.6,4.5-1.8s1.6-3,1.6-5.3c0-2.2-0.5-3.8-1.5-5
		c-1-1.1-2.5-1.7-4.3-1.7C164.9,248.5,163.4,249.1,162.4,250.3z"/>
	<path class="st7" d="M187.2,262.6v0.1l-0.4,0.2l-0.2-0.1c-1.7-2.1-3.2-4.1-4.4-6.1h-3.3v6h-0.6v-14.7l3.6,0c1.4,0,2.6,0.3,3.3,1
		c0.8,0.7,1.2,1.7,1.2,3c0,1.1-0.3,2.1-0.9,2.9c-0.6,0.8-1.5,1.4-2.6,1.7C184,258.6,185.5,260.6,187.2,262.6z M178.9,256.2l3.5,0
		c1.1-0.3,1.9-0.7,2.5-1.5s0.9-1.6,0.9-2.7c0-1.1-0.3-1.9-1-2.5c-0.6-0.6-1.6-0.9-2.8-1l-3.1,0V256.2z"/>
	<path class="st7" d="M207,262.8h-0.6l-0.5-4.5l-1.1-8.9h-0.1l-5.2,11.5h-0.7l-5.1-11.5h-0.1l-1,8.9l-0.5,4.5h-0.6l1.7-14.7h0.7
		l1,2.3l4.3,9.7h0.1l4.5-10l0.9-2h0.7L207,262.8z"/>
	<path class="st7" d="M222.9,257.5c0,1.7-0.4,3-1.4,4c-1,0.9-2.3,1.4-4.1,1.4c-1.8,0-3.1-0.5-4.1-1.4c-0.9-0.9-1.4-2.3-1.4-4l0-2.2
		v-7.3h0.6l-0.1,9.4c0,1.6,0.4,2.8,1.2,3.6c0.8,0.8,2,1.2,3.6,1.2s2.8-0.4,3.6-1.2c0.8-0.8,1.2-2,1.2-3.6v-9.4h0.6V257.5z"/>
	<path class="st7" d="M235.9,262.3l-0.1,0.5h-7v-14.7h0.6v14.2L235.9,262.3L235.9,262.3z"/>
	<path class="st7" d="M250.1,262.8h-0.7l-0.3-1l-1.5-3.8h-7.4l-1.6,3.8l-0.4,1h-0.7l6.2-14.7h0.6L250.1,262.8z M244.1,249L244.1,249
		l-3.7,8.4h7L244.1,249z"/>
	<path class="st7" d="M255.2,262.8h-0.6v-14.7h0.6V262.8z"/>
	<path class="st7" d="M270.6,262.6v0.1l-0.4,0.2l-0.2-0.1c-1.7-2.1-3.2-4.1-4.4-6.1h-3.3v6h-0.6v-14.7l3.6,0c1.4,0,2.6,0.3,3.3,1
		c0.8,0.7,1.2,1.7,1.2,3c0,1.1-0.3,2.1-0.9,2.9c-0.6,0.8-1.5,1.4-2.6,1.7C267.5,258.6,268.9,260.6,270.6,262.6z M262.3,256.2l3.5,0
		c1.1-0.3,1.9-0.7,2.5-1.5s0.9-1.6,0.9-2.7c0-1.1-0.3-1.9-1-2.5c-0.6-0.6-1.6-0.9-2.8-1l-3.1,0V256.2z"/>
	<path class="st7" d="M283.6,262.3l-0.1,0.5h-7.7v-14.7h7.7l0.1,0.1l-0.1,0.5l-7,0v6.2h5.9l0.1,0.1l-0.1,0.5h-5.8v6.8L283.6,262.3
		L283.6,262.3z"/>
</g>
<g class="st6">
	<path class="st7" d="M253.6,99.3H253l-0.6-5.9l-1.3-11.8h-0.1l-6.4,15.2h-0.8l-6.3-15.2h-0.2L236,93.5l-0.6,5.9h-0.6l2.1-19.1h0.7
		l1.2,3L244,96h0.1l5.6-13.2l1.1-2.6h0.7L253.6,99.3z"/>
	<path class="st7" d="M269.5,99.3h-0.7l-0.3-1l-1.5-3.8h-7.4l-1.6,3.8l-0.4,1h-0.7l6.2-14.7h0.6L269.5,99.3z M263.5,85.5L263.5,85.5
		l-3.7,8.4h7L263.5,85.5z"/>
	<path class="st7" d="M274.6,99.3H274V84.6h0.6V99.3z"/>
	<path class="st7" d="M288.1,98.8l-0.1,0.5h-7V84.6h0.6v14.2L288.1,98.8L288.1,98.8z"/>
</g>
<g class="st6">
	<path class="st7" d="M98.1,201.6v0.1c-0.1,0.1-0.2,0.2-0.4,0.2l-0.2-0.1c-2.1-2.8-4-5.5-5.5-8h-4v7.9h-0.6v-19.1l4.2-0.1
		c1.7,0,3.1,0.5,4,1.4c0.9,0.9,1.4,2.2,1.4,3.9c0,1.5-0.4,2.7-1.1,3.7c-0.8,1-1.9,1.7-3.3,2.2C94.2,196.3,96,198.9,98.1,201.6z
		 M88,193.3h4.3c1.3-0.3,2.4-1,3.1-1.9c0.7-0.9,1.1-2.1,1.1-3.5c0-1.5-0.4-2.6-1.2-3.4c-0.8-0.8-1.9-1.2-3.4-1.2H88V193.3z"/>
	<path class="st7" d="M110.7,201.3l-0.1,0.5h-7.7V187h7.7l0.1,0.1l-0.1,0.5l-7,0v6.2h5.9l0.1,0.1l-0.1,0.5h-5.8v6.8L110.7,201.3
		L110.7,201.3z M105.6,185l-0.3-0.4c1.4-1.2,2.8-2.5,4.4-4.1l0.2,0l0.3,0.3l0,0.2c-1.4,1.4-2.8,2.7-4.3,4L105.6,185z"/>
	<path class="st7" d="M121.7,187.6l-0.1,0.5l-0.2,0c-0.9-0.4-1.8-0.7-2.8-0.7c-0.8,0-1.5,0.2-2,0.5c-0.6,0.3-1,0.7-1.3,1.2
		s-0.5,1-0.5,1.5c0,0.5,0.2,1,0.5,1.3c0.3,0.4,0.7,0.7,1.1,1c0.4,0.3,1.1,0.6,1.9,0.9c0.9,0.4,1.6,0.7,2.1,1.1
		c0.5,0.3,1,0.7,1.3,1.2s0.6,1.1,0.6,1.8c0,0.7-0.2,1.3-0.6,1.9c-0.4,0.6-0.9,1.1-1.6,1.4s-1.5,0.5-2.4,0.5c-0.6,0-1.3-0.1-2-0.3
		c-0.7-0.2-1.3-0.5-1.8-0.8l0-0.6l0.1,0c0.5,0.4,1.1,0.6,1.7,0.8c0.6,0.2,1.3,0.3,1.9,0.3c0.8,0,1.5-0.2,2.1-0.5
		c0.6-0.3,1.1-0.7,1.4-1.2c0.3-0.5,0.5-1,0.5-1.6c0-0.6-0.2-1-0.5-1.5c-0.3-0.4-0.7-0.8-1.2-1c-0.5-0.3-1.1-0.6-1.9-1
		c-0.9-0.4-1.5-0.8-2-1s-0.9-0.7-1.3-1.2c-0.4-0.5-0.5-1-0.5-1.7c0-0.7,0.2-1.3,0.6-1.8c0.4-0.6,0.9-1,1.6-1.3s1.5-0.5,2.3-0.5
		C119.7,187,120.7,187.2,121.7,187.6z"/>
	<path class="st7" d="M135.2,201.3l-0.1,0.5h-7.7V187h7.7l0.1,0.1l-0.1,0.5l-7,0v6.2h5.9l0.1,0.1l-0.1,0.5h-5.8v6.8L135.2,201.3
		L135.2,201.3z"/>
	<path class="st7" d="M150,201.7h-0.7l-0.3-1l-1.5-3.8h-7.4l-1.6,3.8l-0.4,1h-0.7l6.2-14.7h0.6L150,201.7z M144,187.9L144,187.9
		l-3.7,8.4h7L144,187.9z"/>
	<path class="st7" d="M164.5,196.5c0,1.7-0.4,3-1.4,4c-1,0.9-2.3,1.4-4.1,1.4c-1.8,0-3.1-0.5-4.1-1.4s-1.4-2.3-1.4-4l0-2.2V187h0.6
		l-0.1,9.4c0,1.6,0.4,2.8,1.2,3.6c0.8,0.8,2,1.2,3.6,1.2s2.8-0.4,3.6-1.2s1.2-2,1.2-3.6V187h0.6V196.5z"/>
	<path class="st7" d="M175,194.1l5.7,7.6h-0.8l-0.6-0.9l-4.7-6.2l-4.7,6.3l-0.5,0.9h-0.8l5.6-7.6l-5.3-7.1h0.8l0.5,0.8l4.3,5.8
		l4.2-5.7l0.6-1h0.8L175,194.1z"/>
	<path class="st7" d="M197.4,187.6l-0.1,0.5l-0.2,0c-0.9-0.4-1.8-0.7-2.8-0.7c-0.8,0-1.5,0.2-2,0.5c-0.6,0.3-1,0.7-1.3,1.2
		s-0.5,1-0.5,1.5c0,0.5,0.2,1,0.5,1.3c0.3,0.4,0.7,0.7,1.1,1c0.4,0.3,1.1,0.6,1.9,0.9c0.9,0.4,1.6,0.7,2.1,1.1
		c0.5,0.3,1,0.7,1.3,1.2s0.6,1.1,0.6,1.8c0,0.7-0.2,1.3-0.6,1.9c-0.4,0.6-0.9,1.1-1.6,1.4s-1.5,0.5-2.4,0.5c-0.6,0-1.3-0.1-2-0.3
		c-0.7-0.2-1.3-0.5-1.8-0.8l0-0.6l0.1,0c0.5,0.4,1.1,0.6,1.7,0.8c0.6,0.2,1.3,0.3,1.9,0.3c0.8,0,1.5-0.2,2.1-0.5
		c0.6-0.3,1.1-0.7,1.4-1.2c0.3-0.5,0.5-1,0.5-1.6c0-0.6-0.2-1-0.5-1.5c-0.3-0.4-0.7-0.8-1.2-1c-0.5-0.3-1.1-0.6-1.9-1
		c-0.9-0.4-1.5-0.8-2-1s-0.9-0.7-1.3-1.2c-0.4-0.5-0.5-1-0.5-1.7c0-0.7,0.2-1.3,0.6-1.8c0.4-0.6,0.9-1,1.6-1.3s1.5-0.5,2.3-0.5
		C195.4,187,196.4,187.2,197.4,187.6z"/>
	<path class="st7" d="M213,188.8c1.1,1.3,1.7,3,1.7,5.4c0,2.5-0.6,4.4-1.7,5.7c-1.2,1.3-2.8,2-5,2c-2.1,0-3.6-0.6-4.8-1.9
		c-1.1-1.3-1.7-3.1-1.7-5.5c0-2.4,0.6-4.3,1.7-5.6s2.8-2,5-2C210.3,186.9,211.9,187.5,213,188.8z M203.7,189.3
		c-1,1.2-1.5,2.9-1.5,5.1s0.5,4,1.5,5.1c1,1.2,2.4,1.8,4.3,1.8c2,0,3.5-0.6,4.5-1.8s1.6-3,1.6-5.3c0-2.2-0.5-3.8-1.5-5
		c-1-1.2-2.5-1.7-4.3-1.7C206.3,187.5,204.8,188.1,203.7,189.3z"/>
	<path class="st7" d="M227,187.3c0.8,0.2,1.4,0.6,2,1l-0.2,0.5h-0.2c-0.6-0.4-1.2-0.7-1.9-0.9c-0.7-0.2-1.4-0.3-2.1-0.3
		c-1.9,0-3.4,0.6-4.4,1.8c-1,1.2-1.5,2.9-1.5,5.1c0,2.2,0.5,3.9,1.5,5.1c1,1.2,2.4,1.8,4.2,1.8c0.8,0,1.6-0.1,2.3-0.4
		c0.8-0.3,1.5-0.6,2.1-1.1l0.2,0.1l-0.1,0.5c-0.7,0.5-1.4,0.9-2.2,1.1s-1.6,0.4-2.3,0.4c-2,0-3.6-0.6-4.7-1.9
		c-1.1-1.3-1.6-3.1-1.6-5.5c0-2.4,0.6-4.3,1.7-5.6c1.1-1.3,2.8-1.9,4.9-1.9C225.5,186.9,226.2,187,227,187.3z"/>
	<path class="st7" d="M234.3,201.7h-0.6V187h0.6V201.7z"/>
	<path class="st7" d="M251.1,201.7h-0.7l-0.3-1l-1.5-3.8h-7.4l-1.6,3.8l-0.4,1h-0.7l6.2-14.7h0.6L251.1,201.7z M245.1,187.9
		L245.1,187.9l-3.7,8.4h7L245.1,187.9z"/>
	<path class="st7" d="M265.6,196.5c0,1.7-0.4,3-1.4,4c-1,0.9-2.3,1.4-4.1,1.4c-1.8,0-3.1-0.5-4.1-1.4c-0.9-0.9-1.4-2.3-1.4-4l0-2.2
		V187h0.6l-0.1,9.4c0,1.6,0.4,2.8,1.2,3.6c0.8,0.8,2,1.2,3.6,1.2s2.8-0.4,3.6-1.2s1.2-2,1.2-3.6V187h0.6V196.5z"/>
	<path class="st7" d="M276,194.1l5.7,7.6h-0.8l-0.6-0.9l-4.7-6.2l-4.7,6.3l-0.5,0.9h-0.8l5.6-7.6L270,187h0.8l0.5,0.8l4.3,5.8
		l4.2-5.7l0.6-1h0.8L276,194.1z"/>
</g>
<g class="st6">
	<path class="st7" d="M20.1,141.9c1.4,1.6,2.2,3.8,2.2,6.7c0,3.3-0.7,5.9-2.2,7.6c-1.5,1.8-3.6,2.7-6.4,2.7c-0.7,0-1.6,0-2.7,0
		s-2.1-0.1-3-0.1v-19.1l6-0.1C16.6,139.6,18.6,140.4,20.1,141.9z M19.6,155.9c1.4-1.7,2.1-4.1,2.1-7.2c0-2.7-0.7-4.8-2-6.3
		c-1.3-1.5-3.3-2.2-5.7-2.2c-0.6,0-1.5,0-2.5,0c-1.1,0-2,0.1-2.9,0.1v17.9c0.8,0,1.8,0.1,2.7,0.1c1,0,1.8,0,2.4,0
		C16.2,158.4,18.2,157.6,19.6,155.9z"/>
	<path class="st7" d="M27.5,158.8h-0.6v-14.7h0.6V158.8z"/>
	<path class="st7" d="M40.5,144.7l-0.1,0.5l-0.2,0c-0.9-0.4-1.8-0.7-2.8-0.7c-0.8,0-1.5,0.2-2,0.5s-1,0.7-1.3,1.2
		c-0.3,0.5-0.5,1-0.5,1.5c0,0.5,0.2,1,0.5,1.3c0.3,0.4,0.7,0.7,1.1,1c0.4,0.3,1.1,0.6,1.9,0.9c0.9,0.4,1.6,0.7,2.1,1.1
		c0.5,0.3,1,0.7,1.3,1.2c0.4,0.5,0.6,1.1,0.6,1.8c0,0.7-0.2,1.3-0.6,1.9c-0.4,0.6-0.9,1.1-1.6,1.4c-0.7,0.4-1.5,0.5-2.4,0.5
		c-0.6,0-1.3-0.1-2-0.3s-1.3-0.5-1.8-0.8l0-0.6l0.1,0c0.5,0.4,1.1,0.6,1.7,0.8c0.6,0.2,1.3,0.3,1.9,0.3c0.8,0,1.5-0.2,2.1-0.5
		s1.1-0.7,1.4-1.2c0.3-0.5,0.5-1,0.5-1.6c0-0.6-0.2-1-0.5-1.5c-0.3-0.4-0.7-0.8-1.2-1c-0.5-0.3-1.1-0.6-1.9-1c-0.9-0.4-1.5-0.8-2-1
		s-0.9-0.7-1.3-1.2c-0.4-0.5-0.5-1-0.5-1.7c0-0.7,0.2-1.3,0.6-1.8c0.4-0.6,0.9-1,1.6-1.3s1.5-0.5,2.3-0.5
		C38.5,144.1,39.5,144.3,40.5,144.7z"/>
	<path class="st7" d="M53.5,144.4c0.8,0.2,1.4,0.6,2,1l-0.2,0.5h-0.2c-0.6-0.4-1.2-0.7-1.9-0.9c-0.7-0.2-1.4-0.3-2.1-0.3
		c-1.9,0-3.4,0.6-4.4,1.8s-1.5,2.9-1.5,5.1c0,2.2,0.5,3.9,1.5,5.1c1,1.2,2.4,1.8,4.2,1.8c0.8,0,1.6-0.1,2.3-0.4
		c0.8-0.3,1.5-0.6,2.1-1.1l0.2,0.1l-0.1,0.5c-0.7,0.5-1.4,0.9-2.2,1.1c-0.8,0.3-1.6,0.4-2.3,0.4c-2,0-3.6-0.6-4.7-1.9
		s-1.6-3.1-1.6-5.5c0-2.4,0.6-4.3,1.7-5.6c1.1-1.3,2.8-1.9,4.9-1.9C52,144,52.7,144.1,53.5,144.4z"/>
	<path class="st7" d="M70.5,153.6c0,1.7-0.4,3-1.4,4s-2.3,1.4-4.1,1.4c-1.8,0-3.1-0.5-4.1-1.4c-0.9-0.9-1.4-2.3-1.4-4l0-2.2v-7.3
		h0.6l-0.1,9.4c0,1.6,0.4,2.8,1.2,3.6c0.8,0.8,2,1.2,3.6,1.2s2.8-0.4,3.6-1.2c0.8-0.8,1.2-2,1.2-3.6v-9.4h0.6V153.6z"/>
	<path class="st7" d="M82.9,144.7l-0.1,0.5l-0.2,0c-0.9-0.4-1.8-0.7-2.8-0.7c-0.8,0-1.5,0.2-2,0.5s-1,0.7-1.3,1.2
		c-0.3,0.5-0.5,1-0.5,1.5c0,0.5,0.2,1,0.5,1.3c0.3,0.4,0.7,0.7,1.1,1c0.4,0.3,1.1,0.6,1.9,0.9c0.9,0.4,1.6,0.7,2.1,1.1
		c0.5,0.3,1,0.7,1.3,1.2c0.4,0.5,0.6,1.1,0.6,1.8c0,0.7-0.2,1.3-0.6,1.9c-0.4,0.6-0.9,1.1-1.6,1.4c-0.7,0.4-1.5,0.5-2.4,0.5
		c-0.6,0-1.3-0.1-2-0.3s-1.3-0.5-1.8-0.8l0-0.6l0.1,0c0.5,0.4,1.1,0.6,1.7,0.8c0.6,0.2,1.3,0.3,1.9,0.3c0.8,0,1.5-0.2,2.1-0.5
		s1.1-0.7,1.4-1.2c0.3-0.5,0.5-1,0.5-1.6c0-0.6-0.2-1-0.5-1.5c-0.3-0.4-0.7-0.8-1.2-1c-0.5-0.3-1.1-0.6-1.9-1c-0.9-0.4-1.5-0.8-2-1
		s-0.9-0.7-1.3-1.2c-0.4-0.5-0.5-1-0.5-1.7c0-0.7,0.2-1.3,0.6-1.8c0.4-0.6,0.9-1,1.6-1.3s1.5-0.5,2.3-0.5
		C80.9,144.1,81.9,144.3,82.9,144.7z"/>
	<path class="st7" d="M95,144.7l-0.1,0.5l-0.2,0c-0.9-0.4-1.8-0.7-2.8-0.7c-0.8,0-1.5,0.2-2,0.5s-1,0.7-1.3,1.2
		c-0.3,0.5-0.5,1-0.5,1.5c0,0.5,0.2,1,0.5,1.3c0.3,0.4,0.7,0.7,1.1,1c0.4,0.3,1.1,0.6,1.9,0.9c0.9,0.4,1.6,0.7,2.1,1.1
		c0.5,0.3,1,0.7,1.3,1.2c0.4,0.5,0.6,1.1,0.6,1.8c0,0.7-0.2,1.3-0.6,1.9c-0.4,0.6-0.9,1.1-1.6,1.4c-0.7,0.4-1.5,0.5-2.4,0.5
		c-0.6,0-1.3-0.1-2-0.3s-1.3-0.5-1.8-0.8l0-0.6l0.1,0c0.5,0.4,1.1,0.6,1.7,0.8c0.6,0.2,1.3,0.3,1.9,0.3c0.8,0,1.5-0.2,2.1-0.5
		s1.1-0.7,1.4-1.2c0.3-0.5,0.5-1,0.5-1.6c0-0.6-0.2-1-0.5-1.5c-0.3-0.4-0.7-0.8-1.2-1c-0.5-0.3-1.1-0.6-1.9-1c-0.9-0.4-1.5-0.8-2-1
		s-0.9-0.7-1.3-1.2c-0.4-0.5-0.5-1-0.5-1.7c0-0.7,0.2-1.3,0.6-1.8c0.4-0.6,0.9-1,1.6-1.3s1.5-0.5,2.3-0.5
		C93,144.1,94,144.3,95,144.7z"/>
	<path class="st7" d="M101.2,158.8h-0.6v-14.7h0.6V158.8z"/>
	<path class="st7" d="M116.9,145.9c1.1,1.3,1.7,3,1.7,5.4c0,2.5-0.6,4.4-1.7,5.7c-1.2,1.3-2.8,2-5,2c-2.1,0-3.6-0.6-4.8-1.9
		c-1.1-1.3-1.7-3.1-1.7-5.5c0-2.4,0.6-4.3,1.7-5.6c1.2-1.3,2.8-2,5-2C114.2,144,115.8,144.6,116.9,145.9z M107.7,146.4
		c-1,1.2-1.5,2.9-1.5,5.1c0,2.2,0.5,4,1.5,5.1c1,1.2,2.4,1.8,4.3,1.8c2,0,3.5-0.6,4.5-1.8s1.6-3,1.6-5.3c0-2.2-0.5-3.8-1.5-5
		c-1-1.1-2.5-1.7-4.3-1.7C110.2,144.6,108.7,145.2,107.7,146.4z"/>
	<path class="st7" d="M134.7,154.7l0,4.1h-0.6l-9.8-13.5h-0.1l0,8.9v4.6h-0.6v-4.4l0-10.4h0.6l9.8,13.5h0.1l0-13.5l0.6-0.1
		L134.7,154.7z"/>
	<path class="st7" d="M147.3,158.8h-0.6v-19.1h0.6V158.8z"/>
	<path class="st7" d="M165,154.7l0,4.1h-0.6l-9.8-13.5h-0.1l0,8.9v4.6h-0.6v-4.4l0-10.4h0.6l9.8,13.5h0.1l0-13.5l0.6-0.1L165,154.7z
		"/>
	<path class="st7" d="M177.9,144.7l-0.1,0.5l-0.2,0c-0.9-0.4-1.8-0.7-2.8-0.7c-0.8,0-1.5,0.2-2,0.5s-1,0.7-1.3,1.2
		c-0.3,0.5-0.5,1-0.5,1.5c0,0.5,0.2,1,0.5,1.3c0.3,0.4,0.7,0.7,1.1,1c0.4,0.3,1.1,0.6,1.9,0.9c0.9,0.4,1.6,0.7,2.1,1.1
		c0.5,0.3,1,0.7,1.3,1.2c0.4,0.5,0.6,1.1,0.6,1.8c0,0.7-0.2,1.3-0.6,1.9c-0.4,0.6-0.9,1.1-1.6,1.4c-0.7,0.4-1.5,0.5-2.4,0.5
		c-0.6,0-1.3-0.1-2-0.3s-1.3-0.5-1.8-0.8l0-0.6l0.1,0c0.5,0.4,1.1,0.6,1.7,0.8c0.6,0.2,1.3,0.3,1.9,0.3c0.8,0,1.5-0.2,2.1-0.5
		s1.1-0.7,1.4-1.2c0.3-0.5,0.5-1,0.5-1.6c0-0.6-0.2-1-0.5-1.5c-0.3-0.4-0.7-0.8-1.2-1c-0.5-0.3-1.1-0.6-1.9-1c-0.9-0.4-1.5-0.8-2-1
		s-0.9-0.7-1.3-1.2c-0.4-0.5-0.5-1-0.5-1.7c0-0.7,0.2-1.3,0.6-1.8c0.4-0.6,0.9-1,1.6-1.3s1.5-0.5,2.3-0.5
		C175.9,144.1,176.9,144.3,177.9,144.7z"/>
	<path class="st7" d="M191.4,144.2l-0.1,0.5l-2.5,0h-2.3v14.2h-0.6v-14.2h-2.2l-2.6,0l-0.1-0.1l0.1-0.5h10.2L191.4,144.2z"/>
	<path class="st7" d="M204.3,158.8h-0.7l-0.3-1l-1.5-3.8h-7.4l-1.6,3.8l-0.4,1h-0.7l6.2-14.7h0.6L204.3,158.8z M198.3,145L198.3,145
		l-3.7,8.4h7L198.3,145z"/>
	<path class="st7" d="M220,154.7l0,4.1h-0.6l-9.8-13.5h-0.1l0,8.9v4.6h-0.6v-4.4l0-10.4h0.6l9.8,13.5h0.1l0-13.5l0.6-0.1L220,154.7z
		"/>
	<path class="st7" d="M234.3,144.2l-0.1,0.5l-2.5,0h-2.3v14.2h-0.6v-14.2h-2.2l-2.6,0l-0.1-0.1l0.1-0.5h10.2L234.3,144.2z"/>
	<path class="st7" d="M247.2,158.8h-0.7l-0.3-1l-1.5-3.8h-7.4l-1.6,3.8l-0.4,1h-0.7l6.2-14.7h0.6L247.2,158.8z M241.2,145L241.2,145
		l-3.7,8.4h7L241.2,145z"/>
	<path class="st7" d="M262.9,154.7l0,4.1h-0.6l-9.8-13.5h-0.1l0,8.9v4.6h-0.6v-4.4l0-10.4h0.6l9.8,13.5h0.1l0-13.5l0.6-0.1
		L262.9,154.7z"/>
	<path class="st7" d="M277.2,158.4l-0.1,0.5h-7.7v-14.7h7.7l0.1,0.1l-0.1,0.5l-7,0v6.2h5.9l0.1,0.1l-0.1,0.5H270v6.8L277.2,158.4
		L277.2,158.4z M272.1,142.1l-0.3-0.4c1.4-1.2,2.8-2.5,4.4-4.1l0.2,0l0.3,0.3l0,0.2c-1.4,1.4-2.8,2.7-4.3,4L272.1,142.1z"/>
	<path class="st7" d="M289.6,158.4l-0.1,0.5h-7.7v-14.7h7.7l0.1,0.1l-0.1,0.5l-7,0v6.2h5.9l0.1,0.1l-0.1,0.5h-5.8v6.8L289.6,158.4
		L289.6,158.4z"/>
</g>
<g>
	<g>
		<g>
			<path class="st4" d="M318.5,25.9h-50c-2.9,0-5.3,2.4-5.3,5.3v35.5c0,2.9,2.4,5.3,5.3,5.3h50c2.9,0,5.3-2.4,5.3-5.3V31.2
				C323.8,28.3,321.4,25.9,318.5,25.9z M317.8,29.5l-24.1,24.1l-24.3-24.1H317.8z M266.7,66V32l17.1,17L266.7,66z M269.3,68.6
				l17.1-17.1l6,5.9c0.7,0.7,1.8,0.7,2.5,0l5.8-5.8l17,17H269.3z M320.3,66l-17-17l17-17V66z"/>
		</g>
	</g>
	<g>
	</g>
	<g>
	</g>
	<g>
	</g>
	<g>
	</g>
	<g>
	</g>
	<g>
	</g>
	<g>
	</g>
	<g>
	</g>
	<g>
	</g>
	<g>
	</g>
	<g>
	</g>
	<g>
	</g>
	<g>
	</g>
	<g>
	</g>
	<g>
	</g>
</g>
<g>
	<g>
		<g>
			<g>
				<path class="st4" d="M310,311.7L310,311.7c0-0.8-0.8-1.4-1.8-1.4h-40.7c-2.8,0-5,1.7-5,3.8v35.4c0,4.6,4.9,8.4,10.9,8.4h40.2
					c6,0,10.9-3.7,10.9-8.4v-35c0-0.8-0.8-1.4-1.8-1.4h-10.9C310.8,313.1,310,312.5,310,311.7z M271.6,355.1c-3,0-5.5-1.9-5.5-4.2
					v-37.8h40.2v37.8c0,1.6,0.7,3,1.8,4.2H271.6z M320.9,350.9c0,2.3-2.4,4.2-5.5,4.2c-3,0-5.5-1.9-5.5-4.2v-35h3.6v34.6h3.6v-34.6
					h3.6V350.9z"/>
			</g>
		</g>
	</g>
	<g>
		<g>
			<rect x="269.8" y="321.6" class="st4" width="33" height="2.8"/>
		</g>
	</g>
	<g>
		<g>
			<rect x="288.1" y="332.7" class="st4" width="14.7" height="2.8"/>
		</g>
	</g>
	<g>
		<g>
			<rect x="288.1" y="343.9" class="st4" width="14.7" height="2.8"/>
		</g>
	</g>
	<g>
		<g>
			<path class="st4" d="M269.8,332.7v13.9h14.7v-13.9H269.8z M280.8,343.9h-7.4v-8.4h7.4V343.9z"/>
		</g>
	</g>
	<g>
	</g>
	<g>
	</g>
	<g>
	</g>
	<g>
	</g>
	<g>
	</g>
	<g>
	</g>
	<g>
	</g>
	<g>
	</g>
	<g>
	</g>
	<g>
	</g>
	<g>
	</g>
	<g>
	</g>
	<g>
	</g>
	<g>
	</g>
	<g>
	</g>
</g>
<g>
	<g>
		<g>
			<path class="st4" d="M212.6,241.5l-17.3-17.3c-0.3-0.3-0.6-0.4-1-0.4h-33c-3.9,0-7.1,3.2-7.1,7.1v57.2c0,3.9,3.2,7.1,7.1,7.1
				h44.7c3.9,0,7.1-3.2,7.1-7.1v-45.6C213,242.2,212.8,241.8,212.6,241.5z M195.7,228.8l12.3,12.3h-8.1c-1.1,0-2.2-0.4-2.9-1.2
				c-0.8-0.8-1.2-1.8-1.2-2.9V228.8z M210.1,288.1c0,2.3-1.9,4.2-4.2,4.2h-44.7c-2.3,0-4.2-1.9-4.2-4.2v-57.2c0-2.3,1.9-4.2,4.2-4.2
				h31.6V237c0,1.9,0.7,3.7,2.1,5c1.3,1.3,3.1,2.1,5,2.1h10.2L210.1,288.1L210.1,288.1z"/>
		</g>
	</g>
	<g>
		<g>
			<path class="st4" d="M168.5,266.2h-0.7c-0.8,0-1.5,0.7-1.5,1.5s0.7,1.5,1.5,1.5h0.7c0.8,0,1.5-0.7,1.5-1.5
				S169.3,266.2,168.5,266.2z"/>
		</g>
	</g>
	<g>
		<g>
			<path class="st4" d="M199.3,266.2h-26.1c-0.8,0-1.5,0.7-1.5,1.5s0.7,1.5,1.5,1.5h26.1c0.8,0,1.5-0.7,1.5-1.5
				S200.1,266.2,199.3,266.2z"/>
		</g>
	</g>
	<g>
		<g>
			<path class="st4" d="M168.5,259.5h-0.7c-0.8,0-1.5,0.7-1.5,1.5c0,0.8,0.7,1.5,1.5,1.5h0.7c0.8,0,1.5-0.7,1.5-1.5
				C170,260.2,169.3,259.5,168.5,259.5z"/>
		</g>
	</g>
	<g>
		<g>
			<path class="st4" d="M199.3,259.5h-26.1c-0.8,0-1.5,0.7-1.5,1.5c0,0.8,0.7,1.5,1.5,1.5h26.1c0.8,0,1.5-0.7,1.5-1.5
				C200.8,260.2,200.1,259.5,199.3,259.5z"/>
		</g>
	</g>
	<g>
		<g>
			<path class="st4" d="M168.5,252.9h-0.7c-0.8,0-1.5,0.7-1.5,1.5s0.7,1.5,1.5,1.5h0.7c0.8,0,1.5-0.7,1.5-1.5
				S169.3,252.9,168.5,252.9z"/>
		</g>
	</g>
	<g>
		<g>
			<path class="st4" d="M199.3,252.9h-26.1c-0.8,0-1.5,0.7-1.5,1.5s0.7,1.5,1.5,1.5h26.1c0.8,0,1.5-0.7,1.5-1.5
				S200.1,252.9,199.3,252.9z"/>
		</g>
	</g>
	<g>
	</g>
	<g>
	</g>
	<g>
	</g>
	<g>
	</g>
	<g>
	</g>
	<g>
	</g>
	<g>
	</g>
	<g>
	</g>
	<g>
	</g>
	<g>
	</g>
	<g>
	</g>
	<g>
	</g>
	<g>
	</g>
	<g>
	</g>
	<g>
	</g>
</g>
<g>
	<g>
		<g>
			<path class="st4" d="M316.6,164.5h-46.9c-4,0-7.2,3.1-7.2,6.8V216c0,3.8,3.2,6.8,7.2,6.8h46.9c4,0,7.2-3.1,7.2-6.8v-44.7
				C323.8,167.6,320.6,164.5,316.6,164.5z M319,216c0,1.3-1.1,2.3-2.4,2.3H303v-18.6h7.4l1.2-7.1H303v-4.9c0-1.9,1.6-3.4,3.6-3.4
				h4.9v-7.1h-4.9c-6.1,0-11,4.7-11,10.5v4.9h-7.2v7.1h7.2v18.6h-25.9c-1.3,0-2.4-1-2.4-2.3v-44.7c0-1.3,1.1-2.3,2.4-2.3h46.9
				c1.3,0,2.4,1,2.4,2.3V216z"/>
		</g>
	</g>
	<g>
	</g>
	<g>
	</g>
	<g>
	</g>
	<g>
	</g>
	<g>
	</g>
	<g>
	</g>
	<g>
	</g>
	<g>
	</g>
	<g>
	</g>
	<g>
	</g>
	<g>
	</g>
	<g>
	</g>
	<g>
	</g>
	<g>
	</g>
	<g>
	</g>
</g>
<g>
	<g>
		<g>
			<path class="st4" d="M162.3,174.6c0.2,0.1,0.5,0.1,0.7,0.1c0.4,0,0.9-0.2,1.2-0.5l12.3-11.7h23c4.8,0,8.7-3.9,8.7-8.7v-13.1
				c0-1-0.8-1.8-1.8-1.8c-1,0-1.8,0.8-1.8,1.8v13.1c0,2.8-2.3,5.1-5.1,5.1h-23.8c-0.4,0-0.9,0.2-1.2,0.5l-9.8,9.3v-8
				c0-1-0.8-1.8-1.8-1.8h-5.4c-2.8,0-5.1-2.3-5.1-5.1v-25.6c0-2.8,2.3-5.1,5.1-5.1h21c1,0,1.8-0.8,1.8-1.8c0-1-0.8-1.8-1.8-1.8h-21
				c-4.8,0-8.7,3.9-8.7,8.7v25.6c0,4.8,3.9,8.7,8.7,8.7h3.6V173C161.3,173.7,161.7,174.3,162.3,174.6z"/>
			<path class="st4" d="M216.8,134.5l12.4,11.8c0.3,0.3,0.8,0.5,1.2,0.5c0.2,0,0.5,0,0.7-0.1c0.6-0.3,1.1-0.9,1.1-1.6v-10.6h3.7
				c4.8,0,8.7-3.9,8.7-8.7V100c0-4.8-3.9-8.7-8.7-8.7h-42.3c-4.8,0-8.7,3.9-8.7,8.7v25.8c0,4.8,3.9,8.7,8.7,8.7H216.8L216.8,134.5z
				 M188.4,125.8V100c0-2.9,2.3-5.2,5.2-5.2h42.3c2.9,0,5.2,2.3,5.2,5.2v25.8c0,2.9-2.3,5.2-5.2,5.2h-5.5c-1,0-1.8,0.8-1.8,1.8v8.2
				l-9.9-9.4c-0.3-0.3-0.8-0.5-1.2-0.5h-23.9C190.7,131,188.4,128.6,188.4,125.8z"/>
			<path class="st4" d="M214.7,115c0.5,0,0.9-0.2,1.3-0.5c0.3-0.3,0.5-0.8,0.5-1.3c0-0.5-0.2-0.9-0.5-1.3s-0.8-0.5-1.3-0.5
				s-0.9,0.2-1.3,0.5c-0.3,0.3-0.5,0.8-0.5,1.3c0,0.5,0.2,0.9,0.5,1.3C213.8,114.8,214.2,115,214.7,115z"/>
			<path class="st4" d="M221.3,115c0.5,0,0.9-0.2,1.3-0.5c0.3-0.3,0.5-0.8,0.5-1.3c0-0.5-0.2-0.9-0.5-1.3s-0.8-0.5-1.3-0.5
				s-0.9,0.2-1.3,0.5c-0.3,0.3-0.5,0.8-0.5,1.3c0,0.5,0.2,0.9,0.5,1.3C220.4,114.8,220.8,115,221.3,115z"/>
			<path class="st4" d="M208.1,115c0.5,0,0.9-0.2,1.3-0.5c0.3-0.3,0.5-0.8,0.5-1.3c0-0.5-0.2-0.9-0.5-1.3c-0.3-0.3-0.8-0.5-1.3-0.5
				s-0.9,0.2-1.3,0.5s-0.5,0.8-0.5,1.3c0,0.5,0.2,0.9,0.5,1.3C207.2,114.8,207.6,115,208.1,115z"/>
		</g>
	</g>
	<g>
	</g>
	<g>
	</g>
	<g>
	</g>
	<g>
	</g>
	<g>
	</g>
	<g>
	</g>
	<g>
	</g>
	<g>
	</g>
	<g>
	</g>
	<g>
	</g>
	<g>
	</g>
	<g>
	</g>
	<g>
	</g>
	<g>
	</g>
	<g>
	</g>
</g>
</svg>
