<svg xmlns="http://www.w3.org/2000/svg" viewBox="0 0 148.5 357.5"><title>payment_method</title><rect x="2.5" y="2.5" width="143.5" height="59.09" style="fill:none;stroke:#ffe6ce;stroke-linejoin:round;stroke-width:5px"/><path d="M37.4,22.5a5.2,5.2,0,0,0-1.9-2.1,8.9,8.9,0,0,0-3-1.1,24.8,24.8,0,0,0-4.1-.3H21a1.8,1.8,0,0,0-1.7,1.3L14.4,41.7A1,1,0,0,0,15.5,43H19a1.8,1.8,0,0,0,1.7-1.3l1.2-5.2a1.8,1.8,0,0,1,1.7-1.3h1c4.3,0,7.6-.9,10-2.6A8.2,8.2,0,0,0,38,25.6,6.5,6.5,0,0,0,37.4,22.5Zm-7.5,7a7.4,7.4,0,0,1-4.4,1.2h-.9a1,1,0,0,1-1.1-1.3l1.1-4.5a1.8,1.8,0,0,1,1.7-1.3h1.1a5.6,5.6,0,0,1,3,.7,2.3,2.3,0,0,1,1,2.1A3.8,3.8,0,0,1,29.8,29.5Zm48.1-2.8L64,50.2a2.9,2.9,0,0,1-2.2,1.3H58.2c-.8,0-1-.6-.5-1.3l3.1-5.4s.2-.3,0-2.1S57.9,26,57.9,26a1,1,0,0,1,1-1.3h3.1A1.9,1.9,0,0,1,64,26.1l1.6,9.4h.6L71.6,26a3,3,0,0,1,2.2-1.3H78C79.3,24.6,77.9,26.7,77.9,26.7Zm23-4.1A5.4,5.4,0,0,0,99,20.5a8.6,8.6,0,0,0-3-1.1,24,24,0,0,0-4.1-.3H84.5a1.8,1.8,0,0,0-1.7,1.3L77.9,41.8A1,1,0,0,0,79,43.1h3.5a1.8,1.8,0,0,0,1.7-1.3l1.2-5.2A1.8,1.8,0,0,1,87,35.3h1c4.3,0,7.6-.9,10-2.6a8.3,8.3,0,0,0,3.6-6.9A6.8,6.8,0,0,0,100.9,22.5Zm-7.5,7a7.4,7.4,0,0,1-4.4,1.1h-.9A1,1,0,0,1,87,29.4l1.1-4.5a1.8,1.8,0,0,1,1.7-1.3h1.1a5.7,5.7,0,0,1,3,.7,2.3,2.3,0,0,1,1,2.1A3.8,3.8,0,0,1,93.3,29.5Zm-39.1-4q-2-1.1-6.3-1.1a27.6,27.6,0,0,0-4.2.3l-1.8.3a2.1,2.1,0,0,0-1.5,1.6L40,28.4c-.2,1.1.4,1.1.7,1l2.1-.6a15,15,0,0,1,3.3-.4,8.6,8.6,0,0,1,3.2.4,1.6,1.6,0,0,1,1.1,1.6v.5l-.5.3-5.2.6A16,16,0,0,0,40.1,33a6.9,6.9,0,0,0-3,2.4,6.5,6.5,0,0,0-1,3.7,4.3,4.3,0,0,0,1.4,3.3,5.3,5.3,0,0,0,3.7,1.3l2.2-.2,1.7-.6,1.4-.8,1.3-.9h0v.6h0a1,1,0,0,0,.9,1.3H52a1.8,1.8,0,0,0,1.5-1.3l2.5-11V29A3.7,3.7,0,0,0,54.2,25.5ZM48.6,37.9l-.5.7-1.4.7a4.9,4.9,0,0,1-1.8.4,4.2,4.2,0,0,1-2-.4l-.7-1.3a2.6,2.6,0,0,1,.5-1.7l1.5-1,2.3-.5,2.6-.3.2.4Zm87.3-20.2h1.2v.5h-1.2v2.3l.2.2h.9v.5h-.7l-.8-.3-.3-.9V18.3H135v-.5h.4v-1h.6v1Zm-18.2,7.8a13.3,13.3,0,0,0-6.2-1.1,26.6,26.6,0,0,0-4.2.3l-1.8.3a2,2,0,0,0-1.5,1.6l-.4,1.8c-.2,1.1.4,1.1.7,1l2.1-.6a15.6,15.6,0,0,1,3.3-.4,8.6,8.6,0,0,1,3.2.5,1.6,1.6,0,0,1,1.1,1.6v.5l-.5.3-5.2.6a16,16,0,0,0-4.4,1.2,6.9,6.9,0,0,0-3,2.4,6.4,6.4,0,0,0-1,3.6,4.3,4.3,0,0,0,1.4,3.3,5.4,5.4,0,0,0,3.7,1.3l2.2-.2,1.7-.6,1.4-.8,1.3-.9h0v.6h0a1,1,0,0,0,.9,1.3h3.3a1.8,1.8,0,0,0,1.5-1.3l2.6-11V29A3.7,3.7,0,0,0,117.8,25.5ZM112.1,38l-.6.7-1.4.7a5,5,0,0,1-1.8.4,4.1,4.1,0,0,1-2-.4l-.7-1.3a2.7,2.7,0,0,1,.5-1.7,3.6,3.6,0,0,1,1.5-1l2.3-.5,2.6-.3.2.4Zm18.7-17.4h0l-4.7,21.2-.2.3a1.8,1.8,0,0,1-1.5,1.1h-3.3a1,1,0,0,1-.9-1.2h0v-.6l4.4-19.9.2-.7.2-.3a1.8,1.8,0,0,1,1.5-1.1h3.1A1,1,0,0,1,130.9,20.5ZM142.5,18l.3,1v2.2h-.6V18.5l-.2-.2H141l-.5.3v2.5H140V18.5l-.2-.2h-.9l-.5.3v2.5h-.6V17.8h.6v.4l.5-.3h1.2l.4.4.6-.4h.6Z" style="fill:#ffe6ce"/><path d="M122.7,190.6H25.2a4.6,4.6,0,0,0-4.6,4.6v55.3a4.6,4.6,0,0,0,4.6,4.6h97.5a4.6,4.6,0,0,0,4.6-4.6V195.2A4.6,4.6,0,0,0,122.7,190.6Zm-3,56.9H28.2V198.2h91.6v49.3Z" style="fill:#ffe6ce"/><path d="M89.6,234.3a.7.7,0,0,0,.6.3h5.1a.7.7,0,0,0,.7-.5l1.2-3.1h8.2l.7,2.9a.7.7,0,0,0,.7.6h4.5a.7.7,0,0,0,.7-.9l-4.8-22a.7.7,0,0,0-.7-.6h-4.4a3.2,3.2,0,0,0-3.3,1.9l-9,20.4A.7.7,0,0,0,89.6,234.3Zm12.8-16.8.4,2,1.5,6.8H99Z" style="fill:#ffe6ce"/><path d="M72.3,233.5a20.9,20.9,0,0,0,6.3,1h0c6.5,0,10.7-3,10.7-7.7,0-2.6-1.6-4.5-5.1-6.1s-3.5-1.7-3.5-2.8,1.2-1.9,3.5-1.9h.2a11.2,11.2,0,0,1,4.2.8h.6a.7.7,0,0,0,.3-.5l.6-3.4a.7.7,0,0,0-.5-.8,16.3,16.3,0,0,0-4.9-.7c-6.1,0-10.4,3.1-10.4,7.4s3.1,5.1,5.4,6.1,3.2,1.8,3.2,2.8-1.9,2.2-3.7,2.2a13,13,0,0,1-5.8-1.2h-.6a.7.7,0,0,0-.4.5l-.6,3.6A.7.7,0,0,0,72.3,233.5Z" style="fill:#ffe6ce"/><path d="M36.6,212.5a20.8,20.8,0,0,1,9.7,6.7.7.7,0,0,0,.6.3h.3a.7.7,0,0,0,.4-.8l-1.2-5.6h0a2.6,2.6,0,0,0-2.8-1.9H36.8a.7.7,0,0,0-.2,1.4Z" style="fill:#ffe6ce"/><path d="M61.3,234.3l.5.3h4.9a.7.7,0,0,0,.7-.6l3.7-22a.7.7,0,0,0-.2-.6l-.5-.3H65.6a.7.7,0,0,0-.7.6l-3.7,22A.7.7,0,0,0,61.3,234.3Z" style="fill:#ffe6ce"/><path d="M41.6,216.2a.7.7,0,0,0-1.1.8l5,17a.7.7,0,0,0,.7.5h5.7a.7.7,0,0,0,.7-.4L62,212.2a.7.7,0,0,0-.7-1H56.1a.7.7,0,0,0-.7.5l-6.1,15.5-.7-2.4h0A24.3,24.3,0,0,0,41.6,216.2Z" style="fill:#ffe6ce"/><path d="M121.2,85.4H27.3c-3.4,0-6.1,2.3-6.1,5.2v52.7c0,2.8,2.7,5.2,6.1,5.2h93.9c3.4,0,6.1-2.3,6.1-5.2V90.6C127.3,87.7,124.6,85.4,121.2,85.4Zm-.1,57.7H27.5l-.2-52.6h93.8Z" style="fill:#ffe6ce"/><path d="M60.2,133.9A22.2,22.2,0,0,0,72.9,130a22.3,22.3,0,0,0,12.9,4c11.1,0,20.1-7.7,20.1-17.1s-9-17.1-20.1-17.1a22.3,22.3,0,0,0-12.9,4A22.2,22.2,0,0,0,60.2,100c-11,0-20,7.6-20,16.9S49.2,133.9,60.2,133.9Zm41.3-17c0,7.4-7.1,13.4-15.8,13.4a17.6,17.6,0,0,1-9.8-2.9,14.9,14.9,0,0,0,0-21,17.5,17.5,0,0,1,9.8-2.9C94.4,103.5,101.5,109.5,101.5,116.9Z" style="fill:#ffe6ce"/><path d="M93.2,298.7l7.2-7.2L87.9,279,68.2,298.7H21.8v58.9H122.3V298.7Zm-5.3-11.3,4.2,4.2L43.7,339.9H39.5v-4.2Zm28.6,64.3H27.7V304.5H62.3L33.6,333.3v12.5H46.1l41.2-41.2h29.1Z" style="fill:#ffe6ce"/><text transform="translate(88.8 341.1) scale(0.58)" style="font-size:49.2720947265625px;fill:#ffe6ce;font-family:Oswald-Light, Oswald">€</text></svg>