<svg xmlns="http://www.w3.org/2000/svg" viewBox="0 0 369.6 358.4"><title>social</title><path d="M54.2,308.7c-.9-8.6-7.9-13.5-19.5-13.5H11.8L0,348.5H7.8l-2.2,9.8H26.7l3.1-14H40.3c10.9,0,19.6-13,19.6-23.8C60,315.4,58,311.4,54.2,308.7Zm-50.8,37L14.1,298H34.7c6.3,0,16.8,1.6,16.8,12.6,0,9.5-7.8,21-16.8,21H22l-3.1,14H3.5Zm36.8-4.2H27.6l-3.1,14H9.1l1.6-7H21.1l3.1-14H34.7c10.3,0,18.7-11.7,19.6-22.1a11.3,11.3,0,0,1,2.9,8C57.2,330,49.4,341.5,40.3,341.5ZM28.4,320.6c6.2,0,9.1-5.9,9.1-9.9s-6.2-4.3-9.5-4.3H26.6l-3.5,13.9h5.3Zm.4-11.4c2.1,0,5.9.2,5.9,1.5s-1.9,7.1-6.3,7.1H26.7Z" style="fill:#ffe6ce"/><path d="M140.2,234.7a24.9,24.9,0,0,0-5.7-10.1,27.4,27.4,0,0,0-9.2-6.5,29.8,29.8,0,0,0-11.9-2.5H112c-1.6.1-3.2.2-4.8.4a32.4,32.4,0,0,0-12,4.1,28.1,28.1,0,0,0-10.7,10.8,38,38,0,0,0-3.1,9.2,25,25,0,0,0,1.2,11.8,16.2,16.2,0,0,0,6.1,8,7.6,7.6,0,0,0,3.4,1.5h0c2.5,0,3-2.4,3.3-3.6v-.6l.2-.5c.3-1.1.8-2.7,0-4.1a7.5,7.5,0,0,0-.9-1.3l-.4-.5a11,11,0,0,1-1.7-6.2,18.4,18.4,0,0,1,2.2-8.9,17.6,17.6,0,0,1,13-9.2,23.2,23.2,0,0,1,10.1.6,13.6,13.6,0,0,1,6.5,4.3,13.9,13.9,0,0,1,2.9,8,30.2,30.2,0,0,1-.2,5.5c-.6,5.2-2.1,9.5-4.5,12.5s-4.1,3.8-6.4,3.8H116a5.4,5.4,0,0,1-3.3-1,4.4,4.4,0,0,1-1.8-2.7,8.4,8.4,0,0,1,.5-4.1v-.2c.4-1.3.7-2.5,1.1-3.6s1.2-3.7,1.7-5.9a13.7,13.7,0,0,0,.2-6.2,7.1,7.1,0,0,0-3.3-4.6,8.2,8.2,0,0,0-6.4-.5c-3.1,1.1-5.5,3.9-6.6,7.9a16.9,16.9,0,0,0-.5,6.2,19.2,19.2,0,0,0,1.2,4.9v.6L96.4,261l-2,8.5-.2.6a49.2,49.2,0,0,0-1.6,9.6v1.5a45.2,45.2,0,0,0,.1,8.4,2.5,2.5,0,0,0,1.5,2.2,1.9,1.9,0,0,0,1.1.4h0c1,0,1.6-.7,2.7-1.9a37.3,37.3,0,0,0,6.2-10.5,45.2,45.2,0,0,0,1.8-6.1l.3-1.2,1.1-4.2,2.1,1.5a15.3,15.3,0,0,0,6.5,1.9,19.8,19.8,0,0,0,7.1-.9,20.9,20.9,0,0,0,5.5-2.5c6.2-4,10.4-10.9,11.9-19.6a39.5,39.5,0,0,0,.6-6.9A25.2,25.2,0,0,0,140.2,234.7Zm-3,13.5c-1.3,7.7-5,13.9-10.4,17.3a17.5,17.5,0,0,1-4.6,2.1,16.7,16.7,0,0,1-5.9.7,11.8,11.8,0,0,1-5-1.4A7.8,7.8,0,0,1,108,264a1.7,1.7,0,0,0-3.1.4l-.8,3-1.1,4.3-.3,1.2a41.4,41.4,0,0,1-1.7,5.6,35.2,35.2,0,0,1-5.1,9,57.8,57.8,0,0,1,.1-6.2v-1.5a46.4,46.4,0,0,1,1.5-9l.2-.6,2-8.5,2.2-9.1v-.3a3,3,0,0,0,.1-2A16.5,16.5,0,0,1,101,246a13.6,13.6,0,0,1,.4-4.9c.7-2.8,2.3-4.8,4.4-5.5l1.6-.3a4.3,4.3,0,0,1,2.1.5,3.7,3.7,0,0,1,1.7,2.5,10.7,10.7,0,0,1-.2,4.6c-.5,2.1-1,3.8-1.6,5.6s-.8,2.4-1.1,3.7v.2a11.3,11.3,0,0,0-.5,5.8,7.7,7.7,0,0,0,3.1,4.6,8.8,8.8,0,0,0,5.3,1.6h.4c3.4-.1,6.4-1.8,9-5.1s4.6-8.4,5.2-14.2a33.4,33.4,0,0,0,.2-6.1,17.2,17.2,0,0,0-3.6-9.9,17,17,0,0,0-8.1-5.4,26.6,26.6,0,0,0-11.7-.7A20.9,20.9,0,0,0,92,234a21.7,21.7,0,0,0-2.6,10.6,14.3,14.3,0,0,0,2.3,8.1l.7.9.5.7a4.7,4.7,0,0,1-.3,1.4l-.2.7-.2.8-.2.8-1.2-.7a12.8,12.8,0,0,1-5-6.6,22,22,0,0,1-1-9.9,34.5,34.5,0,0,1,2.7-8.2,24.7,24.7,0,0,1,9.4-9.5,29.1,29.1,0,0,1,10.7-3.6l4.5-.4a26.8,26.8,0,0,1,11.8,2.2,24.1,24.1,0,0,1,8.1,5.7,21.6,21.6,0,0,1,4.9,8.8,21.8,21.8,0,0,1,.8,6.2A36.3,36.3,0,0,1,137.2,248.2Z" style="fill:#ffe6ce"/><path d="M357.6,0h-36a12,12,0,0,0-12,12V32a12,12,0,0,0,12,12h36a12,12,0,0,0,12-12V12A12,12,0,0,0,357.6,0Zm9.3,32a9.3,9.3,0,0,1-9.3,9.3h-36a9.3,9.3,0,0,1-9.3-9.3V12a9.3,9.3,0,0,1,9.3-9.3h36a9.3,9.3,0,0,1,9.3,9.3Zm-36,1.3L350.5,22,330.9,10.7Zm2.7-17.9L345.1,22l-11.5,6.7Z" style="fill:#ffe6ce"/><path d="M293.7,78.9a1.4,1.4,0,0,0-1.6,0l-1.4.6c1.8-2.3,1.9-3.8,1.8-4.2a1.4,1.4,0,0,0-2.1-1,11.9,11.9,0,0,1-6.5,2.2,12.9,12.9,0,0,0-21.6,11c-11.9-.3-21.5-11.5-21.6-11.6a1.4,1.4,0,0,0-2.2.2,12.7,12.7,0,0,0,.3,13.5,1.4,1.4,0,0,0-2,1.2,12.3,12.3,0,0,0,4.9,10.6l-.5.3a1.4,1.4,0,0,0-.3,1.3,12.1,12.1,0,0,0,8.7,8.5,18.2,18.2,0,0,1-10.4,2.9,21.5,21.5,0,0,1-3.3-.2,1.4,1.4,0,0,0-1.1,2.4c6.2,4.7,13.7,5.6,18.8,5.6a36.8,36.8,0,0,0,7.1-.6c26.6-6.2,27.6-30,27.6-34.4,5-4.6,5.8-6.4,5.9-6.8A1.4,1.4,0,0,0,293.7,78.9Zm-7.6,6.7a1.4,1.4,0,0,0-.4,1.1c0,.3,1.5,25.9-25.4,32.2a34.9,34.9,0,0,1-6.5.6,31.9,31.9,0,0,1-12.7-2.4c4.1-.3,9.1-1.5,12.7-5.5a1.4,1.4,0,0,0-1-2.3,9.8,9.8,0,0,1-8.3-5,7.4,7.4,0,0,0,3.2-.5,1.4,1.4,0,0,0-.3-2.6c-.3-.1-6.4-1.5-7.6-8a6.7,6.7,0,0,0,3.3.5,1.4,1.4,0,0,0,.7-2.4c-.3-.2-6.1-5.3-3.6-12,3.4,3.5,12.7,11.6,24,11a1.4,1.4,0,0,0,1.2-1.7,10.2,10.2,0,0,1,9.8-12.7,10.1,10.1,0,0,1,7.2,3,1.4,1.4,0,0,0,.9.4h.2a14.4,14.4,0,0,0,4.4-.7,19.9,19.9,0,0,1-2.3,2,1.4,1.4,0,0,0,.9,2.4l2.4-.3Z" style="fill:#ffe6ce"/><path d="M200.2,134H187.7c-2.4,0-14.7.7-18,13.8-.1.1-1.2,3.4-1.2,11.1H157.4a1.8,1.8,0,0,0-1.8,1.8V171a1.8,1.8,0,0,0,1.8,1.8h12.2v37a1.8,1.8,0,0,0,1.8,1.8h14a1.8,1.8,0,0,0,1.8-1.8v-37h12.3a1.8,1.8,0,0,0,1.8-1.8V160.7a1.8,1.8,0,0,0-1.8-1.8H187.2v-4.4c0-2.9,1.9-6.1,7.1-6.1h5.8a1.8,1.8,0,0,0,1.8-1.8V135.8A1.8,1.8,0,0,0,200.2,134Zm-1.8,10.7h-4c-7.4,0-10.7,4.9-10.7,9.7v6.2a1.8,1.8,0,0,0,1.8,1.8h12.3v6.8H185.4a1.8,1.8,0,0,0-1.8,1.8v37H173.2V171a1.8,1.8,0,0,0-1.8-1.8H159.2v-6.7h11.2a1.8,1.8,0,0,0,1.8-1.8c-.2-8.2,1-11.6,1-11.8,2.7-10.4,11.8-11.2,14.6-11.2h10.7v7.1Z" style="fill:#ffe6ce"/></svg>