<svg xmlns="http://www.w3.org/2000/svg" viewBox="0 0 320.6 394.5"><title>titre</title><circle cx="265.1" cy="307.2" r="55.5" transform="translate(-139.6 277.4) rotate(-45)" style="fill:#00ab9c"/><path d="M145.9,247.4H94V394.5H63.5V247.4H11.3V217H145.9Z" style="fill:#fff"/><path d="M58.9,108.5a40.1,40.1,0,0,1,21.4,21.4,40.1,40.1,0,0,1,0,31.2,40.1,40.1,0,0,1-21.4,21.4,39.1,39.1,0,0,1-15.6,3.2H29.1l5.6-13.8h8.6a26,26,0,0,0,10.1-2,27.3,27.3,0,0,0,8.6-5.7,27.6,27.6,0,0,0,5.7-8.5,26.5,26.5,0,0,0,0-20.2,27.4,27.4,0,0,0-5.7-8.6,27.4,27.4,0,0,0-8.6-5.7,26,26,0,0,0-10.1-2H23.8v66.5H10V105.4H43.3A39.1,39.1,0,0,1,58.9,108.5Z" style="fill:#fff"/><path d="M152.5,134.2a28.4,28.4,0,0,1-1.2,8.3,29.4,29.4,0,0,1-3.3,7.3,28.5,28.5,0,0,1-5.2,6,27.9,27.9,0,0,1-6.7,4.4l16.4,25.5H136.1L121.6,163h-9.4l5.6-13.8h6a14.6,14.6,0,0,0,10.7-4.5,16.1,16.1,0,0,0,3.2-4.9,15,15,0,0,0-3.2-16.3,14.6,14.6,0,0,0-10.7-4.5H107.5v66.5H93.7V105.4h30a27.5,27.5,0,0,1,11.2,2.3A29.4,29.4,0,0,1,150.2,123,27.5,27.5,0,0,1,152.5,134.2Z" style="fill:#fff"/><path d="M247,185.6H231.9l-6.2-13.8-6.2-13.8-16.3-36-16.3,36h20.9l6.2,13.8H180.7l-6.2,13.8H159.4l36.2-80.2h15.1Z" style="fill:#fff"/><path d="M83.3,41.7a41.4,41.4,0,0,1-1.9,12.6,41.9,41.9,0,0,1-5.3,11l7.2,7.3V92.2L41.6,50.4V31L66.1,55.4a27.6,27.6,0,0,0,3.4-13.6,27.9,27.9,0,0,0-2.1-10.7A27.4,27.4,0,0,0,61.4,22a28.2,28.2,0,0,0-9.1-6.1,27.5,27.5,0,0,0-10.8-2.1A27.2,27.2,0,0,0,31,15.9,28.2,28.2,0,0,0,21.9,22a27.4,27.4,0,0,0-6.1,9.1,27.9,27.9,0,0,0-2.1,10.7,28.3,28.3,0,0,0,2.1,10.7A28.1,28.1,0,0,0,31,67.6a27.9,27.9,0,0,0,10.7,2.1l2.9-.2,2.8-.4L58.2,80a44.9,44.9,0,0,1-8,2.5,41.7,41.7,0,0,1-24.9-2.4,41.3,41.3,0,0,1-13.2-8.9A42.5,42.5,0,0,1,3.3,58,40.7,40.7,0,0,1,0,41.7,40.7,40.7,0,0,1,3.3,25.5a42.5,42.5,0,0,1,8.9-13.3A41.3,41.3,0,0,1,25.4,3.3,40.7,40.7,0,0,1,41.6,0,40.6,40.6,0,0,1,57.9,3.3,41.8,41.8,0,0,1,80.1,25.5,40.7,40.7,0,0,1,83.3,41.7Z" style="fill:#fff"/><path d="M163.4,1.7V49.9A32.9,32.9,0,0,1,160.7,63a33.8,33.8,0,0,1-17.9,17.9,34,34,0,0,1-26.3,0A33.8,33.8,0,0,1,98.6,63,32.9,32.9,0,0,1,96,49.9V1.7h13.8V49.9a19.9,19.9,0,0,0,19.9,19.9A19.2,19.2,0,0,0,143.8,64a19.6,19.6,0,0,0,5.8-14.1V1.7Z" style="fill:#fff"/><path d="M255.4,82H240.3l-6.2-13.8-6.2-13.8-16.3-36-16.3,36h20.9l6.2,13.8H189.2L183,82H167.8L204.1,1.7h15.1Z" style="fill:#fff"/><path d="M174,297.4H160.3V217.3H174Z" style="fill:#fff"/><path d="M232,297.6l-30.5-30.5v30.3H187.8V217.3h13.8v30.4l30.3-30.3h19.5l-40,40,40.2,40.2Z" style="fill:#fff"/></svg>