<svg xmlns="http://www.w3.org/2000/svg" viewBox="0 0 898.5 597.2"><title>valeurs</title><rect x="653" y="194.9" width="203.4" height="203.43" transform="translate(11.3 620.5) rotate(-45)" style="fill:#191919"/><rect x="42.1" y="198.5" width="203.4" height="203.43" transform="translate(-170.1 189.6) rotate(-45)" style="fill:#191919"/><rect x="500.2" y="42.1" width="203.4" height="203.43" transform="translate(74.6 467.7) rotate(-45)" style="fill:#00ab9c"/><rect x="501.1" y="348.7" width="203.4" height="203.43" transform="translate(-141.9 558.2) rotate(-45)" style="fill:#00ab9c"/><rect x="349.9" y="197.5" width="203.4" height="203.43" transform="translate(-79.3 407) rotate(-45)" style="fill:#191919"/><rect x="193" y="44" width="203.4" height="203.43" transform="translate(-16.7 251.1) rotate(-45)" style="fill:#00ab9c"/><rect x="199.6" y="351.6" width="203.4" height="203.43" transform="translate(-232.3 345.9) rotate(-45)" style="fill:#00ab9c"/><path d="M251.1,161h6.4q3.4,0,4.9,1.8a8.2,8.2,0,0,1,1.5,5.2,7.9,7.9,0,0,1-1.5,5,5.7,5.7,0,0,1-4.8,1.9h-3.9v12.6h-2.5Zm5.7,12.2a4.6,4.6,0,0,0,3.5-1.1q1-1.1,1-4a9.9,9.9,0,0,0-.4-3.2,2.6,2.6,0,0,0-1.3-1.6,6.6,6.6,0,0,0-2.8-.5h-3.2v10.3Z" style="fill:#ffe6ce"/><path d="M268,187.2a4.2,4.2,0,0,1-1.6-2.3,14.6,14.6,0,0,1-.5-4.4v-4.8a14.1,14.1,0,0,1,.5-4.4,4.1,4.1,0,0,1,1.7-2.3,5.6,5.6,0,0,1,2.9-.7,4.8,4.8,0,0,1,3,.8,4.4,4.4,0,0,1,1.5,2.5,19.7,19.7,0,0,1,.4,4.5v1.7h-7.7v3.3a8.3,8.3,0,0,0,.6,3.8,2.2,2.2,0,0,0,2.1,1.1,2.4,2.4,0,0,0,1.9-.8,4.5,4.5,0,0,0,.7-2.9v-1.3h2.3v1.1a6.8,6.8,0,0,1-1.2,4.2,4.5,4.5,0,0,1-3.8,1.5A5.4,5.4,0,0,1,268,187.2Zm5.6-10.7v-1.6a15.8,15.8,0,0,0-.2-2.7,2.9,2.9,0,0,0-.7-1.5,2.3,2.3,0,0,0-1.7-.6,2.2,2.2,0,0,0-2.5,2,14.1,14.1,0,0,0-.3,3.1v1.3Z" style="fill:#ffe6ce"/><path d="M279.8,186.8a5.1,5.1,0,0,1-.8-3V168.6h2.4v14.7a3.6,3.6,0,0,0,.4,2.1,1.6,1.6,0,0,0,1.4.6,3.3,3.3,0,0,0,1.7-.5,7.3,7.3,0,0,0,1.7-1.4V168.6h2.4v19h-2.4v-2.1a7.5,7.5,0,0,1-2.1,1.8,5.2,5.2,0,0,1-2.5.6A2.5,2.5,0,0,1,279.8,186.8Z" style="fill:#ffe6ce"/><path d="M292.8,168.6h2.4v1.6a4.5,4.5,0,0,1,3.7-1.9,3.4,3.4,0,0,1,3.4,2.1,13.9,13.9,0,0,1,.9,5.5v4a13.8,13.8,0,0,1-1,6,3.6,3.6,0,0,1-3.6,2.1,4.6,4.6,0,0,1-3.4-1.8v7.8h-2.4Zm7.5,16a15,15,0,0,0,.5-4.6v-4.1a13.3,13.3,0,0,0-.5-4.4,2,2,0,0,0-2.1-1.3,4.3,4.3,0,0,0-3,1.5v13a4.1,4.1,0,0,0,3,1.4A2,2,0,0,0,300.2,184.6Z" style="fill:#ffe6ce"/><path d="M306.8,161h2.4v26.6h-2.4Z" style="fill:#ffe6ce"/><path d="M313.4,162.7h2.4V166h-2.4Zm0,5.9h2.4v19h-2.4Z" style="fill:#ffe6ce"/><path d="M321.7,187.2a4.2,4.2,0,0,1-1.6-2.3,14.6,14.6,0,0,1-.5-4.4v-4.8a14.1,14.1,0,0,1,.5-4.4,4.1,4.1,0,0,1,1.7-2.3,5.6,5.6,0,0,1,2.9-.7,4.8,4.8,0,0,1,3,.8,4.4,4.4,0,0,1,1.5,2.5,19.7,19.7,0,0,1,.4,4.5v1.7h-7.7v3.3a8.3,8.3,0,0,0,.6,3.8,2.2,2.2,0,0,0,2.1,1.1,2.4,2.4,0,0,0,1.9-.8,4.5,4.5,0,0,0,.7-2.9v-1.3h2.3v1.1a6.8,6.8,0,0,1-1.2,4.2,4.5,4.5,0,0,1-3.8,1.5A5.4,5.4,0,0,1,321.7,187.2Zm5.6-10.7v-1.6a15.8,15.8,0,0,0-.2-2.7,2.8,2.8,0,0,0-.7-1.5,2.3,2.3,0,0,0-1.7-.6,2.2,2.2,0,0,0-2.5,2,14.1,14.1,0,0,0-.3,3.1v1.3Z" style="fill:#ffe6ce"/><path d="M333,168.6h2.4v2.6a5.9,5.9,0,0,1,2-2.1,4.6,4.6,0,0,1,2.4-.7h.4V171l-1.2-.2a4.1,4.1,0,0,0-3.6,2.2v14.6H333Z" style="fill:#ffe6ce"/><path d="M563.2,161H565l8.5,20.7V161h2.2v26.6h-1.8l-8.5-20.9v20.9h-2.2Z" style="fill:#ffe6ce"/><path d="M580.3,186.7a4.5,4.5,0,0,1-1.1-3,5.9,5.9,0,0,1,.7-3.1,6.7,6.7,0,0,1,2.3-2.2,42.1,42.1,0,0,1,4.6-2.3v-1.3a13.8,13.8,0,0,0-.2-2.8,2.5,2.5,0,0,0-.7-1.4,2.2,2.2,0,0,0-1.4-.4q-2.7,0-2.7,3.3v.7h-2.4a6.5,6.5,0,0,1,1.3-4.3,5,5,0,0,1,3.9-1.4,4.1,4.1,0,0,1,3.6,1.5,8.4,8.4,0,0,1,1.1,4.8v9.2q0,.9,0,2.1t.1,1.7h-2.1L587,185a4.5,4.5,0,0,1-1.5,2.1,3.8,3.8,0,0,1-2.5.8A3.5,3.5,0,0,1,580.3,186.7Zm5.3-1.5a5.4,5.4,0,0,0,1.3-1.6v-5.9l-3.2,1.8a5,5,0,0,0-1.5,1.5,3.9,3.9,0,0,0-.5,2.1,3.1,3.1,0,0,0,.6,2.1,2,2,0,0,0,1.6.7A2.7,2.7,0,0,0,585.6,185.2Z" style="fill:#ffe6ce"/><path d="M594.5,186.8a5.4,5.4,0,0,1-.7-3.1V170.2h-2.3v-1.6h2.3v-5.9h2.4v5.9h3.2v1.6h-3.2v13.3a4.2,4.2,0,0,0,.3,2,1.5,1.5,0,0,0,1.3.5l1.4-.2v1.8l-2,.2A3,3,0,0,1,594.5,186.8Z" style="fill:#ffe6ce"/><path d="M602.5,186.8a5.1,5.1,0,0,1-.8-3V168.6h2.4v14.7a3.6,3.6,0,0,0,.4,2.1,1.6,1.6,0,0,0,1.4.6,3.3,3.3,0,0,0,1.7-.5,7.3,7.3,0,0,0,1.7-1.4V168.6h2.4v19h-2.4v-2.1a7.5,7.5,0,0,1-2.1,1.8,5.2,5.2,0,0,1-2.5.6A2.5,2.5,0,0,1,602.5,186.8Z" style="fill:#ffe6ce"/><path d="M615.6,168.6h2.4v2.6a5.9,5.9,0,0,1,2-2.1,4.6,4.6,0,0,1,2.4-.7h.4V171l-1.2-.2a4.1,4.1,0,0,0-3.6,2.2v14.6h-2.4Z" style="fill:#ffe6ce"/><path d="M626.9,187.2a4.2,4.2,0,0,1-1.6-2.3,14.6,14.6,0,0,1-.5-4.4v-4.8a14.1,14.1,0,0,1,.5-4.4A4.1,4.1,0,0,1,627,169a5.6,5.6,0,0,1,2.9-.7,4.8,4.8,0,0,1,3,.8,4.4,4.4,0,0,1,1.5,2.5,19.7,19.7,0,0,1,.4,4.5v1.7h-7.7v3.3a8.3,8.3,0,0,0,.6,3.8,2.2,2.2,0,0,0,2.1,1.1,2.4,2.4,0,0,0,1.9-.8,4.5,4.5,0,0,0,.7-2.9v-1.3h2.3v1.1a6.8,6.8,0,0,1-1.2,4.2,4.5,4.5,0,0,1-3.8,1.5A5.4,5.4,0,0,1,626.9,187.2Zm5.6-10.7v-1.6a15.8,15.8,0,0,0-.2-2.7,2.9,2.9,0,0,0-.7-1.5,2.3,2.3,0,0,0-1.7-.6,2.2,2.2,0,0,0-2.5,2,14.1,14.1,0,0,0-.3,3.1v1.3Z" style="fill:#ffe6ce"/><path d="M638.5,161h2.4v26.6h-2.4Z" style="fill:#ffe6ce"/><path d="M103.6,305.2h9.6v1.9h-7.1v10h5.8V319h-5.8v11h7.2v1.9h-9.7Z" style="fill:#ffe6ce"/><path d="M117.7,331.2a4.6,4.6,0,0,1-1.5-2.5,17.8,17.8,0,0,1-.4-4v-4.4a17.5,17.5,0,0,1,.4-4.4,4.3,4.3,0,0,1,1.5-2.5,5.2,5.2,0,0,1,3.1-.8q2.8,0,3.8,1.5a8.3,8.3,0,0,1,1,4.6v.9h-2.2v-.9a10.5,10.5,0,0,0-.2-2.6,2.2,2.2,0,0,0-.8-1.3,2.7,2.7,0,0,0-1.5-.4,2.4,2.4,0,0,0-1.7.5,2.9,2.9,0,0,0-.8,1.7,18.9,18.9,0,0,0-.2,3.3v5.3a16.2,16.2,0,0,0,.2,3.1,2.7,2.7,0,0,0,.8,1.6,2.6,2.6,0,0,0,1.7.5,2.5,2.5,0,0,0,1.7-.5,2.4,2.4,0,0,0,.7-1.4,15.1,15.1,0,0,0,.2-2.7v-1.1h2.2v.9a13.8,13.8,0,0,1-.4,3.5,3.9,3.9,0,0,1-1.4,2.2,5,5,0,0,1-3,.8A4.9,4.9,0,0,1,117.7,331.2Z" style="fill:#ffe6ce"/><path d="M129.8,330.4a10.3,10.3,0,0,1-1.1-5.4v-5.3a10.3,10.3,0,0,1,1.1-5.4q1.1-1.8,3.9-1.8t4,1.8a10.3,10.3,0,0,1,1.1,5.4V325a10.3,10.3,0,0,1-1.1,5.4q-1.1,1.8-4,1.8T129.8,330.4Zm5.7-.7a3.1,3.1,0,0,0,.7-1.7,20,20,0,0,0,.2-2.9v-5.5a20,20,0,0,0-.2-2.9,3.1,3.1,0,0,0-.7-1.7,2.3,2.3,0,0,0-1.8-.6,2.2,2.2,0,0,0-1.7.6,3.2,3.2,0,0,0-.7,1.7,20,20,0,0,0-.2,2.9v5.5a20,20,0,0,0,.2,2.9,3.2,3.2,0,0,0,.7,1.7,2.2,2.2,0,0,0,1.7.6A2.3,2.3,0,0,0,135.5,329.7Z" style="fill:#ffe6ce"/><path d="M142.7,331.1a5.1,5.1,0,0,1-.8-3V312.9h2.4v14.7a3.6,3.6,0,0,0,.4,2.1,1.6,1.6,0,0,0,1.4.6,3.3,3.3,0,0,0,1.7-.5,7.3,7.3,0,0,0,1.7-1.4V312.9H152v19h-2.4v-2.1a7.5,7.5,0,0,1-2.1,1.8,5.2,5.2,0,0,1-2.5.6A2.5,2.5,0,0,1,142.7,331.1Z" style="fill:#ffe6ce"/><path d="M157.5,331a5.4,5.4,0,0,1-.7-3.1V314.4h-2.3v-1.6h2.3V307h2.4v5.9h3.2v1.6h-3.2v13.3a4.2,4.2,0,0,0,.3,2,1.5,1.5,0,0,0,1.3.5l1.4-.2v1.8l-2,.2A3,3,0,0,1,157.5,331Z" style="fill:#ffe6ce"/><path d="M166.7,331.4a4.2,4.2,0,0,1-1.6-2.3,14.6,14.6,0,0,1-.5-4.4v-4.8a14.1,14.1,0,0,1,.5-4.4,4.1,4.1,0,0,1,1.7-2.3,5.6,5.6,0,0,1,2.9-.7,4.8,4.8,0,0,1,3,.8,4.4,4.4,0,0,1,1.5,2.5,19.7,19.7,0,0,1,.4,4.5v1.7h-7.7v3.3a8.3,8.3,0,0,0,.6,3.8,2.2,2.2,0,0,0,2.1,1.1,2.4,2.4,0,0,0,1.9-.8,4.5,4.5,0,0,0,.7-2.9v-1.3h2.3v1.1a6.8,6.8,0,0,1-1.2,4.2,4.5,4.5,0,0,1-3.8,1.5A5.4,5.4,0,0,1,166.7,331.4Zm5.6-10.7v-1.6a15.8,15.8,0,0,0-.2-2.7,2.9,2.9,0,0,0-.7-1.5,2.3,2.3,0,0,0-1.7-.6,2.2,2.2,0,0,0-2.5,2,14.1,14.1,0,0,0-.3,3.1v1.3Z" style="fill:#ffe6ce"/><path d="M387.2,335.8a10.8,10.8,0,0,1-1.5-6.1V319.1a10.7,10.7,0,0,1,1.5-6.2q1.5-2.2,5.2-2.2t4.9,1.9a9.3,9.3,0,0,1,1.4,5.6v1.6h-2.4v-1.5a13.4,13.4,0,0,0-.3-3.1,3.2,3.2,0,0,0-1.2-1.9,4,4,0,0,0-2.5-.7,4.2,4.2,0,0,0-2.7.7,3.6,3.6,0,0,0-1.2,2,13.2,13.2,0,0,0-.3,3.2v11.3a8.4,8.4,0,0,0,.9,4.5,3.7,3.7,0,0,0,3.3,1.4q2.3,0,3.1-1.4a9.3,9.3,0,0,0,.8-4.4v-1.7h2.4V330a10.4,10.4,0,0,1-1.4,5.9q-1.4,2.1-4.9,2.1T387.2,335.8Z" style="fill:#ffe6ce"/><path d="M403.9,337.2a4.2,4.2,0,0,1-1.6-2.3,14.6,14.6,0,0,1-.5-4.4v-4.8a14.1,14.1,0,0,1,.5-4.4A4.1,4.1,0,0,1,404,319a5.6,5.6,0,0,1,2.9-.7,4.8,4.8,0,0,1,3,.8,4.4,4.4,0,0,1,1.5,2.5,19.7,19.7,0,0,1,.4,4.5v1.7h-7.7v3.3a8.3,8.3,0,0,0,.6,3.8,2.2,2.2,0,0,0,2.1,1.1,2.4,2.4,0,0,0,1.9-.8,4.5,4.5,0,0,0,.7-2.9v-1.3h2.3v1.1a6.8,6.8,0,0,1-1.2,4.2,4.5,4.5,0,0,1-3.8,1.5A5.4,5.4,0,0,1,403.9,337.2Zm5.6-10.7V325a15.8,15.8,0,0,0-.2-2.7,2.8,2.8,0,0,0-.7-1.5,2.3,2.3,0,0,0-1.7-.6,2.2,2.2,0,0,0-2.5,2,14.1,14.1,0,0,0-.3,3.1v1.3Z" style="fill:#ffe6ce"/><path d="M415.3,318.6h2.4v2.6a5.9,5.9,0,0,1,2-2.1,4.6,4.6,0,0,1,2.4-.7h.4V321l-1.2-.2a4.1,4.1,0,0,0-3.6,2.2v14.6h-2.4Z" style="fill:#ffe6ce"/><path d="M426.7,336.8a5.4,5.4,0,0,1-.7-3.1V320.2h-2.3v-1.6H426v-5.9h2.4v5.9h3.2v1.6h-3.2v13.3a4.2,4.2,0,0,0,.3,2,1.5,1.5,0,0,0,1.3.5l1.4-.2v1.8l-2,.2A3,3,0,0,1,426.7,336.8Z" style="fill:#ffe6ce"/><path d="M434.4,312.8h2.4V316h-2.4Zm0,5.9h2.4v19h-2.4Z" style="fill:#ffe6ce"/><path d="M442,320.4h-2.4v-1.7H442v-2a6.7,6.7,0,0,1,.8-3.6,3.2,3.2,0,0,1,2.9-1.2l1.7.2v1.8h-1.3q-1.1,0-1.4.6a5,5,0,0,0-.3,2.2v2.2h7.2v19h-2.4V320.4h-4.8v17.3H442Zm7.4-7.6h2.2V316h-2.2Z" style="fill:#ffe6ce"/><path d="M457.2,337a4.6,4.6,0,0,1-1.5-2.5,17.8,17.8,0,0,1-.4-4V326a17.5,17.5,0,0,1,.4-4.4,4.3,4.3,0,0,1,1.5-2.5,5.2,5.2,0,0,1,3.1-.8q2.8,0,3.8,1.5a8.3,8.3,0,0,1,1,4.6v.9H463v-.9a10.5,10.5,0,0,0-.2-2.6,2.2,2.2,0,0,0-.8-1.3,2.7,2.7,0,0,0-1.5-.4,2.4,2.4,0,0,0-1.7.5,2.9,2.9,0,0,0-.8,1.7,18.9,18.9,0,0,0-.2,3.3v5.3a16.2,16.2,0,0,0,.2,3.1,2.7,2.7,0,0,0,.8,1.6,2.6,2.6,0,0,0,1.7.5,2.5,2.5,0,0,0,1.7-.5,2.4,2.4,0,0,0,.7-1.4,15.1,15.1,0,0,0,.2-2.7v-1.1h2.2v.9a13.8,13.8,0,0,1-.4,3.5,3.9,3.9,0,0,1-1.4,2.2,5,5,0,0,1-3,.8A4.9,4.9,0,0,1,457.2,337Z" style="fill:#ffe6ce"/><path d="M469,336.7a4.5,4.5,0,0,1-1.1-3,5.9,5.9,0,0,1,.7-3.1,6.7,6.7,0,0,1,2.3-2.2,42.1,42.1,0,0,1,4.6-2.3v-1.3a13.8,13.8,0,0,0-.2-2.8,2.5,2.5,0,0,0-.7-1.4,2.2,2.2,0,0,0-1.4-.4q-2.7,0-2.7,3.3v.7h-2.4a6.5,6.5,0,0,1,1.3-4.3,5,5,0,0,1,3.9-1.4,4.1,4.1,0,0,1,3.6,1.5,8.4,8.4,0,0,1,1.1,4.8v9.2q0,.9,0,2.1t.1,1.7h-2.1l-.4-2.6a4.5,4.5,0,0,1-1.5,2.1,3.8,3.8,0,0,1-2.5.8A3.5,3.5,0,0,1,469,336.7Zm5.3-1.5a5.4,5.4,0,0,0,1.3-1.6v-5.9l-3.2,1.8a5,5,0,0,0-1.5,1.5,3.9,3.9,0,0,0-.5,2.1,3.1,3.1,0,0,0,.6,2.1,2,2,0,0,0,1.6.7A2.7,2.7,0,0,0,474.3,335.2Z" style="fill:#ffe6ce"/><path d="M483.2,336.8a5.4,5.4,0,0,1-.7-3.1V320.2h-2.3v-1.6h2.3v-5.9h2.4v5.9h3.2v1.6h-3.2v13.3a4.2,4.2,0,0,0,.3,2,1.5,1.5,0,0,0,1.3.5l1.4-.2v1.8l-2,.2A3,3,0,0,1,483.2,336.8Z" style="fill:#ffe6ce"/><path d="M490.9,312.8h2.4V316h-2.4Zm0,5.9h2.4v19h-2.4Z" style="fill:#ffe6ce"/><path d="M498.1,336.2a10.3,10.3,0,0,1-1.1-5.4v-5.3a10.3,10.3,0,0,1,1.1-5.4q1.1-1.8,3.9-1.8t4,1.8a10.3,10.3,0,0,1,1.1,5.4v5.3a10.3,10.3,0,0,1-1.1,5.4q-1.1,1.8-4,1.8T498.1,336.2Zm5.7-.7a3.1,3.1,0,0,0,.7-1.7,20.2,20.2,0,0,0,.2-2.9v-5.5a20.2,20.2,0,0,0-.2-2.9,3.1,3.1,0,0,0-.7-1.7,2.3,2.3,0,0,0-1.8-.6,2.2,2.2,0,0,0-1.7.6,3.2,3.2,0,0,0-.7,1.7,20.2,20.2,0,0,0-.2,2.9v5.5a20.2,20.2,0,0,0,.2,2.9,3.2,3.2,0,0,0,.7,1.7,2.2,2.2,0,0,0,1.7.6A2.3,2.3,0,0,0,503.8,335.5Z" style="fill:#ffe6ce"/><path d="M510.5,318.6h2.4v2A7.6,7.6,0,0,1,515,319a5.2,5.2,0,0,1,2.5-.6,2.5,2.5,0,0,1,2.2,1.1,5.1,5.1,0,0,1,.8,3v15.3H518V322.9a3.7,3.7,0,0,0-.4-2.1,1.6,1.6,0,0,0-1.4-.6,3.4,3.4,0,0,0-1.6.5,7,7,0,0,0-1.6,1.3v15.7h-2.4Z" style="fill:#ffe6ce"/><path d="M712.6,305.2h6q3.6,0,5.1,1.7a7.4,7.4,0,0,1,1.5,5,9.3,9.3,0,0,1-.8,4.2,3.9,3.9,0,0,1-2.9,2.1l4.1,13.6h-2.4l-3.9-13.1h-4.2v13.1h-2.5Zm5.9,11.7a4.1,4.1,0,0,0,3.4-1.2,6,6,0,0,0,1-3.8,6.1,6.1,0,0,0-.9-3.7q-.9-1.2-3.3-1.2h-3.5v9.8Z" style="fill:#ffe6ce"/><path d="M730.7,331.4a4.2,4.2,0,0,1-1.6-2.3,14.6,14.6,0,0,1-.5-4.4v-4.8a14.1,14.1,0,0,1,.5-4.4,4.1,4.1,0,0,1,1.7-2.3,5.6,5.6,0,0,1,2.9-.7,4.8,4.8,0,0,1,3,.8,4.4,4.4,0,0,1,1.5,2.5,19.7,19.7,0,0,1,.4,4.5v1.7h-7.7v3.3a8.3,8.3,0,0,0,.6,3.8,2.2,2.2,0,0,0,2.1,1.1,2.4,2.4,0,0,0,1.9-.8,4.5,4.5,0,0,0,.7-2.9v-1.3h2.3v1.1a6.8,6.8,0,0,1-1.2,4.2,4.5,4.5,0,0,1-3.8,1.5A5.4,5.4,0,0,1,730.7,331.4Zm5.6-10.7v-1.6a15.8,15.8,0,0,0-.2-2.7,2.8,2.8,0,0,0-.7-1.5,2.3,2.3,0,0,0-1.7-.6,2.2,2.2,0,0,0-2.5,2,14.1,14.1,0,0,0-.3,3.1v1.3Z" style="fill:#ffe6ce"/><path d="M742.6,330.7a6.3,6.3,0,0,1-1.6-3.9l2-.6a5.9,5.9,0,0,0,1,3.2,2.8,2.8,0,0,0,2.3,1,2.5,2.5,0,0,0,1.9-.7,2.8,2.8,0,0,0,.7-2q0-1.9-2.3-3.8l-2.6-2.2a8.5,8.5,0,0,1-2-2.2,5.1,5.1,0,0,1-.6-2.6,4.1,4.1,0,0,1,1.2-3.1,4.7,4.7,0,0,1,3.3-1.1,4,4,0,0,1,3.2,1.3,6.1,6.1,0,0,1,1.3,3.7l-1.7.6q-.2-3.7-2.7-3.7a2.5,2.5,0,0,0-1.8.6,2.2,2.2,0,0,0-.7,1.7,3.4,3.4,0,0,0,.3,1.5,5.2,5.2,0,0,0,1.2,1.4l2.7,2.4a14.3,14.3,0,0,1,2.4,2.6,5.2,5.2,0,0,1,.8,2.9,4.3,4.3,0,0,1-1.3,3.4,5.1,5.1,0,0,1-3.6,1.2A4.7,4.7,0,0,1,742.6,330.7Z" style="fill:#ffe6ce"/><path d="M753.8,312.9h2.4v1.6a4.5,4.5,0,0,1,3.7-1.9,3.4,3.4,0,0,1,3.4,2.1,13.9,13.9,0,0,1,.9,5.5v4a13.8,13.8,0,0,1-1,6,3.6,3.6,0,0,1-3.6,2.1,4.6,4.6,0,0,1-3.4-1.8v7.8h-2.4Zm7.5,16a15,15,0,0,0,.5-4.6v-4.1a13.3,13.3,0,0,0-.5-4.4,2,2,0,0,0-2.1-1.3,4.3,4.3,0,0,0-3,1.5v13a4.1,4.1,0,0,0,3,1.4A2,2,0,0,0,761.3,328.8Z" style="fill:#ffe6ce"/><path d="M769.3,331.4a4.2,4.2,0,0,1-1.6-2.3,14.6,14.6,0,0,1-.5-4.4v-4.8a14.1,14.1,0,0,1,.5-4.4,4.1,4.1,0,0,1,1.7-2.3,5.6,5.6,0,0,1,2.9-.7,4.8,4.8,0,0,1,3,.8,4.4,4.4,0,0,1,1.5,2.5,19.7,19.7,0,0,1,.4,4.5v1.7h-7.7v3.3a8.3,8.3,0,0,0,.6,3.8,2.2,2.2,0,0,0,2.1,1.1,2.4,2.4,0,0,0,1.9-.8,4.5,4.5,0,0,0,.7-2.9v-1.3h2.3v1.1a6.8,6.8,0,0,1-1.2,4.2,4.5,4.5,0,0,1-3.8,1.5A5.4,5.4,0,0,1,769.3,331.4Zm5.6-10.7v-1.6a15.8,15.8,0,0,0-.2-2.7,2.9,2.9,0,0,0-.7-1.5,2.3,2.3,0,0,0-1.7-.6,2.2,2.2,0,0,0-2.5,2,14.1,14.1,0,0,0-.3,3.1v1.3Z" style="fill:#ffe6ce"/><path d="M782,331.2a4.6,4.6,0,0,1-1.5-2.5,17.9,17.9,0,0,1-.4-4v-4.4a17.5,17.5,0,0,1,.4-4.4,4.3,4.3,0,0,1,1.5-2.5,5.2,5.2,0,0,1,3.1-.8q2.8,0,3.8,1.5a8.3,8.3,0,0,1,1,4.6v.9h-2.2v-.9a10.6,10.6,0,0,0-.2-2.6,2.2,2.2,0,0,0-.8-1.3,2.7,2.7,0,0,0-1.5-.4,2.4,2.4,0,0,0-1.7.5,2.9,2.9,0,0,0-.8,1.7,18.8,18.8,0,0,0-.2,3.3v5.3a16.1,16.1,0,0,0,.2,3.1,2.7,2.7,0,0,0,.8,1.6,2.6,2.6,0,0,0,1.7.5,2.1,2.1,0,0,0,2.4-1.9,15.2,15.2,0,0,0,.2-2.7v-1.1h2.2v.9a13.9,13.9,0,0,1-.4,3.5,3.9,3.9,0,0,1-1.4,2.2,5,5,0,0,1-3,.8A4.9,4.9,0,0,1,782,331.2Z" style="fill:#ffe6ce"/><path d="M795.1,331a5.4,5.4,0,0,1-.7-3.1V314.4h-2.3v-1.6h2.3V307h2.4v5.9H800v1.6h-3.2v13.3a4.2,4.2,0,0,0,.3,2,1.5,1.5,0,0,0,1.3.5l1.4-.2v1.8l-2,.2A3,3,0,0,1,795.1,331Z" style="fill:#ffe6ce"/><path d="M712.6,354a11.1,11.1,0,0,1-.9-5.3v-3a12.9,12.9,0,0,1,.8-5.3,3.1,3.1,0,0,1,3-1.8,3.9,3.9,0,0,1,2.9,1.4v-7.8h2.1v23h-2.1v-1.2a3.8,3.8,0,0,1-2.8,1.4A3.2,3.2,0,0,1,712.6,354Zm5.8-1.1V341.4a3.8,3.8,0,0,0-2.4-1.2,1.8,1.8,0,0,0-1.8,1.1,10.1,10.1,0,0,0-.5,3.6v3.9a11.5,11.5,0,0,0,.5,3.9,1.8,1.8,0,0,0,1.8,1.2A3.6,3.6,0,0,0,718.4,352.9Z" style="fill:#ffe6ce"/><path d="M724.2,354.7a4.4,4.4,0,0,1-.7-2.6V338.9h2.1v12.7a3.1,3.1,0,0,0,.4,1.8,1.4,1.4,0,0,0,1.2.5,2.9,2.9,0,0,0,1.5-.4,6.3,6.3,0,0,0,1.4-1.2V338.9h2.1v16.4h-2.1v-1.8a6.5,6.5,0,0,1-1.8,1.5,4.5,4.5,0,0,1-2.2.6A2.2,2.2,0,0,1,724.2,354.7Z" style="fill:#ffe6ce"/><path d="M742.8,354.6a4.7,4.7,0,0,1-.6-2.7V340.3h-2v-1.4h2v-5.1h2.1v5.1H747v1.4h-2.7v11.5a3.6,3.6,0,0,0,.3,1.7,1.3,1.3,0,0,0,1.2.5h1.2v1.6l-1.8.2A2.6,2.6,0,0,1,742.8,354.6Z" style="fill:#ffe6ce"/><path d="M749.4,338.9h2.1v2.2a5.1,5.1,0,0,1,1.8-1.8,4,4,0,0,1,2-.6h.4V341l-1-.2a3.5,3.5,0,0,0-3.1,1.9v12.6h-2.1Z" style="fill:#ffe6ce"/><path d="M758,354.5a3.9,3.9,0,0,1-.9-2.6,5.1,5.1,0,0,1,.6-2.7,5.8,5.8,0,0,1,2-1.9,36.5,36.5,0,0,1,4-2v-1.2a11.9,11.9,0,0,0-.2-2.4,2.1,2.1,0,0,0-.6-1.2,1.9,1.9,0,0,0-1.2-.4q-2.3,0-2.3,2.8v.6h-2a5.6,5.6,0,0,1,1.1-3.7,4.3,4.3,0,0,1,3.4-1.2,3.5,3.5,0,0,1,3.1,1.3,7.3,7.3,0,0,1,.9,4.1v8q0,.8,0,1.8t.1,1.5h-1.8l-.3-2.3a3.9,3.9,0,0,1-1.3,1.8,3.3,3.3,0,0,1-2.1.7A3,3,0,0,1,758,354.5Zm4.6-1.3a4.6,4.6,0,0,0,1.1-1.4v-5.1l-2.8,1.6a4.3,4.3,0,0,0-1.3,1.3,3.3,3.3,0,0,0-.4,1.8,2.7,2.7,0,0,0,.5,1.8,1.7,1.7,0,0,0,1.4.6A2.4,2.4,0,0,0,762.6,353.3Z" style="fill:#ffe6ce"/><path d="M767.7,338.9h2.1l2.7,14.1,2.6-14.1h2l-3.4,16.4h-2.4Z" style="fill:#ffe6ce"/><path d="M779.7,354.5a3.9,3.9,0,0,1-.9-2.6,5.1,5.1,0,0,1,.6-2.7,5.8,5.8,0,0,1,2-1.9,36.5,36.5,0,0,1,4-2v-1.2a11.9,11.9,0,0,0-.2-2.4,2.1,2.1,0,0,0-.6-1.2,1.9,1.9,0,0,0-1.2-.4q-2.3,0-2.3,2.8v.6h-2a5.6,5.6,0,0,1,1.1-3.7,4.3,4.3,0,0,1,3.4-1.2,3.5,3.5,0,0,1,3.1,1.3,7.3,7.3,0,0,1,.9,4.1v8q0,.8,0,1.8t.1,1.5h-1.8l-.3-2.3a3.9,3.9,0,0,1-1.3,1.8,3.3,3.3,0,0,1-2.1.7A3,3,0,0,1,779.7,354.5Zm4.6-1.3a4.6,4.6,0,0,0,1.1-1.4v-5.1l-2.8,1.6a4.3,4.3,0,0,0-1.3,1.3,3.3,3.3,0,0,0-.4,1.8,2.7,2.7,0,0,0,.5,1.8,1.7,1.7,0,0,0,1.4.6A2.4,2.4,0,0,0,784.3,353.3Z" style="fill:#ffe6ce"/><path d="M790.8,333.8h2.1v2.8h-2.1Zm0,5.1h2.1v16.4h-2.1Z" style="fill:#ffe6ce"/><path d="M796.7,332.3h2.1v23h-2.1Z" style="fill:#ffe6ce"/><path d="M224.1,490.5a10.8,10.8,0,0,1-1.5-6.1V473.8a10.7,10.7,0,0,1,1.5-6.2q1.5-2.2,5.2-2.2t4.9,1.9a9.3,9.3,0,0,1,1.4,5.6v1.6h-2.4v-1.5a13.4,13.4,0,0,0-.3-3.1,3.2,3.2,0,0,0-1.2-1.9,4,4,0,0,0-2.5-.7,4.2,4.2,0,0,0-2.7.7,3.6,3.6,0,0,0-1.2,2,13.2,13.2,0,0,0-.3,3.2v11.3a8.4,8.4,0,0,0,.9,4.5,3.7,3.7,0,0,0,3.3,1.4q2.3,0,3.1-1.4a9.3,9.3,0,0,0,.8-4.4v-1.7h2.4v1.6a10.4,10.4,0,0,1-1.4,5.9q-1.4,2.1-4.9,2.1T224.1,490.5Z" style="fill:#ffe6ce"/><path d="M239.9,490.9a10.3,10.3,0,0,1-1.1-5.4v-5.3a10.3,10.3,0,0,1,1.1-5.4q1.1-1.8,3.9-1.8t4,1.8a10.3,10.3,0,0,1,1.1,5.4v5.3a10.3,10.3,0,0,1-1.1,5.4q-1.1,1.8-4,1.8T239.9,490.9Zm5.7-.7a3.1,3.1,0,0,0,.7-1.7,20.2,20.2,0,0,0,.2-2.9v-5.5a20.2,20.2,0,0,0-.2-2.9,3.1,3.1,0,0,0-.7-1.7,2.3,2.3,0,0,0-1.8-.6,2.2,2.2,0,0,0-1.7.6,3.2,3.2,0,0,0-.7,1.7,20.2,20.2,0,0,0-.2,2.9v5.5a20.2,20.2,0,0,0,.2,2.9,3.2,3.2,0,0,0,.7,1.7,2.2,2.2,0,0,0,1.7.6A2.3,2.3,0,0,0,245.6,490.2Z" style="fill:#ffe6ce"/><path d="M252.3,473.3h2.2v1.9a6.4,6.4,0,0,1,2.1-1.7,5.3,5.3,0,0,1,2.4-.6,2.9,2.9,0,0,1,3,2.5,6.6,6.6,0,0,1,2.2-1.8,5.4,5.4,0,0,1,2.5-.6,3,3,0,0,1,2.3,1,5,5,0,0,1,.9,3.3v15h-2.2V477.4a3.5,3.5,0,0,0-.5-2.2,1.7,1.7,0,0,0-1.4-.6,3.8,3.8,0,0,0-1.8.5,6.8,6.8,0,0,0-1.8,1.4,5.5,5.5,0,0,1,.1.7v15H260V477.4a3.5,3.5,0,0,0-.5-2.2,1.7,1.7,0,0,0-1.4-.6,3.6,3.6,0,0,0-1.8.5,8,8,0,0,0-1.8,1.4v15.8h-2.2Z" style="fill:#ffe6ce"/><path d="M273.4,473.3h2.2v1.9a6.4,6.4,0,0,1,2.1-1.7,5.3,5.3,0,0,1,2.4-.6,2.9,2.9,0,0,1,3,2.5,6.6,6.6,0,0,1,2.2-1.8,5.4,5.4,0,0,1,2.5-.6,3,3,0,0,1,2.3,1,5,5,0,0,1,.9,3.3v15h-2.2V477.4a3.5,3.5,0,0,0-.5-2.2,1.7,1.7,0,0,0-1.4-.6,3.8,3.8,0,0,0-1.8.5,6.8,6.8,0,0,0-1.8,1.4,5.5,5.5,0,0,1,.1.7v15h-2.3V477.4a3.5,3.5,0,0,0-.5-2.2,1.7,1.7,0,0,0-1.4-.6,3.6,3.6,0,0,0-1.8.5,8,8,0,0,0-1.8,1.4v15.8h-2.2Z" style="fill:#ffe6ce"/><path d="M295.2,491.6a5.1,5.1,0,0,1-.8-3V473.3h2.4v14.7a3.6,3.6,0,0,0,.4,2.1,1.6,1.6,0,0,0,1.4.6,3.3,3.3,0,0,0,1.7-.5,7.3,7.3,0,0,0,1.7-1.4V473.3h2.4v19h-2.4v-2.1a7.5,7.5,0,0,1-2.1,1.8,5.2,5.2,0,0,1-2.5.6A2.5,2.5,0,0,1,295.2,491.6Z" style="fill:#ffe6ce"/><path d="M308.2,473.3h2.4v2a7.6,7.6,0,0,1,2.1-1.7,5.2,5.2,0,0,1,2.5-.6,2.5,2.5,0,0,1,2.2,1.1,5.1,5.1,0,0,1,.8,3v15.3h-2.4V477.6a3.7,3.7,0,0,0-.4-2.1,1.6,1.6,0,0,0-1.4-.6,3.4,3.4,0,0,0-1.6.5,7,7,0,0,0-1.6,1.3v15.7h-2.4Z" style="fill:#ffe6ce"/><path d="M322.2,491.4a4.5,4.5,0,0,1-1.1-3,5.9,5.9,0,0,1,.7-3.1,6.7,6.7,0,0,1,2.3-2.2,42,42,0,0,1,4.6-2.3v-1.3a13.9,13.9,0,0,0-.2-2.8,2.5,2.5,0,0,0-.7-1.4,2.2,2.2,0,0,0-1.4-.4q-2.7,0-2.7,3.3v.7h-2.4a6.5,6.5,0,0,1,1.3-4.3,5,5,0,0,1,3.9-1.4,4.1,4.1,0,0,1,3.6,1.5,8.4,8.4,0,0,1,1.1,4.8v9.2q0,.9,0,2.1t.1,1.7h-2.1l-.4-2.6a4.5,4.5,0,0,1-1.5,2.1,3.8,3.8,0,0,1-2.5.8A3.5,3.5,0,0,1,322.2,491.4Zm5.3-1.5a5.4,5.4,0,0,0,1.3-1.6v-5.9l-3.2,1.8a5,5,0,0,0-1.5,1.5,3.9,3.9,0,0,0-.5,2.1,3.1,3.1,0,0,0,.6,2.1,2,2,0,0,0,1.6.7A2.7,2.7,0,0,0,327.5,489.9Z" style="fill:#ffe6ce"/><path d="M335.3,491.6a5.1,5.1,0,0,1-.8-3V473.3H337v14.7a3.6,3.6,0,0,0,.4,2.1,1.6,1.6,0,0,0,1.4.6,3.3,3.3,0,0,0,1.7-.5,7.3,7.3,0,0,0,1.7-1.4V473.3h2.4v19h-2.4v-2.1A7.5,7.5,0,0,1,340,492a5.2,5.2,0,0,1-2.5.6A2.5,2.5,0,0,1,335.3,491.6Z" style="fill:#ffe6ce"/><path d="M350.1,491.5a5.4,5.4,0,0,1-.7-3.1V474.9H347v-1.6h2.3v-5.9h2.4v5.9h3.2v1.6h-3.2v13.3a4.2,4.2,0,0,0,.3,2,1.5,1.5,0,0,0,1.3.5l1.4-.2v1.8l-2,.2A3,3,0,0,1,350.1,491.5Z" style="fill:#ffe6ce"/><path d="M359.3,491.9a4.2,4.2,0,0,1-1.6-2.3,14.6,14.6,0,0,1-.5-4.4v-4.8a14.1,14.1,0,0,1,.5-4.4,4.1,4.1,0,0,1,1.7-2.3,5.6,5.6,0,0,1,2.9-.7,4.8,4.8,0,0,1,3,.8,4.4,4.4,0,0,1,1.5,2.5,19.7,19.7,0,0,1,.4,4.5v1.7h-7.7v3.3a8.3,8.3,0,0,0,.6,3.8,2.2,2.2,0,0,0,2.1,1.1,2.4,2.4,0,0,0,1.9-.8,4.5,4.5,0,0,0,.7-2.9v-1.3h2.3v1.1a6.8,6.8,0,0,1-1.2,4.2,4.5,4.5,0,0,1-3.8,1.5A5.4,5.4,0,0,1,359.3,491.9Zm5.6-10.7v-1.6a15.8,15.8,0,0,0-.2-2.7,2.9,2.9,0,0,0-.7-1.5,2.3,2.3,0,0,0-1.7-.6,2.2,2.2,0,0,0-2.5,2,14.1,14.1,0,0,0-.3,3.1v1.3Zm-1.2-15.9H366l-3.2,6.4h-1.2Z" style="fill:#ffe6ce"/><path d="M545.1,490.8a8.9,8.9,0,0,1-1.9-5.3l2.2-.7a10.1,10.1,0,0,0,1.3,4.3,3.5,3.5,0,0,0,3.2,1.5q3.8,0,3.8-3.8a5.4,5.4,0,0,0-.8-2.9,15.1,15.1,0,0,0-2.5-2.9l-4.7-4.5a7.6,7.6,0,0,1-1.9-2.5,7,7,0,0,1-.6-2.9,5.5,5.5,0,0,1,1.6-4.2,6.2,6.2,0,0,1,4.4-1.5,6.1,6.1,0,0,1,4.5,1.6q1.6,1.6,1.8,5.2l-2.1.6a8,8,0,0,0-1.1-4,3.6,3.6,0,0,0-3.1-1.3,4,4,0,0,0-2.7.9,3.3,3.3,0,0,0-1,2.6,4.6,4.6,0,0,0,.4,2,6.9,6.9,0,0,0,1.4,1.9l4.7,4.4a15.7,15.7,0,0,1,2.8,3.5,7.6,7.6,0,0,1,1,3.9,5.8,5.8,0,0,1-1.7,4.5,6.2,6.2,0,0,1-4.4,1.6A5.9,5.9,0,0,1,545.1,490.8Z" style="fill:#ffe6ce"/><path d="M559.5,491.6a5.1,5.1,0,0,1-.8-3V473.3h2.4v14.7a3.6,3.6,0,0,0,.4,2.1,1.6,1.6,0,0,0,1.4.6,3.3,3.3,0,0,0,1.7-.5,7.3,7.3,0,0,0,1.7-1.4V473.3h2.4v19h-2.4v-2.1a7.5,7.5,0,0,1-2.1,1.8,5.2,5.2,0,0,1-2.5.6A2.5,2.5,0,0,1,559.5,491.6Z" style="fill:#ffe6ce"/><path d="M572.6,473.3H575v2.6a5.9,5.9,0,0,1,2-2.1,4.6,4.6,0,0,1,2.4-.7h.4v2.6l-1.2-.2a4.1,4.1,0,0,0-3.6,2.2v14.6h-2.4Z" style="fill:#ffe6ce"/><path d="M588.9,473.3h2.2v1.9a6.4,6.4,0,0,1,2.1-1.7,5.3,5.3,0,0,1,2.4-.6,2.9,2.9,0,0,1,3,2.5,6.7,6.7,0,0,1,2.2-1.8,5.4,5.4,0,0,1,2.5-.6,3,3,0,0,1,2.3,1,5,5,0,0,1,.9,3.3v15h-2.2V477.4a3.5,3.5,0,0,0-.5-2.2,1.7,1.7,0,0,0-1.4-.6,3.8,3.8,0,0,0-1.8.5,6.8,6.8,0,0,0-1.8,1.4,5.4,5.4,0,0,1,.1.7v15h-2.3V477.4a3.5,3.5,0,0,0-.5-2.2,1.7,1.7,0,0,0-1.4-.6,3.6,3.6,0,0,0-1.8.5,8,8,0,0,0-1.8,1.4v15.8h-2.2Z" style="fill:#ffe6ce"/><path d="M611.9,491.9a4.2,4.2,0,0,1-1.6-2.3,14.6,14.6,0,0,1-.5-4.4v-4.8a14.1,14.1,0,0,1,.5-4.4,4.1,4.1,0,0,1,1.7-2.3,5.6,5.6,0,0,1,2.9-.7,4.8,4.8,0,0,1,3,.8,4.4,4.4,0,0,1,1.5,2.5,19.7,19.7,0,0,1,.4,4.5v1.7h-7.7v3.3a8.3,8.3,0,0,0,.6,3.8,2.2,2.2,0,0,0,2.1,1.1,2.4,2.4,0,0,0,1.9-.8,4.5,4.5,0,0,0,.7-2.9v-1.3h2.3v1.1a6.8,6.8,0,0,1-1.2,4.2,4.5,4.5,0,0,1-3.8,1.5A5.4,5.4,0,0,1,611.9,491.9Zm5.6-10.7v-1.6a15.8,15.8,0,0,0-.2-2.7,2.9,2.9,0,0,0-.7-1.5,2.3,2.3,0,0,0-1.7-.6,2.2,2.2,0,0,0-2.5,2,14.1,14.1,0,0,0-.3,3.1v1.3Z" style="fill:#ffe6ce"/><path d="M623.8,491.2a6.3,6.3,0,0,1-1.6-3.9l2-.6a5.9,5.9,0,0,0,1,3.2,2.8,2.8,0,0,0,2.3,1,2.5,2.5,0,0,0,1.9-.7,2.8,2.8,0,0,0,.7-2q0-1.9-2.3-3.8l-2.6-2.2a8.5,8.5,0,0,1-2-2.2,5.1,5.1,0,0,1-.6-2.6,4.1,4.1,0,0,1,1.2-3.1,4.7,4.7,0,0,1,3.3-1.1,4,4,0,0,1,3.2,1.3,6.1,6.1,0,0,1,1.3,3.7l-1.7.6q-.2-3.7-2.7-3.7a2.5,2.5,0,0,0-1.8.6,2.2,2.2,0,0,0-.7,1.7,3.4,3.4,0,0,0,.3,1.5,5.2,5.2,0,0,0,1.2,1.4l2.7,2.4a14.3,14.3,0,0,1,2.4,2.6,5.2,5.2,0,0,1,.8,2.9,4.3,4.3,0,0,1-1.3,3.4,5.1,5.1,0,0,1-3.6,1.2A4.7,4.7,0,0,1,623.8,491.2Z" style="fill:#ffe6ce"/><path d="M635.6,491.6a5.1,5.1,0,0,1-.8-3V473.3h2.4v14.7a3.6,3.6,0,0,0,.4,2.1,1.6,1.6,0,0,0,1.4.6,3.3,3.3,0,0,0,1.7-.5,7.3,7.3,0,0,0,1.7-1.4V473.3h2.4v19h-2.4v-2.1a7.5,7.5,0,0,1-2.1,1.8,5.2,5.2,0,0,1-2.5.6A2.5,2.5,0,0,1,635.6,491.6Z" style="fill:#ffe6ce"/><path d="M648.8,473.3h2.4v2.6a5.9,5.9,0,0,1,2-2.1,4.6,4.6,0,0,1,2.4-.7h.4v2.6l-1.2-.2a4.1,4.1,0,0,0-3.6,2.2v14.6h-2.4Z" style="fill:#ffe6ce"/><path d="M660.1,491.9a4.2,4.2,0,0,1-1.6-2.3,14.6,14.6,0,0,1-.5-4.4v-4.8a14.1,14.1,0,0,1,.5-4.4,4.1,4.1,0,0,1,1.7-2.3,5.6,5.6,0,0,1,2.9-.7,4.8,4.8,0,0,1,3,.8,4.4,4.4,0,0,1,1.5,2.5,19.7,19.7,0,0,1,.4,4.5v1.7h-7.7v3.3a8.3,8.3,0,0,0,.6,3.8,2.2,2.2,0,0,0,2.1,1.1,2.4,2.4,0,0,0,1.9-.8,4.5,4.5,0,0,0,.7-2.9v-1.3H668v1.1a6.8,6.8,0,0,1-1.2,4.2,4.5,4.5,0,0,1-3.8,1.5A5.4,5.4,0,0,1,660.1,491.9Zm5.6-10.7v-1.6a15.8,15.8,0,0,0-.2-2.7,2.8,2.8,0,0,0-.7-1.5,2.3,2.3,0,0,0-1.7-.6,2.2,2.2,0,0,0-2.5,2,14.1,14.1,0,0,0-.3,3.1v1.3Z" style="fill:#ffe6ce"/><path d="M317.2,75.8h-.1c-.7-4-8.7-7.9-21.7-7.9s-21,3.9-21.7,7.9h-.1c0,.1,0,.2,0,.3V86.6l-3.3-3.3h-.2c-1.5-1.2-6.2-1.2-9.5,2.1s-4.9,9.3-3.6,11h.1l16.5,16.5v19.8c0,4.9,8.4,7.9,21.8,7.9s21.8-3,21.8-7.9V76.1C317.2,76,317.2,75.9,317.2,75.8Zm-21.8-5.4c13.1,0,18.9,4,19.3,5.8s-6.5,6.3-19.3,6.3-18.9-3.2-19.3-6.3S282.3,70.3,295.4,70.3Zm-33,16.6a6.6,6.6,0,0,1,6.1-2,2.8,2.8,0,0,1,0,2.5,12.7,12.7,0,0,1-3,4.5c-2.7,2.7-5.3,3.5-6.5,2.8A12.8,12.8,0,0,1,262.4,86.9Zm46.4,49.8v-5.9a1.2,1.2,0,0,0-2.4,0v6.1a1.2,1.2,0,0,0,.1.4l-4.9.6V127.2a1.2,1.2,0,1,0-2.4,0V138h-2.4v-2.4a1.2,1.2,0,0,0-2.4,0v2.4h-3.6v-8.3a1.2,1.2,0,1,0-2.4,0v8.1a38.6,38.6,0,0,1-6.1-1.1V121.2a1.2,1.2,0,1,0-2.4,0v14.8c-2.5-1-3.6-2.3-3.6-3.3V112.3a1.2,1.2,0,0,0-.4-.9L261.4,97.2a12.8,12.8,0,0,0,5.8-3.6,14.9,14.9,0,0,0,3.6-5.4l.2-.8,2.9,2.9a1.2,1.2,0,0,0,2.1-.9V80.4a13.8,13.8,0,0,0,3.6,2.1v9.6a1.2,1.2,0,0,0,2.4,0V83.3l3.6.8v16.5a1.2,1.2,0,0,0,2.4,0V84.4a63.6,63.6,0,0,0,7.3.4h1.2v3.7a1.2,1.2,0,0,0,2.4,0V84.7a52.4,52.4,0,0,0,6.1-.6v17.7a1.2,1.2,0,1,0,2.4,0V83.6h0l2.4-.7v9.2a1.2,1.2,0,1,0,2.4,0V81.9a12.3,12.3,0,0,0,2.4-1.5v52.3C314.8,133.9,313,135.6,308.7,136.7Z" style="fill:#ffe6ce"/><path d="M601.3,396.6a10.9,10.9,0,1,0-10.9-10.9A10.9,10.9,0,0,0,601.3,396.6Zm0-19.3a8.4,8.4,0,1,1-8.4,8.4A8.5,8.5,0,0,1,601.3,377.3Z" style="fill:#ffe6ce"/><path d="M587.8,437a1.2,1.2,0,0,0,0-1.2L577,416.5a1.3,1.3,0,0,0-2.1,0L564,435.8a1.2,1.2,0,0,0,1.1,1.8h21.7A1.2,1.2,0,0,0,587.8,437Zm-20.7-1.8,8.8-15.6,8.8,15.6Z" style="fill:#ffe6ce"/><path d="M639.9,417.1a1.2,1.2,0,0,0-1.2-1.2H619.4a1.2,1.2,0,0,0-1.2,1.2v19.3a1.2,1.2,0,0,0,1.2,1.2h19.3a1.2,1.2,0,0,0,1.2-1.2Zm-2.4,18.1H620.6V418.3h16.9Z" style="fill:#ffe6ce"/><path d="M601.3,443.6a28.8,28.8,0,0,1-15.7-4.6l-1.3,2a31.4,31.4,0,0,0,34.6-.4l-1.4-2A28.8,28.8,0,0,1,601.3,443.6Z" style="fill:#ffe6ce"/><path d="M630.2,413.5h2.4a31.3,31.3,0,0,0-17.5-26.9l-1.1,2.2A28.9,28.9,0,0,1,630.2,413.5Z" style="fill:#ffe6ce"/><path d="M572.4,417c-.1-.8-.1-1.5-.1-2.3a28.8,28.8,0,0,1,16.2-26l-1.1-2.2a31.2,31.2,0,0,0-17.6,28.2c0,.8,0,1.7.1,2.5Z" style="fill:#ffe6ce"/><path d="M583.5,383.7l1.7,1.7,3.6-3.6a1.2,1.2,0,0,0,0-1.7l-3.6-3.6-1.7,1.7,1.6,1.6h-7.9v2.4h7.9Z" style="fill:#ffe6ce"/><path d="M635,402.6a1.2,1.2,0,0,0,.9-.4l3.6-3.6-1.7-1.7-1.6,1.6v-7.9h-2.4v7.9l-1.6-1.6-1.7,1.7,3.6,3.6A1.2,1.2,0,0,0,635,402.6Z" style="fill:#ffe6ce"/><path d="M575.1,440.4l-3.6,3.6,1.7,1.7,1.6-1.6v7.9h2.4v-7.9l1.6,1.6,1.7-1.7-3.6-3.6A1.2,1.2,0,0,0,575.1,440.4Z" style="fill:#ffe6ce"/><path d="M612.1,413.5a10.9,10.9,0,0,0-5.4-9.4l-1.2,2.1a8.4,8.4,0,0,1-2.1,15.5l1.4-2.8-2.2-1.1-2.4,4.8a1.2,1.2,0,0,0,.2,1.4l3.6,3.6,1.7-1.7-1.9-1.9A10.9,10.9,0,0,0,612.1,413.5Z" style="fill:#ffe6ce"/><path d="M595.9,422.9l1.2-2.1a8.4,8.4,0,0,1,2.1-15.5l-1.4,2.8,2.2,1.1,2.4-4.8a1.2,1.2,0,0,0-.2-1.4l-3.6-3.6-1.7,1.7,1.9,1.9a10.8,10.8,0,0,0-2.8,19.9Z" style="fill:#ffe6ce"/><path d="M739.5,244.5a8.9,8.9,0,1,0-8.9-8.9A8.9,8.9,0,0,0,739.5,244.5Zm0-13.5a4.6,4.6,0,1,1-4.6,4.6A4.6,4.6,0,0,1,739.5,231Zm29.1,13.5a8.9,8.9,0,1,0-8.9-8.9A8.9,8.9,0,0,0,768.7,244.5Zm0-13.5a4.6,4.6,0,1,1-4.6,4.6A4.6,4.6,0,0,1,768.7,231Zm-16,33,3.2-7.5c1.5-3.6,4.3-8.3,10.6-8.3h4.3c6.3,0,9,4.7,10.6,8.3l3.2,7.5a2.1,2.1,0,1,1-3.9,1.7l-3.2-7.5c-1.8-4.1-3.7-5.7-6.7-5.7h-4.3c-3,0-4.9,1.7-6.7,5.7l-3.2,7.5a2.1,2.1,0,0,1-1.9,1.3l-.8-.2A2.1,2.1,0,0,1,752.7,264Zm46.1,7.2a4.9,4.9,0,0,1-2.2,3.3c-2.9,2.1-8.9,2.9-16.1,2.9a157.2,157.2,0,0,1-26.9-2.7c-11.2-2.1-21.5-5-29.2-8.2s-12.9-7.4-12.4-11.1,6-5,7.8-5.4a2.1,2.1,0,0,1,.8,4.2c-3.9.8-4.4,1.8-4.4,1.8s1.3,2.7,8.6,6l2.4-5.5c1.5-3.6,4.3-8.3,10.6-8.3h4.3a9.9,9.9,0,0,1,7.9,3.7,2.1,2.1,0,1,1-3.3,2.7,5.7,5.7,0,0,0-4.6-2.2h-4.3c-3,0-4.9,1.7-6.7,5.7l-2.4,5.5a150.7,150.7,0,0,0,25.6,6.9c20.9,3.8,36.1,3.1,39.8.5l.4-.4s-.1-1.1-3.4-3.3a2.1,2.1,0,0,1,2.3-3.6C797.5,266.2,799.2,268.7,798.8,271.2Zm-2.8,9a2.1,2.1,0,0,1,.1,3c-2.5,2.7-9,3.8-17.1,3.8a156.5,156.5,0,0,1-26.9-2.8c-19.7-3.6-35.8-9.7-40.2-15.1a2.1,2.1,0,1,1,3.3-2.7c3.1,3.9,17.1,9.8,37.7,13.6,23.5,4.3,37.8,2.7,40.1.3A2.1,2.1,0,0,1,796,280.2Z" style="fill:#ffe6ce"/><path d="M296.9,415.5h24.5l13.2,12.6V415.5h5.6a7.1,7.1,0,0,0,7.1-7.1V382a7.1,7.1,0,0,0-7.1-7.1H296.9a7.1,7.1,0,0,0-7.1,7.1v26.4A7.1,7.1,0,0,0,296.9,415.5Z" style="fill:#ffe6ce"/><path d="M265,458.3h.7a1.9,1.9,0,0,0,1.3-.5l12.5-12h23.6a8.9,8.9,0,0,0,8.9-8.9V423.7a1.8,1.8,0,0,0-3.6,0v13.4a5.2,5.2,0,0,1-5.2,5.2H278.7a1.9,1.9,0,0,0-1.3.5l-10,9.6v-8.2a1.8,1.8,0,0,0-1.8-1.8h-5.5a5.2,5.2,0,0,1-5.2-5.2V410.9a5.3,5.3,0,0,1,5.2-5.3h21.4a1.8,1.8,0,0,0,0-3.6H260.2a8.9,8.9,0,0,0-8.9,8.9v26.2a8.9,8.9,0,0,0,8.9,8.9h3.7v10.7A1.8,1.8,0,0,0,265,458.3Z" style="fill:#ffe6ce"/><path d="M320.7,417.3l12.6,12.1a1.9,1.9,0,0,0,1.3.5h.7a1.8,1.8,0,0,0,1.1-1.7V417.3h3.8a8.9,8.9,0,0,0,8.9-8.9V382a8.9,8.9,0,0,0-8.9-8.9H296.9A8.9,8.9,0,0,0,288,382v26.4a8.9,8.9,0,0,0,8.9,8.9Zm-29.1-8.9V382a5.3,5.3,0,0,1,5.3-5.3h43.2a5.3,5.3,0,0,1,5.3,5.3v26.4a5.3,5.3,0,0,1-5.3,5.3h-5.6a1.8,1.8,0,0,0-1.8,1.8v8.4l-10.1-9.7a1.8,1.8,0,0,0-1.3-.5H296.9A5.3,5.3,0,0,1,291.6,408.4Z" style="fill:#ffe6ce"/><path d="M318.5,397.4a1.8,1.8,0,1,0-1.3-.5A1.7,1.7,0,0,0,318.5,397.4Z" style="fill:#ffe6ce"/><path d="M325.3,397.4a1.8,1.8,0,1,0-1.3-.5A1.7,1.7,0,0,0,325.3,397.4Z" style="fill:#ffe6ce"/><path d="M311.8,397.4a1.8,1.8,0,1,0-1.3-.5A1.7,1.7,0,0,0,311.8,397.4Z" style="fill:#ffe6ce"/><path d="M452,217.3a37.6,37.6,0,1,0,37.6,37.6A37.7,37.7,0,0,0,452,217.3Zm21,25.1-23.1,26.1a2.9,2.9,0,0,1-4,.3l-14.5-11.6a2.9,2.9,0,0,1,3.6-4.5l12.3,9.9,21.3-24a2.9,2.9,0,0,1,4.3,3.8Z" style="fill:#ffe6ce"/><path d="M600.2,93.4a1,1,0,0,0,1.3-1.2c-1.7-5.4-8-7.3-13.9-2.6a24.9,24.9,0,0,1-4.3,3c2,2,4.3,8.8,9.4,9.6s10.5-4.5,6.5-7a17.2,17.2,0,0,0-9.1-2.6A17.3,17.3,0,0,1,600.2,93.4Z" style="fill:#ffe6ce"/><path d="M625.4,89.6c-10.1-8.2-16.5,4.7-12.5,3.4a17.2,17.2,0,0,1,9.1-.4A17.4,17.4,0,0,0,608.6,99a111,111,0,0,1,1.1-12.9c2.7-.1,6.3-2.3,8.3-6.1,3.4-6.1,1.8-12.3,1.3-16.3-2.7,2.6-14.3-.4-18.9,7.4a10.2,10.2,0,0,0,.7,10.8,1.3,1.3,0,0,0,2.3-.7A12.2,12.2,0,0,1,611,70a23.4,23.4,0,0,0-4.3,9.2c-1.1,5-2.3,8.3-2.8,24.4a2.9,2.9,0,0,0,2.9,3,2.9,2.9,0,0,0,2.6-1.9,13.1,13.1,0,0,1,3.6-4.9,7.7,7.7,0,0,0,7.1,2.4c5-.7,7.4-7.6,9.4-9.6A24.8,24.8,0,0,1,625.4,89.6Z" style="fill:#ffe6ce"/><path d="M640.2,109.6c-3.2-2.1-6.6-.6-8.2.3l-19.8,14.5H600.7l-2.9-2.9h10.6c3.2,0,6.8-2.1,6.8-5.8s-3.6-5.8-6.8-5.8h-4c-3,0-6.4.3-8.9-1a17.2,17.2,0,0,0-7.8-1.9,16.7,16.7,0,0,0-12,4.9l-15.6,15.4,17.4,17.4,5.8-8.7h27.4a11.9,11.9,0,0,0,7.9-3l21.8-19.4A2.5,2.5,0,0,0,640.2,109.6Z" style="fill:#ffe6ce"/><path d="M162.8,246.5h-1.3c-3.2-11.1-12.6-19.2-23.7-19.2s-20.5,8.1-23.7,19.2h-1.3c-2.6,0-4.8,2.5-4.8,5.6v6.5c0,3.1,2.1,5.6,4.8,5.6H114c4.5,20.6,23.1,26.4,23.3,26.5h1a36.1,36.1,0,0,0,23.4-26.5h1.1c2.6,0,4.8-2.5,4.8-5.6v-6.5C167.5,249,165.4,246.5,162.8,246.5ZM153.9,273H141.3a3.5,3.5,0,0,0-3.1-2.2c-2,0-3.6,1.9-3.6,4.2s1.6,4.2,3.6,4.2a3.7,3.7,0,0,0,3.4-2.8h9.9a31.6,31.6,0,0,1-13.7,9.6c-3.3-1.1-20.9-8.4-20.9-31.3,0-.4,0-.8,0-1.1,5.4-1.2,11.7-3.2,13.8-6.2,0,0,.9,5.7-2.3,8,0,0,11.1-2,13.1-6,0,0,.4,10.4,16.8,9.2A32.9,32.9,0,0,1,153.9,273Zm20.8-19.1v3a4.4,4.4,0,0,1-4.4,4.5h-1.9V250.5C168,233.1,155,220,137.8,220s-30.2,13-30.6,30.5v10.8h-1.9a4.4,4.4,0,0,1-4.4-4.5v-3a4.5,4.5,0,0,1,2.3-4c.7-19.8,15.3-34.6,34.6-34.6s33.9,14.8,34.6,34.6A4.4,4.4,0,0,1,174.7,253.9Z" style="fill:#ffe6ce"/></svg>