<svg version="1.1" id="SJ1p-7sAM" xmlns="http://www.w3.org/2000/svg" xmlns:xlink="http://www.w3.org/1999/xlink" x="0px" y="0px" viewBox="0 0 485 323" style="enable-background:new 0 0 485 323.8;" xml:space="preserve"><style>@-webkit-keyframes SJSxyaWXs0z_H1XA-QoCz_Animation{0%{-webkit-transform: rotate(-52deg);transform: rotate(-52deg);}30%{-webkit-transform: rotate(-10deg);transform: rotate(-10deg);}40%{-webkit-transform: rotate(-20deg);transform: rotate(-20deg);}43.67%{-webkit-transform: rotate(15deg);transform: rotate(15deg);}55.00%{-webkit-transform: rotate(-30deg);transform: rotate(-30deg);}67.33%{-webkit-transform: rotate(-13deg);transform: rotate(-13deg);}100%{-webkit-transform: rotate(-52deg);transform: rotate(-52deg);}}@keyframes SJSxyaWXs0z_H1XA-QoCz_Animation{0%{-webkit-transform: rotate(-52deg);transform: rotate(-52deg);}30%{-webkit-transform: rotate(-10deg);transform: rotate(-10deg);}40%{-webkit-transform: rotate(-20deg);transform: rotate(-20deg);}43.67%{-webkit-transform: rotate(15deg);transform: rotate(15deg);}55.00%{-webkit-transform: rotate(-30deg);transform: rotate(-30deg);}67.33%{-webkit-transform: rotate(-13deg);transform: rotate(-13deg);}100%{-webkit-transform: rotate(-52deg);transform: rotate(-52deg);}}#SJ1p-7sAM *{-webkit-animation-duration: 10s;animation-duration: 10s;-webkit-animation-iteration-count: infinite;animation-iteration-count: infinite;-webkit-animation-timing-function: cubic-bezier(0, 0, 1, 1);animation-timing-function: cubic-bezier(0, 0, 1, 1);}#rJWka-QoRM{fill: none;stroke: #FFFFFF;stroke-width: 7;stroke-linecap: round;stroke-miterlimit: 10;}#S1G1TZmj0f{fill: none;stroke: #FFFFFF;stroke-miterlimit: 10;}#HkXyp-XoAG{fill: none;stroke: #FFFFFF;stroke-width: 4;stroke-miterlimit: 10;}#HJ41aZQsCf{fill: none;stroke: #FFFFFF;stroke-width: 4;stroke-miterlimit: 10;}#Skry6W7s0M{fill: none;stroke: #FFFFFF;stroke-width: 4;stroke-miterlimit: 10;}#B1L1aZXsRz{fill: none;stroke: #FFFFFF;stroke-width: 4;stroke-miterlimit: 10;}#SyDk6-7iCM{fill: none;stroke: #FFFFFF;stroke-width: 4;stroke-miterlimit: 10;}#B1OypWXiCG{fill: none;stroke: #FFFFFF;stroke-width: 4;stroke-miterlimit: 10;}#rJty6-msRM{fill: none;stroke: #FFFFFF;stroke-width: 4;stroke-miterlimit: 10;}#Hk51pbmoAz{fill: none;stroke: #FFFFFF;stroke-width: 4;stroke-miterlimit: 10;}#Bkok6Z7oRz{-webkit-transform:  matrix(1, 0, 0, 1, 218.9733, 177.998);transform:  matrix(1, 0, 0, 1, 218.9733, 177.998);}#HJnkTZXoCz{-webkit-transform:  matrix(1, 0, 0, 1, 161.7736, 123.0005);transform:  matrix(1, 0, 0, 1, 161.7736, 123.0005);}#Sypy6bXiRz{-webkit-transform:  matrix(1, 0, 0, 1, 184.9225, 122.9883);transform:  matrix(1, 0, 0, 1, 184.9225, 122.9883);}#r1A16ZXjCM{-webkit-transform:  matrix(1, 0, 0, 1, 208.3986, 123.3188);transform:  matrix(1, 0, 0, 1, 208.3986, 123.3188);}#BJklJT-Qj0M{-webkit-transform:  matrix(1, 0, 0, 1, 223.6071, 123.3188);transform:  matrix(1, 0, 0, 1, 223.6071, 123.3188);}#Hygg1TWmoAG{-webkit-transform:  matrix(1, 0, 0, 1, 240.4108, 123.3188);transform:  matrix(1, 0, 0, 1, 240.4108, 123.3188);}#SJZl16W7iAf{-webkit-transform:  matrix(1, 0, 0, 1, 257.1945, 123.1797);transform:  matrix(1, 0, 0, 1, 257.1945, 123.1797);}#S1GlyaWmsAz{-webkit-transform:  matrix(1, 0, 0, 1, 289.6593, 122.6875);transform:  matrix(1, 0, 0, 1, 289.6593, 122.6875);}#r1me1TWQsCM{-webkit-transform:  matrix(1, 0, 0, 1, 313.5714, 122.9795);transform:  matrix(1, 0, 0, 1, 313.5714, 122.9795);}#rJNxy6bQi0z{fill: none;stroke: #871D22;stroke-width: 11;stroke-linecap: round;stroke-miterlimit: 10;}#SJSxyaWXs0z{fill: none;stroke: #00AB9C;stroke-width: 7;stroke-miterlimit: 10;}#SyUlkT-Xs0z{opacity: 0.26;}#SyPeJpZmjCG{fill: #EDEDED;}#Bkdg16bms0M{fill: none;stroke: #EDEDED;stroke-width: 29;stroke-linecap: round;stroke-linejoin: round;stroke-miterlimit: 10;}#BJKe16b7iRf{fill: #DDDDDD;}#SJSxyaWXs0z_H1XA-QoCz{-webkit-animation-name: SJSxyaWXs0z_H1XA-QoCz_Animation;animation-name: SJSxyaWXs0z_H1XA-QoCz_Animation;-webkit-transform-origin: 0% 100%;transform-origin: 0% 100%;transform-box: fill-box;-webkit-transform: rotate(-52deg);transform: rotate(-52deg);-webkit-animation-timing-function: cubic-bezier(0.42, 0, 0.58, 1);animation-timing-function: cubic-bezier(0.42, 0, 0.58, 1);}</style>

<g id="HygkTZXsRG">
	<path d="M156.4,150.4c0,0,31.4-11.8,77-11.8s83.3,11.8,83.3,11.8" id="rJWka-QoRM"/>
	<path d="M297.6,161.8" id="S1G1TZmj0f"/>
	<path d="M166.7,161.8" id="HkXyp-XoAG"/>
	<line x1="168.5" y1="126.4" x2="183" y2="144.6" id="HJ41aZQsCf"/>
	<line x1="192.3" y1="126.4" x2="200.5" y2="141.3" id="Skry6W7s0M"/>
	<line x1="210.8" y1="126.7" x2="214.2" y2="139.3" id="B1L1aZXsRz"/>
	<line x1="225.7" y1="126.7" x2="228" y2="138.1" id="SyDk6-7iCM"/>
	<line x1="242.2" y1="126.7" x2="240.6" y2="138.2" id="B1OypWXiCG"/>
	<line x1="249.8" y1="126.7" x2="247.9" y2="138.8" id="rJty6-msRM"/>
	<line x1="258.4" y1="126.7" x2="254.4" y2="139.5" id="Hk51pbmoAz"/>
	<text id="Bkok6Z7oRz">VU</text>
	<text id="HJnkTZXoCz">20</text>
	<text id="Sypy6bXiRz">10</text>
	<text id="r1A16ZXjCM">7</text>
	<text id="BJklJT-Qj0M">5</text>
	<text id="Hygg1TWmoAG">3</text>
	<text id="SJZl16W7iAf">0</text>
	<text id="S1GlyaWmsAz">3</text>
	<text id="r1me1TWQsCM">6</text>
	<path d="M258.1,139.5c2.9,0,45.3,7.3,58.4,10.6" id="rJNxy6bQi0z"/>
	<g id="SJSxyaWXs0z_H1XA-QoCz" data-animator-group="true" data-animator-type="1"><line x1="280" y1="98.9" x2="234.4" y2="232.4" id="SJSxyaWXs0z"/></g>
	<g id="SyUlkT-Xs0z">
		<ellipse cx="236.6" cy="255" rx="82.3" ry="37.9" id="SyPeJpZmjCG"/>
		<circle cx="235.5" cy="167.2" r="124.3" id="Bkdg16bms0M"/>
	</g>
</g>
<path d="M384.1,164.6c0,0.1,0,0.2,0,0.3c0,2,0,4-0.1,6c0,0.1,0.1,0.2,0.2,0.2s0.2-0.1,0.2-0.2c0.1-2,0.1-4,0.1-6
	c0-0.1,0-0.2,0-0.3c0-0.1-0.1-0.2-0.2-0.2C384.2,164.4,384.1,164.5,384.1,164.6z M383.6,152.7c0.2,2,0.3,4,0.4,6
	c0,0.1,0.1,0.2,0.2,0.2c0.1,0,0.2-0.1,0.2-0.2c-0.1-2-0.2-4-0.4-6c0-0.1-0.1-0.2-0.2-0.2C383.7,152.5,383.6,152.6,383.6,152.7
	L383.6,152.7z M382.2,140.8c0.3,2,0.6,3.9,0.8,5.9c0,0.1,0.1,0.2,0.2,0.2c0.1,0,0.2-0.1,0.2-0.2c-0.2-2-0.5-4-0.8-5.9
	c0-0.1-0.1-0.2-0.2-0.1C382.2,140.6,382.1,140.7,382.2,140.8L382.2,140.8z M379.8,129.1c0.5,1.9,0.9,3.9,1.3,5.8
	c0,0.1,0.1,0.2,0.2,0.1c0.1,0,0.2-0.1,0.1-0.2c-0.4-2-0.8-3.9-1.3-5.8c0-0.1-0.1-0.2-0.2-0.1C379.8,128.9,379.7,129,379.8,129.1z
	 M376.4,117.7c0.6,1.9,1.2,3.8,1.8,5.7c0,0.1,0.1,0.1,0.2,0.1c0.1,0,0.1-0.1,0.1-0.2c-0.6-1.9-1.2-3.8-1.8-5.7
	c0-0.1-0.1-0.1-0.2-0.1C376.4,117.5,376.4,117.6,376.4,117.7L376.4,117.7z M372.2,106.6c0.8,1.8,1.5,3.7,2.2,5.5
	c0,0.1,0.1,0.1,0.2,0.1c0.1,0,0.1-0.1,0.1-0.2c-0.7-1.9-1.5-3.7-2.2-5.5c0-0.1-0.1-0.1-0.2-0.1C372.2,106.4,372.1,106.5,372.2,106.6
	L372.2,106.6z M367,95.8c0.9,1.8,1.8,3.5,2.7,5.3c0,0.1,0.1,0.1,0.2,0.1c0.1,0,0.1-0.1,0.1-0.2c-0.9-1.8-1.8-3.6-2.7-5.3
	c0-0.1-0.2-0.1-0.2-0.1C367,95.6,367,95.7,367,95.8L367,95.8z M361.1,85.5c1.1,1.7,2.1,3.4,3.1,5.1c0,0.1,0.2,0.1,0.2,0.1
	c0.1,0,0.1-0.2,0.1-0.2c-1-1.7-2-3.4-3.1-5.1c-0.1-0.1-0.2-0.1-0.2-0.1C361,85.3,361,85.4,361.1,85.5L361.1,85.5z M354.3,75.7
	c1.2,1.6,2.4,3.2,3.5,4.8c0.1,0.1,0.2,0.1,0.2,0c0.1-0.1,0.1-0.2,0-0.2c-1.1-1.6-2.3-3.3-3.5-4.8c-0.1-0.1-0.2-0.1-0.2,0
	C354.2,75.5,354.2,75.7,354.3,75.7L354.3,75.7z M346.7,66.5c1.3,1.5,2.6,3,3.9,4.5c0.1,0.1,0.2,0.1,0.2,0c0.1-0.1,0.1-0.2,0-0.2
	c-1.3-1.5-2.6-3.1-3.9-4.5c-0.1-0.1-0.2-0.1-0.2,0C346.7,66.3,346.7,66.4,346.7,66.5L346.7,66.5z M338.4,57.9
	c1.4,1.4,2.8,2.8,4.2,4.2c0.1,0.1,0.2,0.1,0.2,0c0.1-0.1,0.1-0.2,0-0.2c-1.4-1.4-2.8-2.8-4.2-4.2c-0.1-0.1-0.2-0.1-0.2,0
	C338.4,57.7,338.4,57.9,338.4,57.9z M329.5,50c1.5,1.3,3.1,2.5,4.5,3.9c0.1,0.1,0.2,0.1,0.2,0c0.1-0.1,0.1-0.2,0-0.2
	c-1.5-1.3-3-2.6-4.6-3.9c-0.1-0.1-0.2,0-0.2,0C329.4,49.8,329.4,50,329.5,50z M320,42.9c1.6,1.1,3.3,2.3,4.8,3.5
	c0.1,0.1,0.2,0,0.2,0c0.1-0.1,0-0.2,0-0.2c-1.6-1.2-3.2-2.4-4.9-3.5c-0.1-0.1-0.2,0-0.2,0C319.9,42.7,319.9,42.8,320,42.9L320,42.9z
	 M309.9,36.5c1.7,1,3.4,2,5.1,3.1c0.1,0.1,0.2,0,0.2-0.1c0.1-0.1,0-0.2-0.1-0.2c-1.7-1.1-3.4-2.1-5.1-3.1c-0.1,0-0.2,0-0.2,0.1
	C309.7,36.3,309.8,36.4,309.9,36.5L309.9,36.5z M299.3,30.9c1.8,0.9,3.6,1.7,5.3,2.7c0.1,0,0.2,0,0.2-0.1c0-0.1,0-0.2-0.1-0.2
	c-1.8-0.9-3.6-1.8-5.4-2.7c-0.1,0-0.2,0-0.2,0.1C299.2,30.8,299.2,30.9,299.3,30.9L299.3,30.9z M288.3,26.3c1.9,0.7,3.7,1.4,5.5,2.2
	c0.1,0,0.2,0,0.2-0.1c0-0.1,0-0.2-0.1-0.2c-1.8-0.8-3.7-1.5-5.6-2.2c-0.1,0-0.2,0-0.2,0.1C288.1,26.1,288.2,26.2,288.3,26.3z
	 M276.9,22.5c1.9,0.6,3.8,1.1,5.7,1.8c0.1,0,0.2,0,0.2-0.1c0-0.1,0-0.2-0.1-0.2c-1.9-0.6-3.8-1.2-5.7-1.8c-0.1,0-0.2,0-0.2,0.1
	C276.8,22.4,276.8,22.5,276.9,22.5L276.9,22.5z M265.3,19.7c2,0.4,3.9,0.8,5.8,1.3c0.1,0,0.2,0,0.2-0.1c0-0.1,0-0.2-0.1-0.2
	c-1.9-0.5-3.9-0.9-5.8-1.3c-0.1,0-0.2,0-0.2,0.1C265.2,19.6,265.3,19.7,265.3,19.7z M253.6,17.8c2,0.2,4,0.5,5.9,0.8
	c0.1,0,0.2-0.1,0.2-0.1c0-0.1-0.1-0.2-0.1-0.2c-2-0.3-3.9-0.6-5.9-0.8c-0.1,0-0.2,0.1-0.2,0.2C253.4,17.7,253.5,17.8,253.6,17.8
	L253.6,17.8z M241.7,16.9c2,0.1,4,0.2,6,0.3c0.1,0,0.2-0.1,0.2-0.2c0-0.1-0.1-0.2-0.2-0.2c-2-0.2-4-0.3-6-0.3
	c-0.1,0-0.2,0.1-0.2,0.2C241.5,16.8,241.6,16.9,241.7,16.9L241.7,16.9z M229.8,16.9c2-0.1,4-0.1,6-0.1c0.1,0,0.2-0.1,0.2-0.2
	c0-0.1-0.1-0.2-0.2-0.2c-2,0-4,0-6,0.1c-0.1,0-0.2,0.1-0.2,0.2C229.6,16.8,229.7,16.9,229.8,16.9L229.8,16.9z M217.9,17.9
	c2-0.2,3.9-0.4,5.9-0.6c0.1,0,0.2-0.1,0.2-0.2c0-0.1-0.1-0.2-0.2-0.2c-2,0.2-4,0.4-5.9,0.6c-0.1,0-0.2,0.1-0.2,0.2
	C217.7,17.8,217.8,17.9,217.9,17.9L217.9,17.9z M206.1,19.8c1.9-0.4,3.9-0.8,5.9-1.1c0.1,0,0.2-0.1,0.1-0.2c0-0.1-0.1-0.2-0.2-0.1
	c-2,0.3-3.9,0.7-5.9,1.1c-0.1,0-0.2,0.1-0.1,0.2C205.9,19.7,206,19.8,206.1,19.8L206.1,19.8z M194.5,22.6c1.9-0.6,3.8-1.1,5.8-1.5
	c0.1,0,0.2-0.1,0.1-0.2c0-0.1-0.1-0.2-0.2-0.1c-1.9,0.5-3.9,1-5.8,1.6c-0.1,0-0.1,0.1-0.1,0.2C194.3,22.6,194.4,22.7,194.5,22.6
	L194.5,22.6z M183.2,26.4c1.9-0.7,3.7-1.4,5.6-2c0.1,0,0.1-0.1,0.1-0.2c0-0.1-0.1-0.1-0.2-0.1c-1.9,0.6-3.8,1.3-5.6,2
	c-0.1,0-0.1,0.1-0.1,0.2C183,26.4,183.1,26.5,183.2,26.4L183.2,26.4z M172.3,31.1c1.8-0.9,3.6-1.7,5.4-2.5c0.1,0,0.1-0.1,0.1-0.2
	c0-0.1-0.1-0.1-0.2-0.1c-1.8,0.8-3.6,1.6-5.4,2.5c-0.1,0-0.1,0.1-0.1,0.2C172.1,31.1,172.2,31.2,172.3,31.1L172.3,31.1z M161.7,36.7
	c1.7-1,3.5-2,5.2-2.9c0.1,0,0.1-0.2,0.1-0.2c0-0.1-0.2-0.1-0.2-0.1c-1.8,0.9-3.5,1.9-5.2,2.9c-0.1,0-0.1,0.2-0.1,0.2
	C161.5,36.7,161.7,36.7,161.7,36.7z M151.7,43.1c1.6-1.1,3.3-2.2,5-3.3c0.1-0.1,0.1-0.2,0.1-0.2c-0.1-0.1-0.2-0.1-0.2-0.1
	c-1.7,1.1-3.3,2.2-5,3.3c-0.1,0.1-0.1,0.2,0,0.2C151.5,43.1,151.6,43.1,151.7,43.1L151.7,43.1z M142.2,50.2c1.5-1.3,3.1-2.5,4.7-3.7
	c0.1-0.1,0.1-0.2,0-0.2c-0.1-0.1-0.2-0.1-0.2,0c-1.6,1.2-3.2,2.4-4.7,3.7c-0.1,0.1-0.1,0.2,0,0.2C142,50.3,142.1,50.3,142.2,50.2
	L142.2,50.2z M133.3,58.1c1.4-1.4,2.9-2.7,4.4-4c0.1-0.1,0.1-0.2,0-0.2c-0.1-0.1-0.2-0.1-0.2,0c-1.5,1.3-3,2.7-4.4,4.1
	c-0.1,0.1-0.1,0.2,0,0.2C133.1,58.2,133.2,58.2,133.3,58.1L133.3,58.1z M125,66.8c1.3-1.5,2.7-3,4-4.4c0.1-0.1,0.1-0.2,0-0.2
	c-0.1-0.1-0.2-0.1-0.2,0c-1.4,1.4-2.7,2.9-4.1,4.4c-0.1,0.1-0.1,0.2,0,0.2C124.8,66.8,124.9,66.8,125,66.8z M117.5,76
	c1.2-1.6,2.4-3.2,3.7-4.7c0.1-0.1,0.1-0.2,0-0.2c-0.1-0.1-0.2-0.1-0.2,0c-1.3,1.5-2.5,3.1-3.7,4.7c-0.1,0.1,0,0.2,0,0.2
	C117.3,76.1,117.4,76.1,117.5,76L117.5,76z M110.7,85.8c1.1-1.7,2.2-3.3,3.3-5c0.1-0.1,0-0.2,0-0.2c-0.1-0.1-0.2,0-0.2,0
	c-1.1,1.6-2.2,3.3-3.3,5c-0.1,0.1,0,0.2,0.1,0.2C110.5,85.9,110.6,85.9,110.7,85.8z M104.7,96.2c0.9-1.8,1.9-3.5,2.9-5.2
	c0-0.1,0-0.2-0.1-0.2c-0.1,0-0.2,0-0.2,0.1c-1,1.7-2,3.5-2.9,5.2c0,0.1,0,0.2,0.1,0.2C104.5,96.3,104.7,96.3,104.7,96.2L104.7,96.2z
	 M99.6,107c0.8-1.8,1.6-3.7,2.5-5.5c0-0.1,0-0.2-0.1-0.2c-0.1,0-0.2,0-0.2,0.1c-0.9,1.8-1.7,3.6-2.5,5.5c0,0.1,0,0.2,0.1,0.2
	C99.4,107.1,99.5,107.1,99.6,107L99.6,107z M95.3,118.2c0.6-1.9,1.3-3.8,2-5.6c0-0.1,0-0.2-0.1-0.2c-0.1,0-0.2,0-0.2,0.1
	c-0.7,1.9-1.4,3.7-2,5.6c0,0.1,0,0.2,0.1,0.2C95.2,118.3,95.3,118.2,95.3,118.2L95.3,118.2z M92,129.6c0.5-1.9,1-3.9,1.5-5.8
	c0-0.1,0-0.2-0.1-0.2c-0.1,0-0.2,0-0.2,0.1c-0.5,1.9-1.1,3.8-1.5,5.8c0,0.1,0,0.2,0.1,0.2C91.9,129.8,92,129.7,92,129.6z
	 M89.7,141.3c0.3-2,0.7-3.9,1.1-5.9c0-0.1,0-0.2-0.1-0.2c-0.1,0-0.2,0-0.2,0.1c-0.4,1.9-0.7,3.9-1.1,5.9c0,0.1,0,0.2,0.1,0.2
	C89.6,141.5,89.7,141.4,89.7,141.3z M88.3,153.2c0.2-2,0.4-4,0.6-5.9c0-0.1-0.1-0.2-0.2-0.2c-0.1,0-0.2,0.1-0.2,0.2
	c-0.2,2-0.4,4-0.6,5.9c0,0.1,0.1,0.2,0.2,0.2C88.2,153.3,88.3,153.2,88.3,153.2L88.3,153.2z M87.8,165.1c0-0.1,0-0.1,0-0.2
	c0-1.9,0-3.9,0.1-5.8c0-0.1-0.1-0.2-0.2-0.2c-0.1,0-0.2,0.1-0.2,0.2c-0.1,1.9-0.1,3.9-0.1,5.8c0,0.1,0,0.1,0,0.2
	c0,0.1,0.1,0.2,0.2,0.2C87.7,165.2,87.8,165.2,87.8,165.1L87.8,165.1z M88.3,177c-0.2-2-0.3-4-0.4-6c0-0.1-0.1-0.2-0.2-0.2
	c-0.1,0-0.2,0.1-0.2,0.2c0.1,2,0.2,4,0.4,6c0,0.1,0.1,0.2,0.2,0.2C88.2,177.2,88.3,177.1,88.3,177L88.3,177z M89.7,188.8
	c-0.3-2-0.6-3.9-0.8-5.9c0-0.1-0.1-0.2-0.2-0.2c-0.1,0-0.2,0.1-0.2,0.2c0.2,2,0.5,4,0.8,5.9c0,0.1,0.1,0.2,0.2,0.1
	C89.7,189,89.8,188.9,89.7,188.8L89.7,188.8z M92.1,200.5c-0.5-1.9-0.9-3.9-1.3-5.8c0-0.1-0.1-0.2-0.2-0.1c-0.1,0-0.2,0.1-0.1,0.2
	c0.4,2,0.8,3.9,1.3,5.8c0,0.1,0.1,0.2,0.2,0.1C92.1,200.7,92.1,200.6,92.1,200.5L92.1,200.5z M95.5,212c-0.6-1.9-1.2-3.8-1.8-5.7
	c0-0.1-0.1-0.1-0.2-0.1c-0.1,0-0.1,0.1-0.1,0.2c0.6,1.9,1.2,3.8,1.8,5.7c0,0.1,0.1,0.1,0.2,0.1C95.4,212.2,95.5,212.1,95.5,212
	L95.5,212z M99.7,223.1c-0.8-1.8-1.5-3.7-2.2-5.5c0-0.1-0.1-0.1-0.2-0.1c-0.1,0-0.1,0.1-0.1,0.2c0.7,1.9,1.5,3.7,2.2,5.5
	c0,0.1,0.1,0.1,0.2,0.1C99.7,223.3,99.7,223.2,99.7,223.1L99.7,223.1z M104.8,233.8c-0.9-1.8-1.8-3.5-2.7-5.3c0-0.1-0.1-0.1-0.2-0.1
	c-0.1,0-0.1,0.1-0.1,0.2c0.9,1.8,1.7,3.6,2.7,5.3c0,0.1,0.2,0.1,0.2,0.1C104.8,234,104.8,233.9,104.8,233.8L104.8,233.8z
	 M110.8,244.1c-1.1-1.7-2.1-3.4-3.1-5.1c0-0.1-0.2-0.1-0.2-0.1c-0.1,0-0.1,0.2-0.1,0.2c1,1.7,2,3.4,3.1,5.1c0.1,0.1,0.2,0.1,0.2,0.1
	C110.8,244.3,110.8,244.2,110.8,244.1z M117.6,253.9c-1.2-1.6-2.4-3.2-3.5-4.8c-0.1-0.1-0.2-0.1-0.2,0c-0.1,0.1-0.1,0.2,0,0.2
	c1.1,1.6,2.3,3.3,3.5,4.8c0.1,0.1,0.2,0.1,0.2,0C117.6,254.1,117.6,254,117.6,253.9L117.6,253.9z M125.1,263.2
	c-1.3-1.5-2.6-3-3.9-4.5c-0.1-0.1-0.2-0.1-0.2,0s-0.1,0.2,0,0.2c1.3,1.5,2.6,3.1,3.9,4.5c0.1,0.1,0.2,0.1,0.2,0
	C125.2,263.4,125.2,263.2,125.1,263.2L125.1,263.2z M133.4,271.8c-1.4-1.4-2.8-2.8-4.2-4.2c-0.1-0.1-0.2-0.1-0.2,0
	c-0.1,0.1-0.1,0.2,0,0.2c1.4,1.4,2.8,2.8,4.2,4.2c0.1,0.1,0.2,0.1,0.2,0C133.4,271.9,133.4,271.8,133.4,271.8L133.4,271.8z
	 M142.3,279.7c-1.5-1.3-3.1-2.5-4.5-3.9c-0.1-0.1-0.2-0.1-0.2,0c-0.1,0.1-0.1,0.2,0,0.2c1.5,1.3,3,2.6,4.6,3.9
	c0.1,0.1,0.2,0.1,0.2,0C142.4,279.9,142.4,279.7,142.3,279.7L142.3,279.7z M151.8,286.9c-1.6-1.1-3.3-2.3-4.8-3.5
	c-0.1-0.1-0.2,0-0.2,0c-0.1,0.1,0,0.2,0,0.2c1.6,1.2,3.2,2.4,4.9,3.5c0.1,0.1,0.2,0,0.2,0C151.9,287,151.9,286.9,151.8,286.9
	L151.8,286.9z M161.9,293.2c-1.7-1-3.4-2-5.1-3.1c-0.1-0.1-0.2,0-0.2,0.1c-0.1,0.1,0,0.2,0.1,0.2c1.7,1.1,3.4,2.1,5.1,3.1
	c0.1,0,0.2,0,0.2-0.1C162,293.4,162,293.3,161.9,293.2L161.9,293.2z M172.5,298.8c-1.8-0.9-3.6-1.7-5.3-2.7c-0.1,0-0.2,0-0.2,0.1
	c0,0.1,0,0.2,0.1,0.2c1.8,0.9,3.6,1.8,5.4,2.7c0.1,0,0.2,0,0.2-0.1C172.6,299,172.6,298.8,172.5,298.8L172.5,298.8z M183.5,303.5
	c-1.9-0.7-3.7-1.5-5.5-2.2c-0.1,0-0.2,0-0.2,0.1c0,0.1,0,0.2,0.1,0.2c1.8,0.8,3.7,1.5,5.6,2.2c0.1,0,0.2,0,0.2-0.1
	C183.6,303.6,183.6,303.5,183.5,303.5L183.5,303.5z M194.8,307.3c-1.9-0.6-3.8-1.1-5.7-1.8c-0.1,0-0.2,0-0.2,0.1
	c0,0.1,0,0.2,0.1,0.2c1.9,0.6,3.8,1.2,5.7,1.8c0.1,0,0.2,0,0.2-0.1C195,307.4,194.9,307.3,194.8,307.3L194.8,307.3z M206.4,310.1
	c-2-0.4-3.9-0.8-5.8-1.3c-0.1,0-0.2,0-0.2,0.1c0,0.1,0,0.2,0.1,0.2c1.9,0.5,3.9,0.9,5.8,1.3c0.1,0,0.2,0,0.2-0.1
	C206.6,310.2,206.5,310.1,206.4,310.1L206.4,310.1z M218.2,312c-2-0.2-4-0.5-5.9-0.8c-0.1,0-0.2,0-0.2,0.1c0,0.1,0,0.2,0.1,0.2
	c2,0.3,3.9,0.6,5.9,0.8c0.1,0,0.2-0.1,0.2-0.2C218.4,312.1,218.3,312,218.2,312L218.2,312z M230.1,312.9c-2-0.1-4-0.2-6-0.4
	c-0.1,0-0.2,0.1-0.2,0.2c0,0.1,0.1,0.2,0.2,0.2c2,0.2,4,0.3,6,0.4c0.1,0,0.2-0.1,0.2-0.2C230.3,313,230.2,312.9,230.1,312.9
	L230.1,312.9z M242,312.9c-2,0.1-4,0.1-6,0.1c-0.1,0-0.2,0.1-0.2,0.2c0,0.1,0.1,0.2,0.2,0.2c2,0,4,0,6-0.1c0.1,0,0.2-0.1,0.2-0.2
	C242.2,313,242.1,312.9,242,312.9L242,312.9z M253.9,312c-2,0.2-3.9,0.4-5.9,0.6c-0.1,0-0.2,0.1-0.2,0.2s0.1,0.2,0.2,0.2
	c2-0.2,4-0.4,5.9-0.6c0.1,0,0.2-0.1,0.2-0.2C254.1,312,254,312,253.9,312L253.9,312z M265.7,310.1c-1.9,0.4-3.9,0.8-5.9,1.1
	c-0.1,0-0.2,0.1-0.1,0.2c0,0.1,0.1,0.2,0.2,0.1c2-0.3,3.9-0.7,5.9-1.1c0.1,0,0.2-0.1,0.1-0.2C265.9,310.1,265.8,310,265.7,310.1
	L265.7,310.1z M277.3,307.2c-1.9,0.6-3.8,1.1-5.8,1.5c-0.1,0-0.2,0.1-0.1,0.2c0,0.1,0.1,0.2,0.2,0.1c1.9-0.5,3.9-1,5.8-1.5
	c0.1,0,0.1-0.1,0.1-0.2C277.4,307.2,277.3,307.2,277.3,307.2L277.3,307.2z M288.6,303.4c-1.9,0.7-3.7,1.4-5.6,2
	c-0.1,0-0.1,0.1-0.1,0.2c0,0.1,0.1,0.1,0.2,0.1c1.9-0.6,3.8-1.3,5.6-2c0.1,0,0.1-0.1,0.1-0.2C288.8,303.4,288.7,303.4,288.6,303.4
	L288.6,303.4z M299.5,298.8c-1.8,0.9-3.6,1.7-5.4,2.4c-0.1,0-0.1,0.1-0.1,0.2c0,0.1,0.1,0.1,0.2,0.1c1.8-0.8,3.6-1.6,5.4-2.5
	c0.1,0,0.1-0.1,0.1-0.2C299.7,298.8,299.6,298.7,299.5,298.8L299.5,298.8z M310,293.2c-1.7,1-3.5,2-5.2,2.9c-0.1,0-0.1,0.2-0.1,0.2
	c0,0.1,0.2,0.1,0.2,0.1c1.8-0.9,3.5-1.9,5.2-2.9c0.1,0,0.1-0.2,0.1-0.2C310.2,293.2,310.1,293.2,310,293.2L310,293.2z M320.1,286.8
	c-1.6,1.1-3.3,2.2-5,3.3c-0.1,0.1-0.1,0.2-0.1,0.2c0.1,0.1,0.2,0.1,0.2,0.1c1.7-1.1,3.3-2.2,5-3.3c0.1-0.1,0.1-0.2,0-0.2
	C320.3,286.8,320.2,286.8,320.1,286.8L320.1,286.8z M329.6,279.7c-1.5,1.3-3.1,2.5-4.7,3.7c-0.1,0.1-0.1,0.2,0,0.2s0.2,0.1,0.2,0
	c1.6-1.2,3.2-2.4,4.7-3.7c0.1-0.1,0.1-0.2,0-0.2C329.8,279.6,329.7,279.6,329.6,279.7L329.6,279.7z M338.6,271.8
	c-1.4,1.4-2.9,2.7-4.4,4c-0.1,0.1-0.1,0.2,0,0.2c0.1,0.1,0.2,0.1,0.2,0c1.5-1.3,3-2.7,4.4-4.1c0.1-0.1,0.1-0.2,0-0.2
	S338.6,271.7,338.6,271.8L338.6,271.8z M346.8,263.2c-1.3,1.5-2.7,2.9-4,4.4c-0.1,0.1-0.1,0.2,0,0.2c0.1,0.1,0.2,0.1,0.2,0
	c1.4-1.4,2.7-2.9,4.1-4.4c0.1-0.1,0.1-0.2,0-0.2C347,263.1,346.9,263.1,346.8,263.2z M354.4,253.9c-1.2,1.6-2.4,3.2-3.7,4.7
	c-0.1,0.1-0.1,0.2,0,0.2c0.1,0.1,0.2,0.1,0.2,0c1.3-1.5,2.5-3.1,3.7-4.7c0.1-0.1,0-0.2,0-0.2C354.5,253.8,354.4,253.9,354.4,253.9z
	 M361.2,244.1c-1.1,1.7-2.2,3.3-3.3,5c-0.1,0.1,0,0.2,0,0.2c0.1,0.1,0.2,0,0.2,0c1.1-1.6,2.2-3.3,3.3-5c0.1-0.1,0-0.2-0.1-0.2
	C361.3,244,361.2,244,361.2,244.1L361.2,244.1z M367.2,233.8c-0.9,1.8-1.9,3.5-2.9,5.2c0,0.1,0,0.2,0.1,0.2c0.1,0,0.2,0,0.2-0.1
	c1-1.7,2-3.5,2.9-5.2c0-0.1,0-0.2-0.1-0.2C367.3,233.7,367.2,233.7,367.2,233.8L367.2,233.8z M372.3,223c-0.8,1.8-1.6,3.7-2.5,5.4
	c0,0.1,0,0.2,0.1,0.2c0.1,0,0.2,0,0.2-0.1c0.9-1.8,1.7-3.6,2.5-5.5c0-0.1,0-0.2-0.1-0.2C372.4,222.9,372.3,222.9,372.3,223
	L372.3,223z M376.5,211.8c-0.6,1.9-1.3,3.8-2,5.6c0,0.1,0,0.2,0.1,0.2c0.1,0,0.2,0,0.2-0.1c0.7-1.9,1.4-3.7,2-5.6
	c0-0.1,0-0.2-0.1-0.2C376.7,211.7,376.6,211.7,376.5,211.8L376.5,211.8z M379.8,200.4c-0.5,1.9-1,3.9-1.5,5.8c0,0.1,0,0.2,0.1,0.2
	c0.1,0,0.2,0,0.2-0.1c0.6-1.9,1.1-3.8,1.5-5.8c0-0.1,0-0.2-0.1-0.2C380,200.2,379.9,200.3,379.8,200.4L379.8,200.4z M382.2,188.7
	c-0.3,2-0.7,3.9-1.1,5.9c0,0.1,0,0.2,0.1,0.2c0.1,0,0.2,0,0.2-0.1c0.4-1.9,0.8-3.9,1.1-5.9c0-0.1,0-0.2-0.1-0.2
	C382.3,188.5,382.2,188.6,382.2,188.7z M383.6,176.8c-0.2,2-0.4,4-0.6,5.9c0,0.1,0.1,0.2,0.2,0.2c0.1,0,0.2-0.1,0.2-0.2
	c0.2-2,0.4-4,0.6-5.9c0-0.1-0.1-0.2-0.2-0.2C383.7,176.7,383.6,176.7,383.6,176.8L383.6,176.8z" id="BJKe16b7iRf"/>
<script>(function(){var a=document.querySelector('#SJ1p-7sAM'),b=a.querySelectorAll('style'),c=function(d){b.forEach(function(f){var g=f.textContent;g&amp;&amp;(f.textContent=g.replace(/transform-box:[^;\r\n]*/gi,'transform-box: '+d))})};c('initial'),window.requestAnimationFrame(function(){return c('fill-box')})})();</script></svg>