<?xml version="1.0" encoding="utf-8"?>
<!-- Generator: Adobe Illustrator 21.1.0, SVG Export Plug-In . SVG Version: 6.00 Build 0)  -->
<svg version="1.1" id="Capa_1" xmlns="http://www.w3.org/2000/svg" xmlns:xlink="http://www.w3.org/1999/xlink" x="0px" y="0px"
	 viewBox="0 0 1848 512" style="enable-background:new 0 0 1848 512;" xml:space="preserve">
<style type="text/css">
	.st0{fill:#FF9300;}
</style>
<g>
	<g>
		<path class="st0" d="M347.1,164L316,132.7L330.5,91l-41.7-14.6l-5-43.9L240,37.3L216.4,0L179,23.5L141.6,0L118,37.3l-43.9-4.8
			l-5,43.9L27.5,91L42,132.7L10.9,164L42,195.3L27.5,237l41.7,14.6l5,43.9l43.9-4.8l0.7,221.4l60.3-65l60.3,65.1l0.7-221.4l43.9,4.9
			l5-43.9l41.7-14.6L316,195.3L347.1,164z M179,271c-59,0-107.1-48-107.1-107.1c0-59,48-107.1,107.1-107.1
			c59,0,107.1,48,107.1,107.1S238,271,179,271z M267.5,164c0,48.8-39.7,88.5-88.5,88.5S90.5,212.8,90.5,164s39.7-88.5,88.5-88.5
			S267.5,115.2,267.5,164z"/>
	</g>
</g>
<g>
	<g>
		<path class="st0" d="M717,164l-31.1-31.3L700.4,91l-41.7-14.6l-5-43.9l-43.9,4.8L586.3,0l-37.4,23.5L511.5,0l-23.6,37.3L444,32.5
			l-5,43.9L397.3,91l14.5,41.7L380.7,164l31.1,31.3L397.3,237l41.7,14.6l5,43.9l43.9-4.8l0.7,221.4l60.3-65l60.3,65.1l0.7-221.4
			l43.9,4.9l5-43.9l41.7-14.6L686,195.5L717,164z M548.9,271c-59,0-107.1-48-107.1-107.1c0-59,48-107.1,107.1-107.1
			c59,0,107.1,48,107.1,107.1C655.9,223,607.9,271,548.9,271z M637.3,164c0,48.8-39.7,88.5-88.5,88.5s-88.5-39.7-88.5-88.5
			s39.7-88.5,88.5-88.5S637.3,115.2,637.3,164z"/>
	</g>
</g>
<g>
	<g>
		<path class="st0" d="M1086.9,164l-31.1-31.3l14.5-41.7l-41.7-14.6l-5-43.9l-43.9,4.8L956.1,0l-37.4,23.5L881.3,0l-23.6,37.3
			l-43.9-4.8l-5,43.9L767.2,91l14.5,41.7L750.6,164l31.1,31.3L767.2,237l41.7,14.6l5,43.9l43.9-4.8l0.7,221.4l60.3-65L979,512
			l0.7-221.4l43.9,4.9l5-43.9l41.7-14.6l-14.5-41.7L1086.9,164z M918.7,271c-59,0-107.1-48-107.1-107.1c0-59,48-107.1,107.1-107.1
			c59,0,107.1,48,107.1,107.1S977.7,271,918.7,271z M1007.2,164c0,48.8-39.7,88.5-88.5,88.5c-48.8,0-88.5-39.7-88.5-88.5
			s39.7-88.5,88.5-88.5C967.5,75.5,1007.2,115.2,1007.2,164z"/>
	</g>
</g>
<g>
	<g>
		<path class="st0" d="M1456.7,164l-31.1-31.3l14.5-41.7l-41.7-14.6l-5-43.9l-43.9,4.8L1326,0l-37.4,23.5L1251.2,0l-23.6,37.3
			l-43.9-4.8l-5,43.9L1137,91l14.5,41.7l-31.1,31.3l31.1,31.3L1137,237l41.7,14.6l5,43.9l43.9-4.8l0.7,221.4l60.3-65l60.3,65.1
			l0.7-221.4l43.9,4.9l5-43.9l41.7-14.6l-14.5-41.7L1456.7,164z M1288.6,271c-59,0-107.1-48-107.1-107.1c0-59,48-107.1,107.1-107.1
			c59,0,107.1,48,107.1,107.1C1395.6,223,1347.6,271,1288.6,271z M1377,164c0,48.8-39.7,88.5-88.5,88.5S1200,212.8,1200,164
			s39.7-88.5,88.5-88.5S1377,115.2,1377,164z"/>
	</g>
</g>
<g>
	<g>
		<path class="st0" d="M1826.6,164l-31.1-31.3L1810,91l-41.7-14.6l-5-43.9l-43.9,4.8L1695.8,0l-37.4,23.5L1621,0l-23.6,37.3
			l-43.9-4.8l-5,43.9L1506.9,91l14.5,41.7l-31.1,31.3l31.1,31.3l-14.5,41.7l41.7,14.6l5,43.9l43.9-4.8l0.7,221.4l60.3-65l60.3,65.1
			l0.7-221.4l43.9,4.9l5-43.9L1810,237l-14.5-41.7L1826.6,164z M1658.4,271c-59,0-107.1-48-107.1-107.1c0-59,48-107.1,107.1-107.1
			c59,0,107.1,48,107.1,107.1S1717.4,271,1658.4,271z M1746.9,164c0,48.8-39.7,88.5-88.5,88.5s-88.5-39.7-88.5-88.5
			s39.7-88.5,88.5-88.5C1707.2,75.5,1746.9,115.2,1746.9,164z"/>
	</g>
</g>
</svg>
