<?xml version="1.0" encoding="utf-8"?>
<!-- Generator: Adobe Illustrator 21.1.0, SVG Export Plug-In . SVG Version: 6.00 Build 0)  -->
<svg version="1.1" id="Capa_1" xmlns="http://www.w3.org/2000/svg" xmlns:xlink="http://www.w3.org/1999/xlink" x="0px" y="0px"
	 viewBox="0 0 1110 512" style="enable-background:new 0 0 1110 512;" xml:space="preserve">
<style type="text/css">
	.st0{fill:#FF9300;}
</style>
<g>
	<g>
		<path class="st0" d="M353.1,164L322,132.7L336.5,91l-41.7-14.6l-5-43.9L246,37.3L222.4,0L185,23.5L147.6,0L124,37.3l-43.9-4.8
			l-5,43.9L33.5,91L48,132.7L16.9,164L48,195.3L33.5,237l41.7,14.6l5,43.9l43.9-4.8l0.7,221.4l60.3-65l60.3,65.1l0.7-221.4l43.9,4.9
			l5-43.9l41.7-14.6L322,195.3L353.1,164z M185,271c-59,0-107.1-48-107.1-107.1c0-59,48-107.1,107.1-107.1
			c59,0,107.1,48,107.1,107.1S244,271,185,271z M273.5,164c0,48.8-39.7,88.5-88.5,88.5S96.5,212.8,96.5,164s39.7-88.5,88.5-88.5
			S273.5,115.2,273.5,164z"/>
	</g>
</g>
<g>
	<g>
		<path class="st0" d="M723,164l-31.1-31.3L706.4,91l-41.7-14.6l-5-43.9l-43.9,4.8L592.3,0l-37.4,23.5L517.5,0l-23.6,37.3L450,32.5
			l-5,43.9L403.3,91l14.5,41.7L386.7,164l31.1,31.3L403.3,237l41.7,14.6l5,43.9l43.9-4.8l0.7,221.4l60.3-65l60.3,65.1l0.7-221.4
			l43.9,4.9l5-43.9l41.7-14.6L692,195.5L723,164z M554.9,271c-59,0-107.1-48-107.1-107.1c0-59,48-107.1,107.1-107.1
			c59,0,107.1,48,107.1,107.1C661.9,223,613.9,271,554.9,271z M643.3,164c0,48.8-39.7,88.5-88.5,88.5s-88.5-39.7-88.5-88.5
			s39.7-88.5,88.5-88.5S643.3,115.2,643.3,164z"/>
	</g>
</g>
<g>
	<g>
		<path class="st0" d="M1092.9,164l-31.1-31.3l14.5-41.7l-41.7-14.6l-5-43.9l-43.9,4.8L962.1,0l-37.4,23.5L887.3,0l-23.6,37.3
			l-43.9-4.8l-5,43.9L773.2,91l14.5,41.7L756.6,164l31.1,31.3L773.2,237l41.7,14.6l5,43.9l43.9-4.8l0.7,221.4l60.3-65L985,512
			l0.7-221.4l43.9,4.9l5-43.9l41.7-14.6l-14.5-41.7L1092.9,164z M924.7,271c-59,0-107.1-48-107.1-107.1c0-59,48-107.1,107.1-107.1
			c59,0,107.1,48,107.1,107.1S983.7,271,924.7,271z M1013.2,164c0,48.8-39.7,88.5-88.5,88.5c-48.8,0-88.5-39.7-88.5-88.5
			s39.7-88.5,88.5-88.5C973.5,75.5,1013.2,115.2,1013.2,164z"/>
	</g>
</g>
</svg>
